<svg width="138" height="39" viewBox="0 0 138 39" fill="none" xmlns="http://www.w3.org/2000/svg">
<mask id="mask0_459_8082" style="mask-type:alpha" maskUnits="userSpaceOnUse" x="-2" y="0" width="159" height="39">
<rect x="-2" width="158.671" height="39" rx="7.15189" fill="url(#paint0_linear_459_8082)"/>
</mask>
<g mask="url(#mask0_459_8082)">
<rect x="20.4062" y="-19.2329" width="27.2466" height="76.3973" transform="rotate(32.077 20.4062 -19.2329)" fill="url(#paint1_linear_459_8082)"/>
<rect x="71.1602" y="-19.2329" width="27.2466" height="76.3973" transform="rotate(32.077 71.1602 -19.2329)" fill="url(#paint2_linear_459_8082)"/>
<rect x="121.914" y="-19.2329" width="27.2466" height="76.3973" transform="rotate(32.077 121.914 -19.2329)" fill="url(#paint3_linear_459_8082)"/>
<rect opacity="0.27" x="172.668" y="-19.2329" width="27.2466" height="76.3973" transform="rotate(32.077 172.668 -19.2329)" fill="url(#paint4_linear_459_8082)"/>
<g opacity="0.58" filter="url(#filter0_f_459_8082)">
<circle cx="77.3349" cy="64.3769" r="49.9521" fill="#FF4900"/>
</g>
</g>
<defs>
<filter id="filter0_f_459_8082" x="-41.1788" y="-54.1368" width="237.028" height="237.028" filterUnits="userSpaceOnUse" color-interpolation-filters="sRGB">
<feFlood flood-opacity="0" result="BackgroundImageFix"/>
<feBlend mode="normal" in="SourceGraphic" in2="BackgroundImageFix" result="shape"/>
<feGaussianBlur stdDeviation="34.2808" result="effect1_foregroundBlur_459_8082"/>
</filter>
<linearGradient id="paint0_linear_459_8082" x1="77.3356" y1="0" x2="77.3356" y2="39" gradientUnits="userSpaceOnUse">
<stop stop-color="#FFA12A"/>
<stop offset="1" stop-color="#FEEF6D"/>
</linearGradient>
<linearGradient id="paint1_linear_459_8082" x1="34.0295" y1="-19.2329" x2="34.0295" y2="57.1644" gradientUnits="userSpaceOnUse">
<stop stop-color="#AD019C"/>
<stop offset="1" stop-color="#FB803B"/>
</linearGradient>
<linearGradient id="paint2_linear_459_8082" x1="84.7834" y1="-19.2329" x2="84.7834" y2="57.1644" gradientUnits="userSpaceOnUse">
<stop stop-color="#AD019C"/>
<stop offset="1" stop-color="#FB803B"/>
</linearGradient>
<linearGradient id="paint3_linear_459_8082" x1="135.537" y1="-19.2329" x2="135.537" y2="57.1644" gradientUnits="userSpaceOnUse">
<stop stop-color="#AD019C"/>
<stop offset="1" stop-color="#FB803B"/>
</linearGradient>
<linearGradient id="paint4_linear_459_8082" x1="186.291" y1="-19.2329" x2="186.291" y2="57.1644" gradientUnits="userSpaceOnUse">
<stop stop-color="#AD019C"/>
<stop offset="1" stop-color="#FB803B"/>
</linearGradient>
</defs>
</svg>
