<svg width="137" height="39" viewBox="0 0 137 39" fill="none" xmlns="http://www.w3.org/2000/svg">
<mask id="mask0_459_8073" style="mask-type:alpha" maskUnits="userSpaceOnUse" x="-22" y="0" width="159" height="39">
<rect x="-22" width="158.671" height="39" rx="7.15189" fill="url(#paint0_linear_459_8073)"/>
</mask>
<g mask="url(#mask0_459_8073)">
<rect x="0.40625" y="-19.2329" width="27.2466" height="76.3973" transform="rotate(32.077 0.40625 -19.2329)" fill="url(#paint1_linear_459_8073)"/>
<rect x="51.1602" y="-19.2329" width="27.2466" height="76.3973" transform="rotate(32.077 51.1602 -19.2329)" fill="url(#paint2_linear_459_8073)"/>
<rect x="101.914" y="-19.2329" width="27.2466" height="76.3973" transform="rotate(32.077 101.914 -19.2329)" fill="url(#paint3_linear_459_8073)"/>
<rect opacity="0.27" x="152.668" y="-19.2329" width="27.2466" height="76.3973" transform="rotate(32.077 152.668 -19.2329)" fill="url(#paint4_linear_459_8073)"/>
<g opacity="0.58" filter="url(#filter0_f_459_8073)">
<circle cx="57.3349" cy="64.3769" r="49.9521" fill="#FF4900"/>
</g>
</g>
<defs>
<filter id="filter0_f_459_8073" x="-61.1788" y="-54.1368" width="237.028" height="237.028" filterUnits="userSpaceOnUse" color-interpolation-filters="sRGB">
<feFlood flood-opacity="0" result="BackgroundImageFix"/>
<feBlend mode="normal" in="SourceGraphic" in2="BackgroundImageFix" result="shape"/>
<feGaussianBlur stdDeviation="34.2808" result="effect1_foregroundBlur_459_8073"/>
</filter>
<linearGradient id="paint0_linear_459_8073" x1="57.3356" y1="0" x2="57.3356" y2="39" gradientUnits="userSpaceOnUse">
<stop stop-color="#FFA12A"/>
<stop offset="1" stop-color="#FEEF6D"/>
</linearGradient>
<linearGradient id="paint1_linear_459_8073" x1="14.0295" y1="-19.2329" x2="14.0295" y2="57.1644" gradientUnits="userSpaceOnUse">
<stop stop-color="#EC00D4"/>
<stop offset="1" stop-color="#FF5C00"/>
</linearGradient>
<linearGradient id="paint2_linear_459_8073" x1="64.7834" y1="-19.2329" x2="64.7834" y2="57.1644" gradientUnits="userSpaceOnUse">
<stop stop-color="#EC00D4"/>
<stop offset="1" stop-color="#FF5C00"/>
</linearGradient>
<linearGradient id="paint3_linear_459_8073" x1="115.537" y1="-19.2329" x2="115.537" y2="57.1644" gradientUnits="userSpaceOnUse">
<stop stop-color="#EC00D4"/>
<stop offset="1" stop-color="#FF5C00"/>
</linearGradient>
<linearGradient id="paint4_linear_459_8073" x1="166.291" y1="-19.2329" x2="166.291" y2="57.1644" gradientUnits="userSpaceOnUse">
<stop stop-color="#EC00D4"/>
<stop offset="1" stop-color="#FF5C00"/>
</linearGradient>
</defs>
</svg>
