<svg width="31" height="31" viewBox="0 0 31 31" fill="none" xmlns="http://www.w3.org/2000/svg">
<rect x="0.130859" y="0.361816" width="30.5903" height="30.5903" rx="5" fill="#FF4900"/>
<path d="M6.31922 8.47998C6.10701 8.47998 5.90557 8.52456 5.72016 8.59811L14.8833 16.6053C15.2794 16.9513 15.7013 16.9516 16.0983 16.6053L25.2783 8.59811C25.0929 8.52456 24.8914 8.47998 24.6792 8.47998H6.31922ZM4.71609 9.87215C4.70588 9.94597 4.69922 10.0233 4.69922 10.1V20.9C4.69922 21.7974 5.42175 22.52 6.31922 22.52H24.6792C25.5767 22.52 26.2992 21.7974 26.2992 20.9V10.1C26.2992 10.0233 26.2925 9.94597 26.2823 9.87215L17.1614 17.8287C16.2098 18.6587 14.7717 18.6601 13.8202 17.8287L4.71609 9.87215Z" fill="white"/>
</svg>
