<svg width="31" height="32" viewBox="0 0 31 32" fill="none" xmlns="http://www.w3.org/2000/svg">
<rect x="0.130859" y="0.431641" width="30.5903" height="30.5903" rx="5" fill="white"/>
<path d="M6.3202 8.54932C6.10798 8.54932 5.90654 8.59389 5.72113 8.66744L14.8843 16.6746C15.2803 17.0207 15.7022 17.0209 16.0993 16.6746L25.2793 8.66744C25.0938 8.59389 24.8924 8.54932 24.6802 8.54932H6.3202ZM4.71707 9.94149C4.70686 10.0153 4.7002 10.0926 4.7002 10.1693V20.9693C4.7002 21.8668 5.42273 22.5893 6.3202 22.5893H24.6802C25.5777 22.5893 26.3002 21.8668 26.3002 20.9693V10.1693C26.3002 10.0926 26.2935 10.0153 26.2833 9.94149L17.1624 17.8981C16.2108 18.7281 14.7727 18.7294 13.8211 17.8981L4.71707 9.94149Z" fill="black"/>
</svg>
