<svg width="173" height="54" viewBox="0 0 173 54" fill="none" xmlns="http://www.w3.org/2000/svg">
<path fill-rule="evenodd" clip-rule="evenodd" d="M34.167 35.2507H41.2172V37.5361H37.862V53.6896H34.167V35.2507Z" fill="white"/>
<path fill-rule="evenodd" clip-rule="evenodd" d="M41.2168 53.6896H44.869L45.2167 48.7873H46.9747L47.3228 53.6896H50.9785L49.0312 35.2507H43.1598L41.2168 53.6896ZM45.3515 46.7638L45.991 37.5317H46.2021L46.8421 46.7638H45.3515Z" fill="white"/>
<path fill-rule="evenodd" clip-rule="evenodd" d="M56.3518 47.2351V50.709C56.3518 51.1807 56.7298 51.3151 56.9392 51.3151C57.2917 51.3151 57.5325 51.0248 57.5325 50.709V46.4149C57.5325 45.8446 57.4219 45.2087 56.0264 45.2087H54.5042V43.1772H56.0823C57.1556 43.1772 57.5325 42.9411 57.5325 41.8055V38.1378C57.5325 37.8225 57.2917 37.5317 56.9392 37.5317C56.7298 37.5317 56.3518 37.6679 56.3518 38.1378V41.1451H52.6055V38.5423C52.6055 37.2508 52.7663 35.2507 55.3849 35.2507H58.4978C61.1243 35.2507 61.2827 37.2508 61.2827 38.5423V41.4902C61.2827 43.4925 59.865 44.0444 58.7353 43.996V44.1813C61.2577 44.1275 61.2827 46.0216 61.2827 46.6825V50.3963C61.2827 51.6864 61.1243 53.6896 58.4978 53.6896H55.3849C52.7663 53.6896 52.6055 51.6864 52.6055 50.3963V47.2351H56.3518Z" fill="white"/>
<path fill-rule="evenodd" clip-rule="evenodd" d="M63.4512 35.2507H72.1283V53.6896H68.3744V37.5361H67.197V53.6896H63.4512V35.2507Z" fill="white"/>
<path fill-rule="evenodd" clip-rule="evenodd" d="M74.8398 53.6896H78.5911V47.4177H80.7321C83.363 47.4177 83.5174 45.4181 83.5174 44.1275V38.5423C83.5174 37.2508 83.363 35.2507 80.7321 35.2507H74.8398V53.6896ZM78.5911 45.3914V37.5317H79.0759C79.4745 37.5317 79.7712 37.8781 79.7712 38.4574V44.4699C79.7712 45.0468 79.4745 45.3914 79.0759 45.3914H78.5911Z" fill="white"/>
<path fill-rule="evenodd" clip-rule="evenodd" d="M85.6865 50.3963C85.6865 51.6864 85.8442 53.6896 88.4767 53.6896H91.5815C94.2047 53.6896 94.3641 51.6864 94.3641 50.3963V38.5423C94.3641 37.2508 94.2047 35.2507 91.5815 35.2507H88.4767C85.8442 35.2507 85.6865 37.2508 85.6865 38.5423V50.3963ZM90.6151 50.709C90.6151 51.0248 90.3718 51.3151 90.0295 51.3151C89.8139 51.3151 89.4381 51.1807 89.4381 50.709V38.1378C89.4381 37.6679 89.8139 37.5325 90.0295 37.5325C90.3718 37.5325 90.6151 37.8238 90.6151 38.1378V50.709Z" fill="white"/>
<path fill-rule="evenodd" clip-rule="evenodd" d="M106.294 35.2507H111.175V53.6896H107.422V42.1243H107.291L105.36 53.6896H102.354L100.423 42.1243H100.285V53.6896H96.5332V35.2507H101.412L103.858 48.2113L106.294 35.2507Z" fill="white"/>
<path fill-rule="evenodd" clip-rule="evenodd" d="M29.1341 17.9786C29.0915 19.8629 28.87 21.8448 28.5873 23.0347C28.6886 20.9882 28.446 18.1012 27.9853 15.8457C27.5242 13.5954 26.2193 9.82413 25.1735 8.08128C24.2078 9.74418 23.0189 13.0003 22.3996 15.822C21.7753 18.655 21.7597 22.0693 21.7597 23.0957C21.5926 22.2327 21.1754 19.15 21.2964 16.05C21.3935 13.4965 21.979 10.8674 22.2976 9.66591C23.5252 5.62978 24.914 3.04968 25.1735 2.63944C25.4325 3.04968 27.1804 6.2215 28.0874 9.56055C28.9911 12.8992 29.1703 16.0925 29.1341 17.9786ZM25.1917 32.3961C24.6513 31.3538 23.8088 29.3633 23.7251 26.2956C23.7032 23.3228 24.8761 20.7793 25.2165 20.2499C25.5161 20.7793 26.518 22.9878 26.6404 26.0255C26.7197 28.9951 25.754 31.3319 25.1917 32.3961ZM29.4521 9.60358C28.3486 4.66654 25.5747 0.652764 25.1917 0C24.5896 0.918514 22.3815 4.461 21.2535 8.39607C20.0292 12.7771 19.8485 16.6661 20.2721 20.5011C20.6923 24.3274 22.2769 28.2556 22.2769 28.2556C23.1253 30.3252 24.3892 32.5398 25.2165 33.6239C26.4172 32.0268 29.1923 27.26 30.0555 21.027C30.5347 17.5726 30.5609 14.5354 29.4521 9.60358Z" fill="white"/>
<path fill-rule="evenodd" clip-rule="evenodd" d="M27.1186 35.2525H18.5007V41.0139C18.5042 41.0091 18.5115 41.0027 18.5211 40.9936C20.5458 38.967 23.8448 38.967 25.87 40.9936C27.9016 43.0201 27.9016 46.2976 25.87 48.3255C25.8674 48.3342 25.8535 48.3368 25.844 48.3467C25.8367 48.36 25.8237 48.3712 25.8159 48.3733C23.7902 50.3823 21.1477 51.3844 18.5007 51.3844C15.8378 51.3844 13.1797 50.378 11.1545 48.3535C7.57844 44.7916 7.15559 39.2755 9.87898 35.2525C10.2474 34.7073 10.6694 34.19 11.1545 33.7099C13.1797 31.6863 15.8378 30.6752 18.5007 30.6752V16.8121C8.28062 16.8121 0 25.0647 0 35.2525C0 45.4361 8.28062 53.6899 18.5007 53.6899C23.8227 53.6899 28.6215 51.4447 31.9969 47.8505V35.2525H27.1186Z" fill="white"/>
<path fill-rule="evenodd" clip-rule="evenodd" d="M125.481 46.7621L124.842 37.5162H124.628L123.988 46.7621H125.481ZM121.8 35.2507H127.667L129.615 53.6896H125.962L125.615 48.7903H123.855L123.509 53.6896H119.854L121.8 35.2507Z" fill="white"/>
<path fill-rule="evenodd" clip-rule="evenodd" d="M135.473 45.3918C135.875 45.3918 136.17 45.0502 136.17 44.4699V38.2011C136.17 37.6217 135.875 37.2788 135.473 37.2788H134.991V45.3918H135.473ZM131.242 35.2507H137.133C139.758 35.2507 139.92 37.253 139.92 38.5436V44.1275C139.92 45.419 139.758 47.4203 137.133 47.4203H134.991V53.6896H131.242V35.2507Z" fill="white"/>
<path fill-rule="evenodd" clip-rule="evenodd" d="M142.088 35.2507H149.523V37.2788H145.753V42.9954H149.523V45.0239H145.753V51.6615H149.68V53.6896H142.088V35.2507Z" fill="white"/>
<path fill-rule="evenodd" clip-rule="evenodd" d="M152.393 35.2507H156.142V42.9954H157.319V35.2507H161.069V53.6896H157.319V45.0239H156.142V53.6896H152.393V35.2507Z" fill="white"/>
<path fill-rule="evenodd" clip-rule="evenodd" d="M168.866 46.7621L168.226 37.5162H168.012L167.372 46.7621H168.866ZM165.185 35.2507H171.053L173 53.6896H169.346L168.999 48.7903H167.239L166.893 53.6896H163.238L165.185 35.2507Z" fill="white"/>
</svg>
