<svg width="175" height="53" viewBox="0 0 175 53" fill="none" xmlns="http://www.w3.org/2000/svg">
<g clip-path="url(#clip0_459_1633)">
<path fill-rule="evenodd" clip-rule="evenodd" d="M56.3744 49.0023H0.731445C16.9983 49.6096 44.0926 49.9498 56.3744 49.9746V49.0023Z" fill="white"/>
<path fill-rule="evenodd" clip-rule="evenodd" d="M118.531 49.0023H174.175C157.906 49.6096 130.813 49.9498 118.531 49.9747V49.0023Z" fill="white"/>
<path fill-rule="evenodd" clip-rule="evenodd" d="M87.5518 1.10917H174.174C157.906 0.501247 103.841 0.161795 87.5518 0.136871V1.10917Z" fill="white"/>
<path fill-rule="evenodd" clip-rule="evenodd" d="M87.5521 1.10917L0.731445 1.1092C16.9983 0.501282 71.2633 0.161794 87.5521 0.136871V1.10917Z" fill="white"/>
<path fill-rule="evenodd" clip-rule="evenodd" d="M74.8693 45.251C73.7278 45.338 73.616 45.4005 73.616 46.4345V51.4677C73.616 52.514 73.7278 52.5766 74.8556 52.651V53H71.1238V52.651C72.3212 52.5766 72.4324 52.514 72.4324 51.4677V48.9883H67.6841V51.4677C67.6841 52.5015 67.7952 52.5766 68.9376 52.651V53H65.275V52.651C66.3892 52.5766 66.5004 52.514 66.5004 51.4677V46.4345C66.5004 45.3882 66.3892 45.3254 65.2471 45.251V44.902H68.8539V45.251C67.7952 45.3254 67.6841 45.4005 67.6841 46.4345V48.4524H72.4324V46.4345C72.4324 45.4005 72.3212 45.338 71.2349 45.251V44.902H74.8693V45.251Z" fill="white"/>
<path fill-rule="evenodd" clip-rule="evenodd" d="M83.0298 46.3346H83.002C82.5564 47.3937 82.1246 48.49 81.6925 49.5117H84.2548L83.0298 46.3346ZM84.3947 53V52.6511C85.2713 52.5518 85.3972 52.452 85.2157 51.9658C85.035 51.48 84.7561 50.8075 84.4503 50.0475H81.4839C81.2613 50.608 81.0523 51.1318 80.8711 51.6548C80.5785 52.4397 80.6901 52.5643 81.7487 52.6511V53H78.7129V52.6511C79.6038 52.539 79.7991 52.464 80.2723 51.3551L83.1549 44.827L83.5867 44.7152C84.4503 46.8458 85.3825 49.2255 86.2739 51.393C86.7056 52.464 86.9011 52.5765 87.8055 52.6511V53H84.3947Z" fill="white"/>
<path fill-rule="evenodd" clip-rule="evenodd" d="M98.6032 51.044C98.519 51.4305 98.2271 52.6141 98.1011 53H91.793V52.651C92.9632 52.5766 93.0744 52.4888 93.0744 51.4304V46.447C93.0744 45.3882 92.991 45.3254 91.8494 45.251V44.902H95.4835V45.251C94.3836 45.3254 94.2585 45.3755 94.2585 46.447V51.368C94.2585 52.0409 94.3272 52.2898 94.5782 52.4148C94.8571 52.5517 95.3306 52.5766 95.9145 52.5766C96.6807 52.5766 97.1542 52.5141 97.4747 52.1901C97.7258 51.9415 97.976 51.5425 98.1854 50.9695L98.6032 51.044Z" fill="white"/>
<path fill-rule="evenodd" clip-rule="evenodd" d="M109.658 51.044C109.575 51.4305 109.282 52.6141 109.157 53H102.849V52.651C104.019 52.5766 104.13 52.4888 104.13 51.4304V46.447C104.13 45.3882 104.047 45.3254 102.904 45.251V44.902H106.539V45.251C105.438 45.3254 105.314 45.3755 105.314 46.447V51.368C105.314 52.0409 105.383 52.2898 105.634 52.4148C105.913 52.5517 106.386 52.5766 106.97 52.5766C107.736 52.5766 108.21 52.5141 108.53 52.1901C108.781 51.9415 109.031 51.5425 109.24 50.9695L109.658 51.044Z" fill="white"/>
<path fill-rule="evenodd" clip-rule="evenodd" d="M16.8814 12.486H20.7427V37.5853H16.742V21.5008L17.0552 19.3088H16.9162L16.081 21.4651L7.0019 37.5853H3.14062V12.486H7.14096V28.5708L6.82803 30.7625H6.96712L7.80191 28.6061L16.8814 12.486Z" fill="white"/>
<path fill-rule="evenodd" clip-rule="evenodd" d="M38.068 17.8242L36.4329 16.1979H29.9277L26.1707 17.5411L24.9183 13.9709L29.3709 12.486H38.2763L42.0681 16.3393V22.667L39.2853 24.8944L42.3117 27.2983V33.5198L38.3114 37.5853H28.884L24.6055 36.1006L25.8229 32.6008L29.6147 33.8734H36.5025L38.3114 32.0351V28.5708L36.0154 26.7679H30.1015V23.0561H36.1893L38.068 21.5711V17.8242Z" fill="white"/>
<path fill-rule="evenodd" clip-rule="evenodd" d="M58.2085 26.3793H50.9382V33.8734H58.7651L60.5045 32.1058V28.1816L58.2085 26.3793ZM50.9382 22.667H58.3823L59.774 21.5711V17.2938L58.6956 16.1979H50.9382V22.667ZM64.5051 26.9093V33.4843L60.4697 37.5853H46.9375V12.486H60.435L63.7745 15.8796V22.667L61.4787 24.5053L64.5051 26.9093Z" fill="white"/>
<path fill-rule="evenodd" clip-rule="evenodd" d="M69.1484 12.486H84.9065V16.1979H73.1488V22.6317H83.4452V26.3436H73.1488V33.8734H84.9065V37.5853H69.1484V12.486Z" fill="white"/>
<path fill-rule="evenodd" clip-rule="evenodd" d="M104.266 30.7625L107.014 33.5198L103.014 37.5853H93.0993L89.0645 33.4843V16.5868L93.0993 12.486H102.597L106.632 16.5868V20.9704H102.631V18.0361L100.822 16.1979H94.8738L93.0649 18.0361V32.0351L94.8738 33.8734H101.205L104.266 30.7625Z" fill="white"/>
<path fill-rule="evenodd" clip-rule="evenodd" d="M121.227 37.5853H117.226V16.1979H110.199V12.486H128.253V16.1979H121.227V37.5853Z" fill="white"/>
<path fill-rule="evenodd" clip-rule="evenodd" d="M145.995 12.4859H149.857V37.5852H145.856V21.5007L146.168 19.3088H146.029L145.195 21.465L136.115 37.5852H132.254V12.4859H136.255V28.5708L135.942 30.7625H136.081L136.916 28.606L145.995 12.4859Z" fill="white"/>
<path fill-rule="evenodd" clip-rule="evenodd" d="M160.435 16.1979L158.764 17.8595V22.9501L160.435 24.6116H168.331V16.1979H160.435ZM158.555 28.3236L154.763 24.5053V16.3041L158.555 12.486H172.331V37.5853H168.331V28.3236H165.095L160.086 36.7014L155.529 38.1156L154.346 34.5448L157.407 33.5908L160.33 28.7121L161.129 28.0756L161.06 27.9699L160.26 28.3236H158.555Z" fill="white"/>
</g>
<defs>
<clipPath id="clip0_459_1633">
<rect width="175" height="53" fill="white"/>
</clipPath>
</defs>
</svg>
