<svg width="162" height="56" viewBox="0 0 162 56" fill="none" xmlns="http://www.w3.org/2000/svg">
<g clip-path="url(#clip0_459_1601)">
<path fill-rule="evenodd" clip-rule="evenodd" d="M46.7175 29.4382H47.8928C48.6756 29.4382 49.2687 29.2693 49.2687 28.5077C49.2687 27.6197 48.5251 27.564 47.5132 27.564H46.7165V29.4382H46.7175ZM51.336 21.6604V23.8876H46.7175V25.3814H48.2567C50.7685 25.3814 52.2398 26.3959 52.2398 28.5218C52.2398 30.7894 50.7154 31.8049 48.2291 31.8049H43.5291V21.6604H51.335H51.336ZM59.3976 28.3529L58.3699 24.719L57.3844 28.3529H59.3976ZM60.0173 21.6604L63.5037 31.8049H60.33L59.9513 30.4668H56.7776L56.4137 31.8049H53.2921L56.7776 21.6604H60.0173ZM68.1627 26.2826H69.4852C70.2305 26.2826 70.769 25.9731 70.769 25.0993C70.769 24.1556 69.7418 24.0281 69.0673 24.0281H68.1627V26.2826ZM68.1627 31.8049H64.974V21.6604H69.6615C72.4563 21.6604 73.8075 23.0016 73.8075 25.0861C73.8075 27.2677 72.5646 28.6483 69.7697 28.6483H68.1613V31.8049H68.1627ZM78.8458 29.4382H80.2371C81.0199 29.4382 81.6134 29.2693 81.6134 28.5077C81.6134 27.6197 80.8708 27.564 79.8573 27.564H78.8458V29.4382ZM78.8458 25.7202H80.169C80.8041 25.7202 81.2629 25.4239 81.2629 24.8322C81.2629 24.0433 80.6421 24.0281 79.9655 24.0281H78.8458V25.7202ZM75.6569 21.6604H80.3024C82.4908 21.6604 84.234 22.1965 84.234 24.2122C84.234 25.254 83.5853 26.0156 82.9652 26.4252C84.0175 26.7064 84.5839 27.649 84.5839 28.7464C84.5839 31.015 82.9237 31.8049 80.3991 31.8049H75.6569V21.6604ZM95.9034 21.6604V31.8049H92.8479V28.5785L93.0119 25.9862L89.501 31.8049H86.5143V21.6604H89.5671V24.8879L89.4058 27.4801L92.9167 21.6604H95.9028H95.9034ZM101.252 21.6604L102.629 24.2537L104.02 21.6604H107.597L104.317 26.5355L107.625 31.8049H104.046L102.481 28.9598L100.914 31.8049H97.3349L100.777 26.5355L97.6732 21.6604H101.252ZM114.364 28.3529L113.337 24.719L112.351 28.3529H114.364ZM114.985 21.6604L118.47 31.8049H115.297L114.917 30.4668H111.744L111.38 31.8049H108.259L111.744 21.6604H114.985ZM3.71938 40.1187V53.0447H7.65825V55.6541H1.23607V40.1187H3.72036H3.71938ZM12.3957 40.1187V49.8769C12.3957 51.0643 12.7203 51.7844 13.0055 52.1829C13.2318 52.5186 13.535 52.7919 13.8884 52.9785C14.2417 53.1651 14.6343 53.2594 15.0315 53.253C16.0248 53.253 16.6965 52.7169 17.0574 52.1829C17.3437 51.7844 17.6702 51.0643 17.6702 49.8769V40.1187H20.1525V49.62C20.1525 51.0886 19.9627 52.5784 19.2005 53.7668C18.2809 55.2334 16.6768 56 15.0324 56C13.3901 56 11.784 55.2323 10.8664 53.7668C10.1012 52.5784 9.91046 51.0886 9.91046 49.62V40.1187H12.3957ZM26.8048 47.4545L23.0017 40.1187H25.9816L28.219 44.9382L30.5696 40.1187H33.5525L29.6343 47.4545L33.9922 55.6531H31.0093L28.219 49.9689L25.2755 55.6531H22.2955L26.8048 47.4545ZM38.8466 40.1187V49.8769C38.8466 51.0643 39.1712 51.7844 39.4564 52.1829C39.683 52.5188 39.9866 52.7921 40.3402 52.9787C40.6939 53.1654 41.0869 53.2596 41.4844 53.253C42.4777 53.253 43.1465 52.7169 43.5074 52.1829C43.7966 51.7844 44.1201 51.0643 44.1201 49.8769V40.1187H46.6054V49.62C46.6054 51.0886 46.4156 52.5784 45.6494 53.7668C44.7319 55.2334 43.1268 56 41.4844 56C39.839 56 38.2359 55.2323 37.3183 53.7668C36.5511 52.5784 36.3623 51.0886 36.3623 49.62V40.1187H38.8466ZM52.5319 47.2674H53.239C53.714 47.2674 55.683 47.1987 55.683 44.9149C55.683 42.6109 53.7337 42.5856 53.2764 42.5856H52.5319V47.2685V47.2674ZM53.7337 40.1187C55.4922 40.1187 56.3891 40.6791 56.9822 41.2829C57.9568 42.2842 58.244 43.6112 58.244 44.7773C58.244 46.2894 57.7483 47.6174 56.755 48.4336C56.4305 48.7108 55.9692 48.9677 55.3585 49.1092L59.3337 55.6531H56.2397L52.8358 49.4096H52.5309V55.6531H50.0466V40.1187H53.7347H53.7337ZM64.4351 48.5479L60.0585 40.1187H63.0021L65.7382 45.5217L68.4683 40.1187H71.4122L66.9213 48.5479V55.6531H64.436V48.5479H64.4351ZM82.1695 39.8538L85.9684 50.2875L89.7699 39.8538H92.7996L86.6953 55.736H85.2006L79.1392 39.8538H82.1682H82.1695ZM95.0642 55.3861H97.8393V39.8538H95.0642V55.3861ZM104.454 39.8538V52.7796H108.853V55.3861H101.681V39.8538H104.454ZM114.145 39.8538V52.7796H118.542V55.3861H111.369V39.8538H114.145ZM128.683 49.6584L126.675 44.0693L124.624 49.6584H128.683ZM129.494 52.1263H123.75L122.493 55.3861H119.481L125.65 39.5271H127.741L133.741 55.3861H130.752L129.494 52.1273V52.1263ZM143.176 47.0732H149.709V47.4697C149.709 49.2397 149.454 51.0562 148.407 52.7119C146.72 55.3648 144.264 55.736 142.75 55.736C138.351 55.736 135.278 52.4762 135.278 47.6325C135.278 42.8112 138.436 39.5028 142.833 39.5028C146.889 39.5028 148.492 42.2983 148.94 43.1611L146.528 44.5831C146.23 43.9995 145.161 42.2528 142.814 42.2528C139.993 42.2528 138.138 44.6964 138.138 47.6791C138.138 50.0772 139.44 52.989 142.794 52.989C144.755 52.989 146.55 52.0585 146.848 49.6827H143.176V47.0732ZM160.766 42.4622H155.643V45.9344H160.552V48.5398H155.643V52.7787H160.766V55.3861H152.868V39.8538H160.766V42.4622ZM0.803329 2.56799C1.16033 2.56799 1.87533 2.64485 2.3356 2.64485C2.78309 2.64485 3.64463 2.58215 4.00164 2.58215C4.29964 2.58215 4.46387 2.66104 4.46387 2.80061C4.46387 2.94019 4.24062 3.01706 4.07736 3.06358C3.49514 3.2335 3.37811 3.31138 3.33286 4.00622C3.30336 4.57969 3.31811 6.31123 3.31811 7.04046C3.31811 7.10115 3.36434 7.19418 3.42236 7.19418C4.22587 7.13349 4.71565 6.86953 5.25165 5.9714C5.66668 5.25936 5.96665 4.67173 6.3384 4.06792C6.9334 3.04639 7.64743 2.39807 8.45096 2.39807C8.95745 2.39807 9.22495 2.6135 9.22495 3.04537C9.20821 3.22681 9.14055 3.39934 9.03021 3.54198C8.91218 3.68155 8.77843 3.7129 8.59941 3.68155C8.43619 3.65121 8.24247 3.60468 8.09395 3.60468C7.21568 3.60468 6.83014 4.25503 6.41217 4.9347C5.99517 5.61437 5.66668 6.1575 5.44442 6.48216C5.42996 6.52229 5.42996 6.56643 5.44442 6.60656C5.78765 7.28623 7.11242 9.4689 7.76545 10.3659C8.74794 11.7121 9.13449 11.8203 9.92421 12.0044C10.0127 12.0368 10.1622 12.0975 10.1622 12.1764C10.1622 12.3159 10.0727 12.409 9.86519 12.4717C9.65568 12.5324 9.31446 12.5476 8.97222 12.5476C7.6622 12.5476 7.02291 12.3322 6.44364 11.5261C5.8919 10.814 5.26739 9.80868 4.5819 8.67895C4.09212 7.85974 3.89739 7.59675 3.42236 7.58058C3.3486 7.58058 3.33286 7.6888 3.31811 7.76664C3.31811 9.02083 3.36434 10.6441 3.37712 11.2176C3.39187 11.5261 3.46563 11.7587 4.12162 11.9296C4.39012 12.0055 4.55239 12.1137 4.55239 12.2381C4.55239 12.3787 4.29964 12.4707 4.06163 12.4707C3.73511 12.4707 2.70737 12.4384 2.24709 12.4384C1.78485 12.4384 1.04232 12.5 0.565326 12.5C0.343058 12.5 0.164062 12.3787 0.164062 12.2674C0.164062 12.1299 0.282082 12.052 0.610566 11.9741C1.32458 11.8042 1.48784 11.5877 1.53308 10.6441C1.56258 9.87035 1.56258 8.80334 1.56258 7.1477C1.56258 5.33724 1.53308 4.7496 1.51833 4.19131C1.50161 3.46612 1.36982 3.26384 0.847586 3.10808C0.461076 3.00188 0.35781 2.89164 0.35781 2.78443C0.35781 2.64485 0.594831 2.56799 0.803329 2.56799ZM15.6501 3.72808C15.1436 4.23783 14.6076 5.3514 14.6076 7.19418C14.6076 9.57607 16.0071 12.1602 18.1786 12.1602C18.9978 12.1602 19.5044 11.7253 19.6961 11.5261C20.3217 10.8747 20.8429 9.54373 20.8429 7.88907C20.8429 6.66725 20.3806 4.8113 19.2949 3.7736C18.7893 3.31138 17.9879 2.94019 17.3318 2.94019C16.6611 2.94019 15.9923 3.37307 15.6501 3.72909V3.72808ZM22.8807 7.40964C22.8807 9.43649 22.0487 10.7513 21.0062 11.6181C20.1574 12.2998 18.8917 12.7317 17.7479 12.7317C16.1851 12.7317 14.8171 12.1137 13.8788 11.076C13.0773 10.1788 12.6003 8.95811 12.6003 7.53403C12.6003 5.64673 13.4038 4.43911 14.52 3.51163C15.1888 2.9685 16.4378 2.39807 17.6888 2.39807C20.9766 2.39807 22.8807 4.9347 22.8807 7.40964ZM28.8898 7.06881C29.9018 7.06881 31.8649 7.00812 33.4276 7.00812C33.4866 7.00812 33.5456 6.85335 33.5624 6.61972C33.5919 6.41946 33.5919 4.61105 33.5309 4.00622C33.4719 3.44994 33.3971 3.29418 32.8031 3.12628C32.5937 3.06358 32.3704 2.96952 32.3704 2.81477C32.3704 2.70756 32.5199 2.6135 32.8621 2.6135C33.0559 2.6135 34.1554 2.66104 34.5429 2.66104C35.0199 2.66104 35.9562 2.59833 36.1361 2.59833C36.4174 2.59833 36.5964 2.6752 36.5964 2.7996C36.5964 2.95434 36.4627 3.04639 36.1194 3.13944C35.5844 3.26384 35.4969 3.51163 35.4654 3.95969C35.3916 4.68791 35.3464 6.07962 35.3464 8.27743C35.3464 9.79251 35.3916 10.5976 35.4064 11.1083C35.4221 11.7121 35.5716 11.7577 36.1637 11.9579C36.4322 12.051 36.5816 12.1602 36.5816 12.2836C36.5816 12.4555 36.3731 12.5 36.1067 12.5C35.8529 12.5 35.0474 12.4545 34.6039 12.4545C34.2754 12.4545 33.0854 12.5324 32.7883 12.5324C32.4304 12.5324 32.2818 12.4545 32.2818 12.3159C32.2818 12.1764 32.4756 12.051 32.6831 11.9903C33.4119 11.789 33.4424 11.6646 33.5191 10.5207C33.5624 9.90073 33.5771 8.44732 33.5456 8.02963C33.5456 7.88907 33.4866 7.82733 33.4276 7.82733C32.2376 7.82733 29.1868 7.78183 28.8898 7.81116C28.8161 7.82733 28.6961 7.95277 28.6961 8.04377C28.6675 8.61623 28.6961 10.2729 28.7108 10.7685C28.7265 11.4947 28.8161 11.7263 29.4249 11.9114C29.7376 12.0044 29.948 12.1299 29.948 12.2998C29.9608 12.4545 29.6628 12.5 29.4711 12.5C29.3648 12.5 28.1315 12.4545 27.6103 12.4545C27.268 12.4545 26.5088 12.5152 26.0032 12.5152C25.6168 12.5152 25.484 12.4384 25.484 12.3159C25.484 12.146 25.6462 12.051 25.901 11.9741C26.554 11.7891 26.6878 11.6191 26.7625 10.9688C26.8216 10.3508 26.8972 8.04482 26.8972 5.92589C26.8972 5.46165 26.9248 4.61105 26.8972 3.99206C26.8678 3.48028 26.732 3.31138 26.2413 3.15562C25.901 3.04639 25.7368 2.94019 25.7368 2.81477C25.7368 2.66104 25.9285 2.59833 26.198 2.59833C26.5983 2.59833 27.4175 2.66104 27.804 2.66104C28.4286 2.66104 29.0983 2.6135 29.4563 2.6135C29.7661 2.6135 29.948 2.6752 29.948 2.81578C29.948 2.9857 29.7533 3.07875 29.4396 3.15562C28.8161 3.29418 28.7708 3.58952 28.756 4.22468C28.7265 4.77894 28.6675 6.5742 28.7108 6.86953C28.7265 6.99191 28.7845 7.06881 28.8898 7.06881ZM39.6905 12.5C39.2892 12.5 39.1397 12.4221 39.1397 12.2846C39.1397 12.1147 39.2892 12.0368 39.5567 11.9741C40.258 11.8203 40.4183 11.4633 40.4487 11.0173C40.4782 10.5358 40.5245 9.42235 40.5245 8.66481C40.5245 6.9019 40.5245 4.48765 40.4782 3.99206C40.4487 3.4813 40.3592 3.32755 39.7504 3.14044C39.4387 3.04639 39.3482 2.9412 39.3482 2.82994C39.3482 2.70655 39.5262 2.61451 39.7652 2.61451C40.1213 2.61451 40.9985 2.66104 41.4165 2.66104C41.9368 2.66104 42.7108 2.62867 43.0511 2.62867C43.3363 2.62867 43.4847 2.70655 43.4847 2.81578C43.4847 2.90782 43.3648 3.09392 43.1111 3.13944C42.4423 3.29418 42.399 3.37307 42.3518 4.31672C42.3371 4.57969 42.3243 5.848 42.3371 7.34993C42.3518 9.00466 42.3243 11.0456 42.3833 11.3875C42.4285 11.6343 42.5603 11.7587 42.636 11.7728C42.7993 11.8042 43.1111 11.8042 43.6785 11.8042C45.1341 11.8042 46.5641 11.8042 46.7411 11.7587C46.8601 11.7284 46.9496 11.4178 46.9496 11.342C46.9654 10.7524 46.9948 9.06633 47.0096 7.54922C47.0096 6.01792 47.0096 4.37741 46.9948 4.06792C46.9811 3.45095 46.8326 3.29418 46.2661 3.12426C46.0124 3.06358 45.8491 2.98671 45.8491 2.81578C45.8491 2.69138 46.0576 2.6135 46.2661 2.6135C46.4313 2.6135 47.5603 2.66104 47.9931 2.66104C48.4377 2.66104 49.3621 2.62867 49.6277 2.62867C49.8961 2.62867 50.0604 2.70655 50.0604 2.83095C50.0604 2.92501 49.8804 3.06358 49.6139 3.14044C48.9009 3.31239 48.9294 3.45095 48.9009 3.99206C48.8399 4.62622 48.8104 5.81766 48.8104 8.01444C48.7952 9.149 48.8051 10.2837 48.8399 11.4178C48.8399 11.6201 48.9137 11.7293 48.9874 11.7425C49.1969 11.7425 49.8647 11.7587 49.9846 11.7587C50.0142 11.7587 50.1322 11.8042 50.1026 12.0217C50.0142 12.5 49.7319 13.5843 49.6277 14.6675C49.6139 14.9143 49.4329 15.2238 49.2559 15.2238C49.1064 15.2238 49.0326 15.0842 49.0484 14.7454V13.9716C49.0484 12.5941 48.5586 12.4394 48.0649 12.4394L41.3418 12.4545C40.9543 12.4545 40.076 12.5 39.6895 12.5H39.6905ZM58.1053 2.66104C58.599 2.66104 59.2078 2.59833 59.4163 2.56799C59.4753 2.5518 59.5796 2.66104 59.5933 2.76926C59.6101 3.04639 59.6101 4.11646 59.6101 4.42494C59.6101 4.64139 59.5048 4.85682 59.372 4.85682C59.2363 4.85682 59.1163 4.62622 59.0868 4.47046C58.895 3.60469 58.4791 3.37307 58.1349 3.31138C57.8535 3.26384 57.2143 3.20315 56.0666 3.21934C56.0075 3.21934 55.8895 3.28003 55.8728 3.65121C55.8287 4.78003 55.8091 5.90973 55.8138 7.03948C55.8138 7.08596 55.8728 7.19418 55.9643 7.19418H57.1543C58.2086 7.19418 58.1811 7.13146 58.4633 6.45182C58.5518 6.21919 58.6571 6.04927 58.7908 6.04927C58.9088 6.04927 58.9531 6.31123 58.9403 6.48216C58.9088 6.91606 58.8803 7.19418 58.8803 7.54817C58.8803 7.96796 58.9098 8.21576 58.9393 8.60111C58.9531 8.88125 58.8656 9.06633 58.7466 9.06633C58.6266 9.06633 58.5085 8.88125 58.4633 8.72445C58.2705 8.04482 58.0778 7.9366 57.4965 7.89005C57.0186 7.84455 56.4698 7.84455 56.0085 7.84455C55.9495 7.84455 55.8148 7.99827 55.8148 8.02963C55.7558 8.46251 55.7705 9.66805 55.7852 10.1799C55.802 10.551 55.7852 11.1245 55.8462 11.4472C55.8895 11.5888 56.0233 11.789 56.1727 11.8214C56.4108 11.8659 56.8711 11.9124 57.3785 11.9124C57.8241 11.9124 58.3748 11.9124 58.7466 11.7728C59.193 11.6029 59.5924 11.2307 59.9209 10.6289C60.1294 10.2274 60.2641 10.0878 60.383 10.0878C60.5316 10.0878 60.5169 10.4114 60.5021 10.5358C60.5021 10.6592 60.0703 12.0833 59.9366 12.3322C59.8913 12.4384 59.6543 12.5324 59.5796 12.5324C59.4163 12.5324 55.74 12.4555 54.6277 12.4555C53.6295 12.4555 53.4662 12.5324 52.9292 12.5324C52.6469 12.5324 52.4227 12.4859 52.4227 12.3322C52.4227 12.1906 52.6175 12.0833 52.8692 12.0217C53.6295 11.8366 53.8232 11.6808 53.8822 10.8443C53.9255 10.1961 54.0002 9.01978 54.0002 7.10213C54.0002 5.27554 54.015 4.56351 53.9855 4.11646C53.955 3.55816 53.837 3.24664 53.1977 3.12325C52.885 3.06358 52.7217 2.99986 52.7217 2.84612C52.7217 2.70655 52.9735 2.6135 53.1819 2.6135C53.8822 2.6135 55.1008 2.66104 55.8728 2.66104H58.1053ZM66.5859 3.04639C66.4432 3.05922 66.3056 3.10708 66.1847 3.18596C66.1375 3.2335 66.0637 3.40341 66.047 3.75943C66.0342 4.06792 66.0342 5.98758 66.0195 7.75047C66.0195 9.15838 66.048 10.1647 66.048 10.551C66.0637 11.4947 66.11 11.7728 66.9724 12.0044C67.2675 12.0672 67.3865 12.1906 67.3865 12.3322C67.3865 12.4545 67.1347 12.5476 66.9272 12.5476C66.5407 12.5476 65.6929 12.4545 65.036 12.4545C64.6072 12.4545 63.8774 12.5173 63.4162 12.5173C63.0749 12.5173 62.8664 12.4384 62.8664 12.2674C62.8664 12.1602 63.0749 12.0368 63.2204 11.9903C63.9502 11.8042 64.1312 11.5725 64.1745 10.8616C64.2289 10.0577 64.2591 9.25218 64.2649 8.44634C64.2649 7.95277 64.2649 4.48664 64.2354 4.03757C64.1902 3.49646 64.1144 3.24664 63.2971 3.13944C63.1024 3.10808 62.9539 3.00188 62.9539 2.90782C62.9539 2.78442 63.0886 2.69138 63.2657 2.66002C63.3572 2.64485 63.6237 2.64485 63.7574 2.64485C64.7104 2.64485 65.928 2.52146 66.5997 2.52146C68.0268 2.52146 68.9938 2.7996 69.6043 3.41858C70.3047 4.13062 70.4681 4.96605 70.4681 5.50716C70.4681 6.77548 69.9181 7.4592 69.4845 7.84455C69.0986 8.18335 68.2784 8.54042 67.7012 8.54042C67.537 8.54042 67.12 8.51004 66.9272 8.43115C66.7168 8.34015 66.6145 8.26126 66.6145 8.12266C66.6145 8.05994 66.7168 7.96796 66.8387 7.96796H67.06C67.6845 7.96796 68.6071 7.19418 68.6071 5.58403C68.6071 4.34504 67.8055 3.04537 66.5859 3.04537V3.04639ZM80.8517 2.62766C81.5773 2.56698 81.8026 2.50629 81.9953 2.38188C82.113 2.30502 82.1722 2.25849 82.2321 2.25849C82.307 2.25849 82.4282 2.42841 82.3662 2.64485C82.2478 3.07976 82.1008 3.86664 82.0552 4.43911C82.0552 4.57868 81.951 4.84165 81.772 4.84165C81.6685 4.84165 81.5773 4.76478 81.5181 4.36325C81.3704 3.48028 81.1778 3.34172 80.4481 3.31138C80.0921 3.31138 79.0071 3.32655 78.6334 3.38825C78.5449 3.40341 78.4844 3.51163 78.4844 3.57333C78.4844 4.28537 78.4708 5.46165 78.4708 6.79165C78.4708 8.56975 78.4844 10.2102 78.5449 10.9829C78.5871 11.4785 78.7083 11.788 79.7035 12.0044C79.9131 12.051 80.0765 12.2209 80.0765 12.315C80.0765 12.4535 79.8239 12.5162 79.6592 12.5162C79.5415 12.5162 77.8438 12.4535 77.4586 12.4535C76.9985 12.4535 75.8522 12.5466 75.5997 12.5466C75.3145 12.5466 75.1382 12.4839 75.1382 12.3595C75.1382 12.2209 75.3152 12.0823 75.4649 12.0358C76.4328 11.788 76.4914 11.5868 76.5506 10.5045C76.6098 9.59126 76.6847 6.51149 76.6847 5.33623C76.6847 4.4563 76.6704 3.93036 76.6704 3.52579C76.6704 3.38824 76.5506 3.31138 76.5063 3.31138C76.2252 3.26384 75.1511 3.24664 74.8244 3.24664C74.5889 3.24664 74.1716 3.40341 74.0083 3.60468C73.8578 3.77359 73.6938 4.05173 73.5012 4.42393C73.3208 4.73343 73.235 4.82647 73.1744 4.82647C73.0247 4.82647 72.9498 4.64038 72.9498 4.48664C72.9498 4.19131 73.2187 3.18596 73.235 2.39807C73.235 2.33435 73.3678 2.08756 73.4712 2.08756C73.5754 2.08756 73.6366 2.21096 73.7244 2.33435C73.77 2.39807 74.0525 2.5518 74.3336 2.58215C74.6631 2.6135 76.6255 2.6752 77.6356 2.6752C78.4707 2.6752 80.3596 2.66104 80.8517 2.62766ZM87.96 7.06881C88.9728 7.06881 90.9339 7.00812 92.498 7.00812C92.5573 7.00812 92.6178 6.85335 92.6315 6.61972C92.6614 6.41946 92.6614 4.61105 92.6029 4.00622C92.543 3.44994 92.4674 3.29418 91.8732 3.12628C91.6649 3.06358 91.441 2.96952 91.441 2.81477C91.441 2.70756 91.5914 2.6135 91.9324 2.6135C92.1264 2.6135 93.2257 2.66104 93.6143 2.66104C94.0915 2.66104 95.0281 2.59833 95.2044 2.59833C95.4876 2.59833 95.6666 2.6752 95.6666 2.7996C95.6666 2.95434 95.5318 3.04639 95.1908 3.13944C94.6565 3.26384 94.5652 3.51163 94.536 3.95969C94.4618 4.68791 94.4175 6.07962 94.4175 8.27743C94.4175 9.79251 94.4618 10.5976 94.4768 11.1083C94.4924 11.7121 94.6388 11.7577 95.2371 11.9579C95.5025 12.051 95.6502 12.1602 95.6502 12.2836C95.6502 12.4555 95.4454 12.5 95.1758 12.5C94.9233 12.5 94.1194 12.4545 93.6729 12.4545C93.3448 12.4545 92.155 12.5324 91.8575 12.5324C91.5015 12.5324 91.3525 12.4545 91.3525 12.3159C91.3525 12.1764 91.5471 12.051 91.7554 11.9903C92.4831 11.789 92.511 11.6646 92.5852 10.5207C92.6315 9.90073 92.6471 8.44732 92.6178 8.02963C92.6178 7.88907 92.5573 7.82733 92.498 7.82733C91.3082 7.82733 88.2588 7.78183 87.96 7.81116C87.8851 7.82733 87.7667 7.95277 87.7667 8.04377C87.7367 8.61623 87.7667 10.2729 87.7823 10.7685C87.796 11.4947 87.8851 11.7263 88.4964 11.9114C88.8081 12.0044 89.0171 12.1299 89.0171 12.2998C89.0314 12.4545 88.7339 12.5 88.5406 12.5C88.4351 12.5 87.1997 12.4545 86.6817 12.4545C86.3386 12.4545 85.579 12.5152 85.0746 12.5152C84.6873 12.5152 84.5532 12.4384 84.5532 12.3159C84.5532 12.146 84.7152 12.051 84.9685 11.9741C85.6246 11.7891 85.7573 11.6191 85.8315 10.9688C85.8908 10.3508 85.9656 8.04482 85.9656 5.92589C85.9656 5.46165 85.9963 4.61105 85.9656 3.99206C85.9364 3.48028 85.8036 3.31138 85.3142 3.15562C84.9684 3.04639 84.8058 2.94019 84.8058 2.81477C84.8058 2.66104 84.9977 2.59833 85.2666 2.59833C85.6695 2.59833 86.4857 2.66104 86.8743 2.66104C87.4978 2.66104 88.1676 2.6135 88.525 2.6135C88.8367 2.6135 89.0164 2.6752 89.0164 2.81578C89.0164 2.9857 88.8238 3.07875 88.512 3.15562C87.8851 3.29418 87.8409 3.58952 87.8266 4.22468C87.796 4.77894 87.7381 6.5742 87.7823 6.86953C87.796 6.99191 87.8559 7.06881 87.96 7.06881ZM107.611 4.30155C107.567 3.55816 107.597 3.32755 106.883 3.14044C106.512 3.04639 106.421 2.9412 106.421 2.81578C106.421 2.69138 106.583 2.6135 106.868 2.6135C107.301 2.6135 108.073 2.66104 108.565 2.66104C109.294 2.66104 109.813 2.61451 110.319 2.61451C110.571 2.61451 110.781 2.6752 110.781 2.82994C110.781 2.96952 110.571 3.09392 110.334 3.14044C109.605 3.28003 109.545 3.68155 109.516 4.08309C109.486 4.47147 109.457 5.01157 109.457 7.67361C109.457 9.54471 109.472 10.2112 109.503 10.6754C109.56 11.5877 109.65 11.7728 110.484 12.0055C110.75 12.0681 110.899 12.1774 110.899 12.3322C110.899 12.4859 110.602 12.5324 110.422 12.5324C109.845 12.5324 108.816 12.4384 108.206 12.4535C107.759 12.4535 107.33 12.5 106.777 12.5C106.406 12.5 106.303 12.3928 106.303 12.2381C106.303 12.1299 106.436 12.0368 106.764 11.9437C107.447 11.7739 107.537 11.4481 107.582 10.7827C107.611 10.1961 107.642 8.60307 107.642 7.28623C107.642 6.49733 107.655 4.88918 107.611 4.30155ZM102.048 7.27104C101.765 7.27104 101.573 7.3024 101.483 7.36414C101.423 7.40964 101.364 7.50267 101.364 7.73528C101.364 8.07513 101.407 10.6441 101.423 10.9839C101.423 11.5574 102.093 11.9903 102.524 11.9903C102.927 11.9903 103.297 11.8042 103.609 11.5119C103.863 11.2631 104.235 10.4439 104.235 9.68429C104.235 8.1844 103.387 7.27104 102.048 7.27104ZM106.171 9.48402C106.171 10.6128 105.573 11.3561 104.889 11.8214C104.25 12.2846 103.029 12.5162 102.332 12.5162C101.913 12.5162 100.634 12.4859 99.9637 12.4717C99.3402 12.4535 98.7725 12.5 98.5356 12.5C98.313 12.5 98.1061 12.3928 98.1061 12.2543C98.1061 12.1299 98.2994 12.0055 98.46 11.9903C99.4007 11.8042 99.4886 11.5888 99.5485 11.0638C99.5941 10.5986 99.6233 9.00466 99.6233 7.56441C99.6233 6.40631 99.6519 4.05274 99.6077 3.83731C99.5484 3.49646 99.4436 3.28002 98.8194 3.12426C98.5805 3.06358 98.4478 2.98671 98.4478 2.81578C98.4478 2.69138 98.6554 2.6135 98.8644 2.6135C99.3551 2.62867 99.9963 2.66104 100.484 2.66104C101.168 2.69138 101.691 2.62867 102.123 2.62867C102.374 2.62867 102.539 2.70756 102.539 2.83095C102.539 2.98671 102.347 3.09392 102.064 3.1718C101.496 3.32755 101.454 3.46612 101.407 4.00622C101.379 4.41078 101.364 5.52334 101.364 6.57521C101.364 6.65107 101.423 6.79267 101.496 6.77547C101.75 6.74513 102.285 6.68445 102.822 6.68445C104.843 6.68445 106.171 7.59773 106.171 9.48402ZM117.014 0.728224C117.014 0.432887 117.223 0.0455147 117.682 0.0455147C117.98 0.0455147 118.189 0.308483 118.189 0.648319C118.189 0.787892 118.127 0.927472 118.127 1.06704C118.127 1.3462 118.456 1.53129 119.007 1.53129C119.781 1.53129 119.96 1.26832 119.96 1.0984C119.96 0.926457 119.871 0.803068 119.871 0.618988C119.871 0.247798 120.136 1.01098e-06 120.435 1.01098e-06C120.587 -0.000287242 120.734 0.0610753 120.842 0.170835C120.951 0.280594 121.013 0.429943 121.016 0.586623C121.016 1.66985 119.707 2.02688 118.933 2.02688C117.682 2.02688 117.014 1.31484 117.014 0.728224ZM113.917 2.59934C114.32 2.59934 115.109 2.66002 115.511 2.66002C116.119 2.66002 116.865 2.61451 117.223 2.61451C117.532 2.61451 117.682 2.69138 117.682 2.82994C117.682 2.96952 117.49 3.07976 117.178 3.1718C116.595 3.35588 116.538 3.60469 116.494 4.23884C116.418 5.75495 116.389 9.34444 116.432 9.60841C116.449 9.69941 116.522 9.74596 116.568 9.69941C116.568 9.69941 120.333 5.46165 121.15 4.40978C121.208 4.31673 121.27 4.19131 121.27 4.11646V3.82112C121.253 3.52579 121.134 3.31138 120.613 3.15562C120.393 3.07976 120.241 2.9857 120.241 2.81578C120.241 2.70756 120.393 2.62867 120.627 2.62867C120.822 2.62867 121.834 2.66104 122.252 2.66104C122.742 2.66104 123.692 2.61451 123.873 2.61451C124.14 2.61451 124.304 2.69138 124.304 2.7996C124.304 2.95434 124.186 3.04639 123.857 3.14044C123.277 3.26384 123.201 3.4813 123.158 3.92935C123.083 4.53316 123.053 6.3264 123.053 8.1844C123.053 9.69941 123.099 10.4742 123.114 10.9839C123.128 11.697 123.277 11.7728 123.873 11.9428C124.14 12.052 124.29 12.1602 124.29 12.2846C124.29 12.4545 124.093 12.5 123.812 12.5C123.561 12.5 122.683 12.4545 122.252 12.4545C121.907 12.4545 120.808 12.5324 120.508 12.5324C120.152 12.5324 119.99 12.4384 119.99 12.2998C119.99 12.1774 120.18 12.052 120.393 11.9903C121.134 11.8042 121.163 11.6656 121.224 10.5358C121.27 9.59224 121.313 5.66292 121.283 5.39995C121.283 5.30487 121.194 5.22801 121.15 5.29173C119.29 7.3955 117.831 9.11288 116.522 10.6128C116.462 10.7111 116.426 10.8233 116.418 10.9395V11.3106C116.432 11.5119 116.479 11.7273 116.953 11.8821C117.253 11.9903 117.475 12.1147 117.475 12.2674C117.475 12.4394 117.191 12.5 116.999 12.5C116.894 12.5 115.883 12.4545 115.362 12.4545C115.019 12.4545 114.262 12.5152 113.771 12.5152C113.369 12.5152 113.235 12.4221 113.235 12.3008C113.235 12.146 113.398 12.052 113.666 11.9589C114.32 11.7891 114.469 11.6353 114.527 10.9243C114.589 10.3346 114.647 8.21674 114.647 6.20504C114.647 5.29173 114.663 4.56351 114.633 3.97587C114.603 3.44994 114.455 3.31138 113.992 3.15562C113.666 3.04639 113.487 2.95333 113.487 2.82994C113.487 2.66104 113.666 2.59833 113.917 2.59833V2.59934ZM136.173 6.99293C136.129 7.02324 136.16 7.10115 136.218 7.11634C137.245 7.44303 138.197 8.22885 138.197 9.56088C138.197 11.7425 136.099 12.764 134.194 12.764C133.122 12.764 132.364 12.4707 131.933 12.2836C131.727 12.2067 131.457 11.9114 131.413 11.7425C131.338 11.5109 131.219 10.6128 131.189 10.3336C131.16 10.0706 131.28 9.82387 131.427 9.82387C131.504 9.82387 131.65 9.9169 131.814 10.2425C132.469 11.6656 133.257 12.2219 134.225 12.2219C134.835 12.2219 135.384 11.9114 135.727 11.3561C136.011 10.8909 136.173 10.2891 136.173 9.68527C136.173 8.36948 135.401 7.59773 134.658 7.59773C134.464 7.59773 134.06 7.7798 133.644 7.7798C133.288 7.7798 132.974 7.54817 132.974 7.31759C132.974 7.05663 133.257 6.80784 133.69 6.80784C134.018 6.80784 134.494 6.9019 134.762 6.9019C135.088 6.9019 135.743 6.49733 135.743 5.19767C135.743 4.25503 135.326 2.94019 134.121 2.94019C133.6 2.94019 133.168 3.18596 132.841 3.58952C132.588 3.93036 132.306 4.40978 132.155 4.88817C132.068 5.10462 131.964 5.27554 131.829 5.27554C131.739 5.27554 131.592 5.1208 131.607 4.79512L131.68 3.49646C131.68 3.32655 131.844 2.94019 131.948 2.94019C132.395 2.87647 132.485 2.84511 132.828 2.72172C133.63 2.45875 134.136 2.3657 134.583 2.3657C136.546 2.3657 137.632 3.40341 137.632 4.82647C137.632 5.94005 136.829 6.66725 136.173 6.99293ZM145.918 7.9821C145.583 6.9363 145.222 5.89959 144.834 4.873C144.8 4.76478 144.713 4.79512 144.669 4.91952C144.401 5.6619 143.687 7.61089 143.596 7.9821C143.581 8.05994 143.641 8.13883 143.7 8.13883C144.279 8.12266 145.381 8.10649 145.858 8.10649C145.872 8.10649 145.933 8.04377 145.918 7.9821ZM145.889 2.73689C146.021 3.10808 146.29 3.89698 146.484 4.47046C147.302 6.86953 148.313 9.66805 148.61 10.4428C149.101 11.6959 149.428 11.8507 149.936 12.0055C150.188 12.0823 150.32 12.1764 150.32 12.2836C150.32 12.3918 150.173 12.5152 149.832 12.5152C149.459 12.5152 148.343 12.4545 147.883 12.4545C147.392 12.4545 146.81 12.4848 146.424 12.4848C146.127 12.4848 145.946 12.3918 145.946 12.2522C145.946 12.1764 146.053 12.0499 146.333 11.9893C146.944 11.8355 146.961 11.5868 146.928 11.341C146.899 10.9384 146.588 10.0696 146.245 9.08152C146.23 9.01978 146.066 8.84884 145.889 8.84884C144.31 8.83267 143.596 8.8802 143.39 8.89644C143.344 8.89644 143.254 9.00361 143.227 9.04911C142.749 10.2881 142.586 10.9839 142.586 11.2944C142.586 11.6019 142.734 11.8194 143.284 11.9731C143.581 12.051 143.717 12.1451 143.717 12.2836C143.717 12.408 143.506 12.4848 143.269 12.4848C143.002 12.4848 142.632 12.4545 142.078 12.4545C141.5 12.4545 140.828 12.5152 140.607 12.5152C140.265 12.5152 140.176 12.4212 140.176 12.3311C140.176 12.2209 140.236 12.1137 140.548 12.0206C141.304 11.8032 141.468 11.5564 141.898 10.6431C142.259 9.89968 143.864 5.493 144.49 3.95969C144.505 3.92935 144.564 3.74325 144.564 3.68155C144.564 3.63604 144.549 3.5885 144.593 3.55816C144.8 3.34172 145.265 2.76926 145.365 2.59731C145.457 2.45976 145.559 2.39807 145.635 2.39807C145.71 2.39807 145.767 2.42841 145.889 2.73689ZM157.463 2.78443C157.61 3.20315 157.864 3.94351 158.057 4.53417C158.876 6.9019 159.887 9.68527 160.185 10.4428C160.66 11.697 160.839 11.8517 161.434 12.0206C161.687 12.0833 161.835 12.2067 161.835 12.3159C161.835 12.409 161.687 12.5486 161.36 12.5486C160.957 12.5486 159.917 12.4555 159.442 12.4555C158.966 12.4555 158.367 12.5 157.997 12.5C157.683 12.5 157.521 12.3928 157.521 12.2674C157.521 12.1906 157.627 12.052 157.894 11.9903C158.518 11.8366 158.531 11.6029 158.518 11.3561C158.489 10.8615 156.658 5.66191 156.391 4.88817C156.378 4.82749 156.287 4.77894 156.226 4.9347C155.93 5.69326 154.159 10.4742 154.159 11.2944C154.159 11.6029 154.294 11.8203 154.858 11.9903C155.141 12.0672 155.276 12.146 155.276 12.3008C155.276 12.409 155.081 12.5 154.829 12.5C154.576 12.5 154.204 12.4555 153.655 12.4555C153.074 12.4555 152.403 12.5324 152.18 12.5324C151.84 12.5324 151.75 12.4212 151.75 12.3463C151.75 12.2219 151.809 12.1137 152.122 12.0368C152.865 11.8042 153.045 11.5574 153.46 10.6441C153.831 9.90073 155.425 5.493 156.048 3.95969C156.109 3.82113 156.109 3.66638 156.109 3.58952C156.109 3.54198 156.093 3.49646 156.14 3.46612C156.332 3.24664 156.823 2.7379 156.924 2.56799C157.015 2.42841 157.12 2.39807 157.194 2.39807C157.282 2.39807 157.329 2.44358 157.463 2.78443Z" fill="white"/>
</g>
<defs>
<clipPath id="clip0_459_1601">
<rect width="162" height="56" fill="white"/>
</clipPath>
</defs>
</svg>
