<svg width="212" height="54" viewBox="0 0 212 54" fill="none" xmlns="http://www.w3.org/2000/svg">
<path d="M0.09375 0.0102844V48.3286H43.193L50.2061 53.9982V0.0102844H0.09375ZM35.5385 39.7179L25.1516 32.4785L14.763 39.7179L18.4609 27.3431L8.42567 19.8235H21.2193L25.1516 7.63886L29.084 19.8235H41.8776L31.8423 27.3431L35.5385 39.7179Z" fill="white"/>
<path d="M40.1112 22.4828H27.2142L25.1455 16.4795L23.0767 22.4828H10.1797V25.1317H22.1751L19.8201 32.4819L25.1455 28.7299L30.4725 32.4819L28.1176 25.1317H40.1112V22.4828Z" fill="white"/>
<path d="M102.299 27.7772V32.8208H108.498V48.1109H114.83V32.8208H121.03V27.7772H102.299Z" fill="white"/>
<path d="M160.426 27.8047L152.099 38.5559V27.7996H145.773V37.2124V38.9865V48.1885H151.823V48.1868L160.212 37.3508V48.1902H166.473V38.779V37.0033V27.8047H160.426Z" fill="white"/>
<path d="M187.183 27.585H174.042L170.076 31.3733V44.5141L174.042 48.3007H187.183L191.148 44.5141V31.3733L187.183 27.585ZM184.927 37.9593V42.4341L184.093 43.4923H177.131L176.297 42.4341V33.4845L177.131 32.4245H184.093L184.927 33.4845V37.9593Z" fill="white"/>
<path d="M139.648 27.8601L123.32 27.8878V48.2059H129.63V43.0481H139.629L143.264 39.3998V31.5205L139.648 27.8601ZM137.465 37.2109L136.14 38.2483H129.63V32.6548H136.14L137.465 33.6923V37.2109Z" fill="white"/>
<path d="M95.8286 27.8916H87.9333L79.5703 48.1751H86.0076L87.7179 44.1983H96.0633L97.7719 48.1751H104.211L95.8286 27.8916ZM93.9686 39.1806L93.7582 39.3915H90.0037L89.7933 39.1806V38.7638L91.6677 33.7496H92.0967L93.9686 38.7638V39.1806Z" fill="white"/>
<path d="M193.182 27.7771V32.8208H199.381V48.1108H205.713V32.8208H211.913V27.7771H193.182Z" fill="white"/>
<path fill-rule="evenodd" clip-rule="evenodd" d="M57.0703 27.7842V48.1023H63.2404V32.7863H71.1603V48.1023H77.3287V27.7842H57.0703Z" fill="white"/>
<path fill-rule="evenodd" clip-rule="evenodd" d="M57.0703 0.0136719V20.3317H63.2404V5.01582H71.1603V20.3317H77.3287V0.0136719H57.0703Z" fill="white"/>
<path d="M95.8286 0.032959H87.9333L79.5703 20.3147H86.0076L87.7179 16.338H96.0633L97.7719 20.3147H104.211L95.8286 0.032959ZM93.9686 11.3202L93.7582 11.5311H90.0037L89.7933 11.3202V10.9035L91.6677 5.88926H92.0967L93.9686 10.9035V11.3202Z" fill="white"/>
<path d="M122.619 0L106.291 0.0294015V20.3475H112.601V15.188H122.6L126.236 11.5414V3.66041L122.619 0ZM120.437 9.34723L119.111 10.3847H112.601V4.79122H119.111L120.437 5.82865V9.34723Z" fill="white"/>
<path fill-rule="evenodd" clip-rule="evenodd" d="M128.959 0.027832V20.32H135.206V12.5808H137.02L142.794 20.32H149.764L142.368 10.0183L149.126 0.027832H142.185L136.811 7.77398L134.998 7.77744V0.027832H128.959Z" fill="white"/>
</svg>
