<svg width="80" height="70" viewBox="0 0 80 70" fill="none" xmlns="http://www.w3.org/2000/svg">
<path d="M28.6091 16.0702C28.3606 15.0018 28.7512 14.6099 28.7157 14.2538C28.6802 13.221 28.0767 13.043 28.6091 12.7937C30.0647 12.1882 33.6147 11.8677 34.9637 12.6868C35.2121 13.6128 35.0702 14.7168 35.3187 15.5361C35.8511 17.4948 34.3956 18.0647 34.6086 20.0591C34.7507 21.3412 33.7921 23.8699 33.5437 25.3657C33.4372 25.9712 33.0822 27.3957 33.5082 27.645C34.1117 27.7519 36.1707 25.7218 37.3067 24.4397C38.9042 22.5165 41.6731 20.5576 43.2707 18.6701C43.9452 17.3523 45.1521 17.6729 45.2942 16.3551C45.3652 15.5716 47.5307 13.2923 47.5662 12.9006C48.3117 12.8293 49.1282 14.4675 49.3412 15.5716C49.6962 15.8922 49.2702 15.8565 49.4122 16.462C49.3412 17.6017 48.5956 17.5304 48.4182 18.6701C47.7792 20.2372 46.2882 20.7002 45.2942 22.196C43.3417 24.7602 41.0696 25.5081 39.4722 26.719C38.9042 27.0396 38.5137 27.4313 37.9457 27.7519C37.2711 28.2861 36.8097 28.3217 36.8097 29.4258C37.5197 30.5298 38.2651 30.886 39.1171 31.7051C39.8627 32.1681 40.6437 32.8448 41.3892 33.3434C42.5606 34.1981 43.8032 35.4446 44.9747 36.4774C45.9331 37.2967 46.8917 38.1158 47.8856 38.935C48.9862 39.576 49.5187 40.5376 50.8322 41.143C53.0332 43.2087 53.9206 43.5648 54.4887 44.5265C54.7017 45.9511 56.0507 47.1263 55.1277 47.6961C55.1987 48.8715 54.3112 49.6906 52.3942 49.4056C51.8971 49.5481 50.9032 51.4357 50.4062 51.5426C49.2702 51.1508 48.6667 49.3345 48.4536 48.3728C47.8856 46.8059 46.7142 46.236 45.6492 45.4168C44.6552 44.7402 44.1582 44.1704 43.1641 43.458C42.3477 42.817 42.1347 42.7457 41.3182 42.1047C40.8212 41.7129 40.4307 41.3923 39.9336 41.0362C39.5432 40.7869 38.8687 40.2526 38.4782 40.0033C37.6971 39.4335 35.9932 37.1186 35.6737 36.2639C34.7507 35.694 34.0052 34.9105 34.0052 34.9105C33.8276 35.7296 33.6147 36.4063 33.5792 36.9405C33.4017 37.5815 33.5082 38.4007 33.3662 39.0418C33.2596 40.3595 33.0822 41.0718 33.5437 42.3896C33.5437 43.3156 32.9402 44.7758 32.9402 45.7018C33.0112 46.7346 32.8691 47.3756 32.9402 48.4085C33.2952 48.8002 34.2182 49.6549 34.5731 50.0468C34.2182 50.5453 33.8276 51.044 33.4727 51.5782C31.5912 52.3617 31.2006 51.1152 30.2422 50.5097C30.2422 49.7618 30.1357 49.2988 30.1357 48.5509C30.1357 47.3757 30.1357 46.1647 30.1357 44.9894C30.2422 43.9922 30.3486 42.995 30.4551 41.9978C30.5617 40.8225 30.6682 39.6472 30.7747 38.4719C30.8811 37.5815 30.9521 35.694 31.0232 34.8036C30.8102 33.3078 30.7392 32.4174 30.5262 30.9216C30.4196 29.6395 29.9226 26.3985 30.1357 28.8916C30.1357 27.0752 29.6032 25.0095 29.6032 23.1931C29.6387 22.0178 29.1062 20.807 29.1771 19.6316C29.1771 19.4892 28.6091 16.2483 28.6091 16.0702Z" fill="white"/>
<path d="M28.6091 16.0702C28.3606 15.0018 28.7512 14.6099 28.7157 14.2538C28.6802 13.221 28.0767 13.043 28.6091 12.7937C30.0647 12.1882 33.6147 11.8677 34.9637 12.6868C35.2121 13.6128 35.0702 14.7168 35.3187 15.5361C35.8511 17.4948 34.3956 18.0647 34.6086 20.0591C34.7507 21.3412 33.7921 23.8699 33.5437 25.3657C33.4372 25.9712 33.0822 27.3957 33.5082 27.645C34.1117 27.7519 36.1707 25.7218 37.3067 24.4397C38.9042 22.5165 41.6731 20.5576 43.2707 18.6701C43.9452 17.3523 45.1521 17.6729 45.2942 16.3551C45.3652 15.5716 47.5307 13.2923 47.5662 12.9006C48.3117 12.8293 49.1282 14.4675 49.3412 15.5716C49.6962 15.8922 49.2702 15.8565 49.4122 16.462C49.3412 17.6017 48.5956 17.5304 48.4182 18.6701C47.7792 20.2372 46.2882 20.7002 45.2942 22.196C43.3417 24.7602 41.0696 25.5081 39.4722 26.719C38.9042 27.0396 38.5137 27.4313 37.9457 27.7519C37.2711 28.2861 36.8097 28.3217 36.8097 29.4258C37.5197 30.5298 38.2651 30.886 39.1171 31.7051C39.8627 32.1681 40.6437 32.8448 41.3892 33.3434C42.5606 34.1981 43.8032 35.4446 44.9747 36.4774C45.9331 37.2967 46.8917 38.1158 47.8856 38.935C48.9862 39.576 49.5187 40.5376 50.8322 41.143C53.0332 43.2087 53.9206 43.5648 54.4887 44.5265C54.7017 45.9511 56.0507 47.1263 55.1277 47.6961C55.1987 48.8715 54.3112 49.6906 52.3942 49.4056C51.8971 49.5481 50.9032 51.4357 50.4062 51.5426C49.2702 51.1508 48.6667 49.3345 48.4536 48.3728C47.8856 46.8059 46.7142 46.236 45.6492 45.4168C44.6552 44.7402 44.1582 44.1704 43.1641 43.458C42.3477 42.817 42.1347 42.7457 41.3182 42.1047C40.8212 41.7129 40.4307 41.3923 39.9336 41.0362C39.5432 40.7869 38.8687 40.2526 38.4782 40.0033C37.6971 39.4335 35.9932 37.1186 35.6737 36.2639C34.7507 35.694 34.0052 34.9105 34.0052 34.9105C33.8276 35.7296 33.6147 36.4063 33.5792 36.9405C33.4017 37.5815 33.5082 38.4007 33.3662 39.0418C33.2596 40.3595 33.0822 41.0718 33.5437 42.3896C33.5437 43.3156 32.9402 44.7758 32.9402 45.7018C33.0112 46.7346 32.8691 47.3756 32.9402 48.4085C33.2952 48.8002 34.2182 49.6549 34.5731 50.0468C34.2182 50.5453 33.8276 51.044 33.4727 51.5782C31.5912 52.3617 31.2006 51.1152 30.2422 50.5097C30.2422 49.7618 30.1357 49.2988 30.1357 48.5509C30.1357 47.3757 30.1357 46.1647 30.1357 44.9894C30.2422 43.9922 30.3486 42.995 30.4551 41.9978C30.5617 40.8225 30.6682 39.6472 30.7747 38.4719C30.8811 37.5815 30.9521 35.694 31.0232 34.8036C30.8102 33.3078 30.7392 32.4174 30.5262 30.9216C30.4196 29.6395 29.9226 26.3985 30.1357 28.8916C30.1357 27.0752 29.6032 25.0095 29.6032 23.1931C29.6387 22.0178 29.1062 20.807 29.1771 19.6316C29.1771 19.4892 28.6091 16.2483 28.6091 16.0702Z" fill="white"/>
<path d="M7.09509 16.6045L6.81109 14.5388L8.47959 14.6102L8.40861 16.6758L12.7751 16.8182L17.6741 16.8538C17.6741 16.8538 19.6621 16.8182 20.9756 16.747C23.0701 16.6045 26.6912 16.1771 28.7146 16.7826C28.6437 16.3908 28.6082 16.106 28.6082 16.0702C28.3597 15.0019 28.7501 14.6102 28.7146 14.2539C28.6792 13.2211 28.0757 13.043 28.6082 12.7937C30.0637 12.1882 33.6136 11.8678 34.9626 12.6869C35.2112 13.6129 35.0692 14.7169 35.3176 15.5361C35.8502 17.4949 34.3947 18.0647 34.6077 20.0591C34.7496 21.3412 33.7912 23.8699 33.5426 25.3657C33.4361 25.9712 33.0812 27.3958 33.5072 27.6451C34.1106 27.7519 36.1696 25.7219 37.3056 24.4398C38.9032 22.5166 41.6722 20.5577 43.2697 18.6702C43.9442 17.3524 45.1512 17.6729 45.2932 16.3552C45.3642 15.5717 47.5296 13.2923 47.5651 12.9006C48.3106 12.8293 49.1272 14.4676 49.3402 15.5717C49.6952 15.8922 49.2692 15.8566 49.4112 16.4621C49.3402 17.6018 48.5947 17.5305 48.4172 18.6702C47.7782 20.2373 46.2872 20.7002 45.2932 22.196C43.3407 24.7603 41.0687 25.5082 39.4711 26.7191C38.9032 27.0397 38.5127 27.4315 37.9447 27.7519C37.2701 28.2862 36.8086 28.3218 36.8086 29.4259C37.5186 30.53 38.2641 30.8861 39.1162 31.7052C39.8617 32.1682 40.6426 32.8449 41.3882 33.3435C42.5597 34.1983 43.8022 35.4448 44.9737 36.4776C45.9322 37.2967 46.8906 38.1159 47.8847 38.935C48.9852 39.5761 49.5176 40.5376 50.8312 41.1431C53.0322 43.2087 53.9197 43.5649 54.4877 44.5266C54.7007 45.9511 56.0497 47.1265 55.1267 47.6963C55.1977 48.8716 54.3102 49.6907 52.3932 49.4057C51.8962 49.5482 50.9021 51.4358 50.4052 51.5427C49.2692 51.1509 48.6657 49.3345 48.4527 48.3729C47.8847 46.8059 46.7132 46.2361 45.6482 45.4169C44.6541 44.7403 44.1571 44.1704 43.1632 43.4581C42.3467 42.817 42.1336 42.7458 41.3172 42.1048C40.8202 41.7129 40.4297 41.3924 39.9327 41.0362C39.5421 40.7869 38.8677 40.2528 38.4772 40.0035C37.6962 39.4336 35.9922 37.1187 35.6727 36.2639C34.7496 35.6941 34.0042 34.9105 34.0042 34.9105C33.8266 35.7297 33.6136 36.4063 33.5781 36.9406C33.4006 37.5816 33.5072 38.4007 33.3651 39.0418C33.2586 40.3596 33.0812 41.0719 33.5426 42.3897C33.5426 43.3156 32.9391 44.7758 32.9391 45.7018C33.0102 46.7346 32.8681 47.3758 32.9391 48.4086C33.2941 48.8003 34.2171 49.6551 34.5722 50.0469C34.2171 50.5454 33.8266 51.0441 33.4717 51.5782C31.5901 52.3617 31.1997 51.1152 30.2411 50.5098C30.2411 49.762 30.1346 49.2989 30.1346 48.551C30.1346 47.3758 30.1346 46.1648 30.1346 44.9895C30.2411 43.9923 30.3477 42.9951 30.4541 41.9979C30.5607 40.8226 30.6672 39.6473 30.7736 38.472C30.8801 37.5816 30.9511 35.6941 31.0222 34.8037C30.8091 33.3079 30.7381 32.4175 30.5252 30.9217C30.4186 29.6395 29.9216 26.3985 30.1346 28.8916C30.1346 27.0753 29.6021 25.0096 29.6021 23.1932C29.6021 23.1576 29.6021 23.122 29.6021 23.0864L26.2296 23.8699L18.9521 22.9439L13.7336 22.196L9.54461 21.4838L8.23108 21.0564V24.7959L8.05362 26.1849L8.23108 28.0725L9.50904 27.3246C11.2131 25.9356 12.5266 25.4014 15.2246 25.0096C16.325 24.8315 18.8811 24.8671 19.9461 25.1521C21.4371 25.5082 21.8986 25.6863 22.8216 26.3629L25.0226 28.0012C25.5906 28.9273 26.7976 31.5628 26.9396 32.6668C27.1172 33.7708 27.1882 35.1954 27.1172 36.2995C27.0106 37.4392 26.6557 39.22 26.6557 39.22L26.2651 40.8938L25.6261 42.9595C25.2357 44.2772 23.7802 45.3101 23.7802 45.3101L22.5376 47.5538C21.7567 48.1593 20.9756 48.7291 20.1946 49.3345C17.0706 50.2249 17.1416 52.1837 14.4082 52.2906L12.0651 51.6851L10.929 50.6167L10.8226 47.2689L12.1716 45.7731C12.8106 45.2388 14.337 45.3457 14.5856 44.0991L16.4317 42.9595L17.8162 41.9266L19.4846 41.0007L21.5436 39.683C21.5436 39.683 22.0051 39.5049 23.3186 37.3324C24.6321 35.1598 24.2416 33.0229 24.2416 33.0229C23.7802 31.5271 23.3896 31.0641 22.8216 29.9601C22.3957 29.6395 22.1116 29.2122 21.3661 28.7491C20.7271 28.4999 20.1236 28.1437 19.4846 27.8945C18.7036 27.7876 17.9936 27.7519 17.2481 27.6451C16.5026 27.7519 15.6151 27.7163 14.8696 27.8232C14.337 28.1081 13.4141 28.4286 12.8816 28.6779C12.2781 28.9984 11.3196 29.8888 10.5032 30.53C9.93508 31.0641 8.7281 31.8121 8.1601 32.3463L8.33762 36.0858L8.51508 40.0035L8.33762 42.9951L7.5921 47.1265L6.8821 50.9372L6.0656 52.611L5.24909 54.1069C4.32608 54.1069 4.68109 47.4826 4.89409 47.1265L5.63959 45.8086L6.56259 44.5621L6.95309 42.3184L7.05959 38.935V35.9434V33.3079C5.63959 33.4859 2.12508 38.2583 2.12508 38.2583L1.77008 36.7269L1.69908 35.7297L2.33809 34.1626L3.72258 32.3463L5.03609 30.9929L6.70459 29.3903L6.98859 27.0397V25.259V22.6235V20.4509L3.01258 19.4537L1.66358 19.8811L1.02458 17.8154L0.705078 15.8566L3.08359 16.284L4.57458 16.4621L7.09509 16.6045Z" fill="white"/>
<path d="M7.09509 16.6045L6.81109 14.5388L8.47959 14.6102L8.40861 16.6758L12.7751 16.8182L17.6741 16.8538C17.6741 16.8538 19.6621 16.8182 20.9756 16.747C23.0701 16.6045 26.6912 16.1771 28.7146 16.7826C28.6437 16.3908 28.6082 16.106 28.6082 16.0702C28.3597 15.0019 28.7501 14.6102 28.7146 14.2539C28.6792 13.2211 28.0757 13.043 28.6082 12.7937C30.0637 12.1882 33.6136 11.8678 34.9626 12.6869C35.2112 13.6129 35.0692 14.7169 35.3176 15.5361C35.8502 17.4949 34.3947 18.0647 34.6077 20.0591C34.7496 21.3412 33.7912 23.8699 33.5426 25.3657C33.4361 25.9712 33.0812 27.3958 33.5072 27.6451C34.1106 27.7519 36.1696 25.7219 37.3056 24.4398C38.9032 22.5166 41.6722 20.5577 43.2697 18.6702C43.9442 17.3524 45.1512 17.6729 45.2932 16.3552C45.3642 15.5717 47.5296 13.2923 47.5651 12.9006C48.3106 12.8293 49.1272 14.4676 49.3402 15.5717C49.6952 15.8922 49.2692 15.8566 49.4112 16.4621C49.3402 17.6018 48.5947 17.5305 48.4172 18.6702C47.7782 20.2373 46.2872 20.7002 45.2932 22.196C43.3407 24.7603 41.0687 25.5082 39.4711 26.7191C38.9032 27.0397 38.5127 27.4315 37.9447 27.7519C37.2701 28.2862 36.8086 28.3218 36.8086 29.4259C37.5186 30.53 38.2641 30.8861 39.1162 31.7052C39.8617 32.1682 40.6426 32.8449 41.3882 33.3435C42.5597 34.1983 43.8022 35.4448 44.9737 36.4776C45.9322 37.2967 46.8906 38.1159 47.8847 38.935C48.9852 39.5761 49.5176 40.5376 50.8312 41.1431C53.0322 43.2087 53.9197 43.5649 54.4877 44.5266C54.7007 45.9511 56.0497 47.1265 55.1267 47.6963C55.1977 48.8716 54.3102 49.6907 52.3932 49.4057C51.8962 49.5482 50.9021 51.4358 50.4052 51.5427C49.2692 51.1509 48.6657 49.3345 48.4527 48.3729C47.8847 46.8059 46.7132 46.2361 45.6482 45.4169C44.6541 44.7403 44.1571 44.1704 43.1632 43.4581C42.3467 42.817 42.1336 42.7458 41.3172 42.1048C40.8202 41.7129 40.4297 41.3924 39.9327 41.0362C39.5421 40.7869 38.8677 40.2528 38.4772 40.0035C37.6962 39.4336 35.9922 37.1187 35.6727 36.2639C34.7496 35.6941 34.0042 34.9105 34.0042 34.9105C33.8266 35.7297 33.6136 36.4063 33.5781 36.9406C33.4006 37.5816 33.5072 38.4007 33.3651 39.0418C33.2586 40.3596 33.0812 41.0719 33.5426 42.3897C33.5426 43.3156 32.9391 44.7758 32.9391 45.7018C33.0102 46.7346 32.8681 47.3758 32.9391 48.4086C33.2941 48.8003 34.2171 49.6551 34.5722 50.0469C34.2171 50.5454 33.8266 51.0441 33.4717 51.5782C31.5901 52.3617 31.1997 51.1152 30.2411 50.5098C30.2411 49.762 30.1346 49.2989 30.1346 48.551C30.1346 47.3758 30.1346 46.1648 30.1346 44.9895C30.2411 43.9923 30.3477 42.9951 30.4541 41.9979C30.5607 40.8226 30.6672 39.6473 30.7736 38.472C30.8801 37.5816 30.9511 35.6941 31.0222 34.8037C30.8091 33.3079 30.7381 32.4175 30.5252 30.9217C30.4186 29.6395 29.9216 26.3985 30.1346 28.8916C30.1346 27.0753 29.6021 25.0096 29.6021 23.1932C29.6021 23.1576 29.6021 23.122 29.6021 23.0864L26.2296 23.8699L18.9521 22.9439L13.7336 22.196L9.54461 21.4838L8.23108 21.0564V24.7959L8.05362 26.1849L8.23108 28.0725L9.50904 27.3246C11.2131 25.9356 12.5266 25.4014 15.2246 25.0096C16.325 24.8315 18.8811 24.8671 19.9461 25.1521C21.4371 25.5082 21.8986 25.6863 22.8216 26.3629L25.0226 28.0012C25.5906 28.9273 26.7976 31.5628 26.9396 32.6668C27.1172 33.7708 27.1882 35.1954 27.1172 36.2995C27.0106 37.4392 26.6557 39.22 26.6557 39.22L26.2651 40.8938L25.6261 42.9595C25.2357 44.2772 23.7802 45.3101 23.7802 45.3101L22.5376 47.5538C21.7567 48.1593 20.9756 48.7291 20.1946 49.3345C17.0706 50.2249 17.1416 52.1837 14.4082 52.2906L12.0651 51.6851L10.929 50.6167L10.8226 47.2689L12.1716 45.7731C12.8106 45.2388 14.337 45.3457 14.5856 44.0991L16.4317 42.9595L17.8162 41.9266L19.4846 41.0007L21.5436 39.683C21.5436 39.683 22.0051 39.5049 23.3186 37.3324C24.6321 35.1598 24.2416 33.0229 24.2416 33.0229C23.7802 31.5271 23.3896 31.0641 22.8216 29.9601C22.3957 29.6395 22.1116 29.2122 21.3661 28.7491C20.7271 28.4999 20.1236 28.1437 19.4846 27.8945C18.7036 27.7876 17.9936 27.7519 17.2481 27.6451C16.5026 27.7519 15.6151 27.7163 14.8696 27.8232C14.337 28.1081 13.4141 28.4286 12.8816 28.6779C12.2781 28.9984 11.3196 29.8888 10.5032 30.53C9.93508 31.0641 8.7281 31.8121 8.1601 32.3463L8.33762 36.0858L8.51508 40.0035L8.33762 42.9951L7.5921 47.1265L6.8821 50.9372L6.0656 52.611L5.24909 54.1069C4.32608 54.1069 4.68109 47.4826 4.89409 47.1265L5.63959 45.8086L6.56259 44.5621L6.95309 42.3184L7.05959 38.935V35.9434V33.3079C5.63959 33.4859 2.12508 38.2583 2.12508 38.2583L1.77008 36.7269L1.69908 35.7297L2.33809 34.1626L3.72258 32.3463L5.03609 30.9929L6.70459 29.3903L6.98859 27.0397V25.259V22.6235V20.4509L3.01258 19.4537L1.66358 19.8811L1.02458 17.8154L0.705078 15.8566L3.08359 16.284L4.57458 16.4621L7.09509 16.6045Z" fill="white"/>
<path d="M7.09509 16.6037L6.81109 14.5381L8.47959 14.6094L8.40861 16.6751L12.7751 16.8175L17.6741 16.8531C17.6741 16.8531 19.6621 16.8175 20.9756 16.7463C23.1056 16.6037 26.8331 16.1408 28.7856 16.8175L29.3181 20.0228L29.6376 22.9788L26.2296 23.8692L18.9521 22.9433L13.7336 22.1953L9.54461 21.483L8.23108 21.0556V24.7952L8.05362 26.1842L8.23108 28.0718L9.50904 27.3239C11.2131 25.9349 12.5266 25.4006 15.2246 25.0089C16.325 24.8308 18.8811 24.8665 19.9461 25.1513C21.4371 25.5075 21.8986 25.6856 22.8216 26.3623L25.0226 28.0005C25.5906 28.9265 26.7976 31.562 26.9396 32.6661C27.1172 33.7701 27.1882 35.1948 27.1172 36.2987C27.0106 37.4384 26.6557 39.2192 26.6557 39.2192L26.2651 40.8932L25.6261 42.9588C25.2357 44.2765 23.7802 45.3094 23.7802 45.3094L22.5376 47.5531C21.7567 48.1586 20.9756 48.7283 20.1946 49.3338C17.0706 50.2242 17.1416 52.183 14.4082 52.2899L12.0651 51.6845L10.929 50.616L10.8226 47.2682L12.1716 45.7723C12.8106 45.2382 14.337 45.3449 14.5856 44.0985L16.4317 42.9588L17.8162 41.9259L19.4846 41L21.5436 39.6822C21.5436 39.6822 22.0051 39.5041 23.3186 37.3316C24.6321 35.1591 24.2416 33.0222 24.2416 33.0222C23.7802 31.5264 23.3896 31.0635 22.8216 29.9594C22.3957 29.6388 22.1116 29.2115 21.3661 28.7485C20.7271 28.4991 20.1236 28.143 19.4846 27.8937C18.7036 27.7868 17.9936 27.7512 17.2481 27.6444C16.5026 27.7512 15.6151 27.7156 14.8696 27.8224C14.337 28.1074 13.4141 28.428 12.8815 28.6772C12.2781 28.9978 11.3196 29.8881 10.5031 30.5292C9.93508 31.0635 8.7281 31.8113 8.1601 32.3456L8.33762 36.0852L8.51508 40.0028L8.33762 42.9944L7.5921 47.1257L6.88209 50.9365L6.06559 52.6104L5.24909 54.1062C4.32608 54.1062 4.68109 47.4818 4.89409 47.1257L5.63959 45.808L6.56259 44.5614L6.95309 42.3177L7.05959 38.9343V35.9426V33.3071C5.63959 33.4853 2.12508 38.2577 2.12508 38.2577L1.77008 36.7262L1.69908 35.7289L2.33808 34.1619L3.72258 32.3456L5.03609 30.9922L6.70459 29.3895L6.98858 27.039V25.2582V22.6227V20.4502L3.01258 19.453L1.66358 19.8804L1.02458 17.8147L0.705078 15.8559L3.08359 16.2833L4.57458 16.4613L7.09509 16.6037Z" fill="white"/>
<path d="M7.09509 16.6037L6.81109 14.5381L8.47959 14.6094L8.40861 16.6751L12.7751 16.8175L17.6741 16.8531C17.6741 16.8531 19.6621 16.8175 20.9756 16.7463C23.1056 16.6037 26.8331 16.1408 28.7856 16.8175L29.3181 20.0228L29.6376 22.9788L26.2296 23.8692L18.9521 22.9433L13.7336 22.1953L9.54461 21.483L8.23108 21.0556V24.7952L8.05362 26.1842L8.23108 28.0718L9.50904 27.3239C11.2131 25.9349 12.5266 25.4006 15.2246 25.0089C16.325 24.8308 18.8811 24.8665 19.9461 25.1513C21.4371 25.5075 21.8986 25.6856 22.8216 26.3623L25.0226 28.0005C25.5906 28.9265 26.7976 31.562 26.9396 32.6661C27.1172 33.7701 27.1882 35.1948 27.1172 36.2987C27.0106 37.4384 26.6557 39.2192 26.6557 39.2192L26.2651 40.8932L25.6261 42.9588C25.2357 44.2765 23.7802 45.3094 23.7802 45.3094L22.5376 47.5531C21.7567 48.1586 20.9756 48.7283 20.1946 49.3338C17.0706 50.2242 17.1416 52.183 14.4082 52.2899L12.0651 51.6845L10.929 50.616L10.8226 47.2682L12.1716 45.7723C12.8106 45.2382 14.337 45.3449 14.5856 44.0985L16.4317 42.9588L17.8162 41.9259L19.4846 41L21.5436 39.6822C21.5436 39.6822 22.0051 39.5041 23.3186 37.3316C24.6321 35.1591 24.2416 33.0222 24.2416 33.0222C23.7802 31.5264 23.3896 31.0635 22.8216 29.9594C22.3957 29.6388 22.1116 29.2115 21.3661 28.7485C20.7271 28.4991 20.1236 28.143 19.4846 27.8937C18.7036 27.7868 17.9936 27.7512 17.2481 27.6444C16.5026 27.7512 15.6151 27.7156 14.8696 27.8224C14.337 28.1074 13.4141 28.428 12.8815 28.6772C12.2781 28.9978 11.3196 29.8881 10.5031 30.5292C9.93508 31.0635 8.7281 31.8113 8.1601 32.3456L8.33762 36.0852L8.51508 40.0028L8.33762 42.9944L7.5921 47.1257L6.88209 50.9365L6.06559 52.6104L5.24909 54.1062C4.32608 54.1062 4.68109 47.4818 4.89409 47.1257L5.63959 45.808L6.56259 44.5614L6.95309 42.3177L7.05959 38.9343V35.9426V33.3071C5.63959 33.4853 2.12508 38.2577 2.12508 38.2577L1.77008 36.7262L1.69908 35.7289L2.33808 34.1619L3.72258 32.3456L5.03609 30.9922L6.70459 29.3895L6.98858 27.039V25.2582V22.6227V20.4502L3.01258 19.453L1.66358 19.8804L1.02458 17.8147L0.705078 15.8559L3.08359 16.2833L4.57458 16.4613L7.09509 16.6037Z" fill="white"/>
<path d="M52.6772 26.1495C52.2866 25.6509 50.4052 22.6592 50.0146 22.1606C49.8727 21.021 51.5056 21.7332 51.3991 20.5935C51.4701 19.2046 51.8961 19.5607 53.1742 18.2786C53.5291 17.9937 55.1977 16.3554 55.5526 16.0705C55.8012 15.8924 57.1502 15.8924 57.9667 14.539C58.7831 13.1857 59.8482 13.8267 60.0612 13.6843C61.1617 13.0432 64.7116 12.7583 66.3447 13.0076C68.4747 13.3638 69.0782 13.5062 69.7172 14.3253C70.3561 15.1445 70.2497 14.6815 70.4272 15.9993C70.6047 17.317 70.4982 19.169 70.2497 19.5607C70.0366 19.9525 69.3622 21.0565 68.9361 21.8045C68.4392 22.2319 67.9422 22.6949 67.4452 23.1222C67.4452 23.1222 65.8122 24.0482 67.6226 24.4756C70.7112 25.1523 71.8117 25.2591 75.6105 27.7878C76.7465 28.5357 76.9945 28.963 77.8825 30.637C78.273 32.0259 78.5923 32.4176 78.6279 35.445C78.3436 37.0476 78.4148 36.7271 77.705 38.5078C76.6039 41.2858 75.9654 41.2145 75.5392 41.7488C75.113 42.283 74.1901 43.4939 73.2316 43.9213C72.0601 44.9185 71.3502 45.5595 70.1787 46.5568C69.0071 47.3046 68.1906 47.8033 66.9836 48.5512C65.5281 49.1567 63.7532 51.1511 62.1911 51.6497C61.5521 51.6497 58.6057 51.5785 57.9667 51.5785C56.0142 50.9374 56.6177 50.3319 56.3692 48.8361C56.2271 48.6225 55.8721 47.4828 55.5526 47.5896C54.9136 47.8033 54.9136 47.091 54.6652 46.6636C54.3812 45.2746 53.1387 43.85 54.5587 43.4583C55.9787 43.0309 55.8721 42.8884 57.1147 42.6747C59.0672 42.3186 59.9192 42.6391 60.6292 42.4611C61.0552 42.3542 63.8597 41.2858 64.8537 40.6447C65.8477 40.0036 70.2142 38.864 70.5692 38.864C70.9241 38.864 73.2672 36.7271 73.4803 36.1572C73.9065 35.2312 74.1188 34.4834 74.1188 33.8423C74.297 32.9163 73.8708 31.9191 73.729 31.3848C73.5508 30.7082 71.8117 29.8534 71.2792 29.3904C69.4686 28.7493 68.6877 28.5 67.3742 28.3576C66.3092 28.2151 65.1377 28.322 64.2146 28.4644C63.3627 28.6426 61.4812 30.0671 59.5287 29.8178C58.7831 30.2808 58.2506 30.7794 57.2921 31.4205C56.5112 31.6342 56.4046 31.4205 55.9787 31.0999C55.7657 29.9247 55.8721 29.6041 55.9432 28.6426C56.1916 28.1439 56.6887 27.6453 56.9371 27.1467C57.9312 26.007 59.4932 25.1167 60.6646 24.155C61.1617 23.5852 62.7591 22.6592 63.2562 22.0893C63.9307 21.1991 64.1791 20.7004 64.8892 19.81C65.2087 19.169 65.8477 17.5663 65.5281 16.9965C65.2087 16.7472 63.0787 16.1417 62.7591 15.8924C60.0257 16.3198 59.8127 18.0293 59.0672 18.0293C58.4282 18.5279 59.2092 19.632 58.6057 20.1306C57.6116 20.7004 57.3631 19.7744 56.8306 20.9497C56.6887 23.051 55.6947 24.0838 54.5232 25.0454C54.3812 25.9358 53.7422 26.5057 52.6772 26.1495Z" fill="white"/>
<path d="M52.6772 26.1495C52.2866 25.6509 50.4052 22.6592 50.0146 22.1606C49.8727 21.021 51.5056 21.7332 51.3991 20.5935C51.4701 19.2046 51.8961 19.5607 53.1742 18.2786C53.5291 17.9937 55.1977 16.3554 55.5526 16.0705C55.8012 15.8924 57.1502 15.8924 57.9667 14.539C58.7831 13.1857 59.8482 13.8267 60.0612 13.6843C61.1617 13.0432 64.7116 12.7583 66.3447 13.0076C68.4747 13.3638 69.0782 13.5062 69.7172 14.3253C70.3561 15.1445 70.2497 14.6815 70.4272 15.9993C70.6047 17.317 70.4982 19.169 70.2497 19.5607C70.0366 19.9525 69.3622 21.0565 68.9361 21.8045C68.4392 22.2319 67.9422 22.6949 67.4452 23.1222C67.4452 23.1222 65.8122 24.0482 67.6226 24.4756C70.7112 25.1523 71.8117 25.2591 75.6105 27.7878C76.7465 28.5357 76.9945 28.963 77.8825 30.637C78.273 32.0259 78.5923 32.4176 78.6279 35.445C78.3436 37.0476 78.4148 36.7271 77.705 38.5078C76.6039 41.2858 75.9654 41.2145 75.5392 41.7488C75.113 42.283 74.1901 43.4939 73.2316 43.9213C72.0601 44.9185 71.3502 45.5595 70.1787 46.5568C69.0071 47.3046 68.1906 47.8033 66.9836 48.5512C65.5281 49.1567 63.7532 51.1511 62.1911 51.6497C61.5521 51.6497 58.6057 51.5785 57.9667 51.5785C56.0142 50.9374 56.6177 50.3319 56.3692 48.8361C56.2271 48.6225 55.8721 47.4828 55.5526 47.5896C54.9136 47.8033 54.9136 47.091 54.6652 46.6636C54.3812 45.2746 53.1387 43.85 54.5587 43.4583C55.9787 43.0309 55.8721 42.8884 57.1147 42.6747C59.0672 42.3186 59.9192 42.6391 60.6292 42.4611C61.0552 42.3542 63.8597 41.2858 64.8537 40.6447C65.8477 40.0036 70.2142 38.864 70.5692 38.864C70.9241 38.864 73.2672 36.7271 73.4803 36.1572C73.9065 35.2312 74.1188 34.4834 74.1188 33.8423C74.297 32.9163 73.8708 31.9191 73.729 31.3848C73.5508 30.7082 71.8117 29.8534 71.2792 29.3904C69.4686 28.7493 68.6877 28.5 67.3742 28.3576C66.3092 28.2151 65.1377 28.322 64.2146 28.4644C63.3627 28.6426 61.4812 30.0671 59.5287 29.8178C58.7831 30.2808 58.2506 30.7794 57.2921 31.4205C56.5112 31.6342 56.4046 31.4205 55.9787 31.0999C55.7657 29.9247 55.8721 29.6041 55.9432 28.6426C56.1916 28.1439 56.6887 27.6453 56.9371 27.1467C57.9312 26.007 59.4932 25.1167 60.6646 24.155C61.1617 23.5852 62.7591 22.6592 63.2562 22.0893C63.9307 21.1991 64.1791 20.7004 64.8892 19.81C65.2087 19.169 65.8477 17.5663 65.5281 16.9965C65.2087 16.7472 63.0787 16.1417 62.7591 15.8924C60.0257 16.3198 59.8127 18.0293 59.0672 18.0293C58.4282 18.5279 59.2092 19.632 58.6057 20.1306C57.6116 20.7004 57.3631 19.7744 56.8306 20.9497C56.6887 23.051 55.6947 24.0838 54.5232 25.0454C54.3812 25.9358 53.7422 26.5057 52.6772 26.1495Z" fill="white"/>
<path d="M1.94863 4.42404H2.48113C2.83613 4.42404 3.12013 4.45965 3.36863 4.5665C3.58163 4.67334 3.75913 4.78019 3.90113 4.95827C4.04313 5.13634 4.11413 5.31441 4.14963 5.56371C4.18513 5.81302 4.22064 6.06232 4.22064 6.34724C4.22064 6.66778 4.18513 6.9527 4.14963 7.20199C4.11413 7.45133 4.00763 7.66498 3.90113 7.84304C3.75913 8.0211 3.61713 8.16358 3.40413 8.23482C3.19113 8.30606 2.90713 8.3773 2.58763 8.3773H1.20312V1.75293H3.86563V2.42961H1.94863V4.42404ZM1.94863 7.62939H2.48113C2.69413 7.62939 2.87163 7.59374 3.01363 7.5225C3.15563 7.45133 3.26213 7.38009 3.33312 7.23761C3.40413 7.13077 3.43963 6.98831 3.47514 6.81023C3.51063 6.66778 3.51063 6.4897 3.51063 6.31163C3.51063 6.13355 3.51063 5.99109 3.47514 5.84863C3.43963 5.70617 3.40413 5.56371 3.33312 5.45687C3.26213 5.35003 3.15563 5.24318 3.01363 5.17195C2.87163 5.10072 2.69413 5.06511 2.48113 5.06511H1.94863V7.62939Z" fill="white"/>
<path d="M7.62723 6.56137C7.62723 7.16682 7.52068 7.59423 7.27222 7.91477C7.05921 8.23524 6.63322 8.37772 6.10072 8.37772C5.56822 8.37772 5.17772 8.23524 4.92922 7.91477C4.71622 7.62981 4.57422 7.23805 4.57422 6.73944V3.5341C4.60971 3.32042 4.60971 3.07112 4.68071 2.85742C4.71621 2.64373 4.78722 2.43005 4.89372 2.25197C5.00021 2.0739 5.14221 1.93144 5.35522 1.82459C5.56822 1.71776 5.81672 1.68213 6.13621 1.68213C6.45572 1.68213 6.73972 1.71776 6.91721 1.82459C7.13022 1.93144 7.27222 2.03829 7.37872 2.21636C7.48519 2.39444 7.55625 2.57251 7.59174 2.7862C7.62723 2.99989 7.62723 3.24919 7.62723 3.5341V6.56137ZM6.88172 3.39165C6.88172 3.2848 6.88172 3.17796 6.84622 3.03551C6.84622 2.92865 6.81072 2.82181 6.73972 2.71497C6.70422 2.60812 6.59772 2.53689 6.49122 2.46566C6.38472 2.39444 6.24272 2.35882 6.06521 2.35882C5.88772 2.35882 5.74572 2.39444 5.63922 2.50127C5.53271 2.60812 5.46172 2.71497 5.42622 2.82181C5.39071 2.96427 5.35522 3.07112 5.31972 3.21358C5.31972 3.35603 5.31972 3.46288 5.31972 3.56972V6.77505C5.31972 6.8819 5.31972 6.95314 5.35522 7.09559C5.39071 7.20244 5.42622 7.30927 5.46172 7.41609C5.53271 7.52299 5.60372 7.59423 5.71022 7.66539C5.81672 7.73663 5.92322 7.77229 6.10072 7.77229C6.24272 7.77229 6.38472 7.73663 6.49122 7.66539C6.59772 7.59423 6.66871 7.52299 6.73972 7.41609C6.81072 7.30927 6.84622 7.20244 6.84622 7.09559C6.88172 6.95314 6.88172 6.84628 6.88172 6.70383V3.39165Z" fill="white"/>
<path d="M9.33224 5.02949C9.33224 5.63495 9.29675 6.13355 9.26125 6.52531C9.22576 6.91708 9.15471 7.23761 9.04824 7.52257C8.94176 7.7718 8.83522 7.98552 8.65776 8.128C8.51573 8.27048 8.30278 8.41288 8.05427 8.51978L7.69922 7.98552C7.84126 7.8787 7.94773 7.7718 8.08976 7.66498C8.19624 7.55815 8.30278 7.41567 8.37376 7.27323C8.44475 7.09515 8.51573 6.88146 8.55122 6.63216C8.58678 6.38285 8.62227 6.02671 8.62227 5.59933V1.75293H11.3557V8.3773H10.6103V2.42961H9.29675V5.02949H9.33224Z" fill="white"/>
<path d="M12.1016 8.34164V1.75293H12.847V4.42404H13.3795C13.7346 4.42404 14.0186 4.45965 14.267 4.5665C14.4801 4.67334 14.6576 4.78019 14.7995 4.95827C14.9416 5.13634 15.0126 5.31441 15.0481 5.56371C15.0836 5.81302 15.1191 6.06232 15.1191 6.34724C15.1191 6.66778 15.0836 6.9527 15.0481 7.20199C15.0126 7.45133 14.9061 7.66498 14.7995 7.84304C14.6576 8.0211 14.5156 8.16358 14.3025 8.23482C14.0896 8.30606 13.8056 8.3773 13.4861 8.3773H12.1016V8.34164ZM12.8825 7.62939H13.4151C13.628 7.62939 13.8056 7.59374 13.9476 7.5225C14.0896 7.45133 14.196 7.38009 14.267 7.23761C14.3381 7.13077 14.3736 6.98831 14.4091 6.81023C14.4446 6.66778 14.4446 6.4897 14.4446 6.31163C14.4446 6.13355 14.4446 5.99109 14.4091 5.84863C14.3736 5.70617 14.3381 5.56371 14.267 5.45687C14.196 5.35003 14.0896 5.24318 13.9476 5.17195C13.8056 5.10072 13.628 5.06511 13.4151 5.06511H12.918V7.62939H12.8825Z" fill="white"/>
<path d="M20.4081 1.75293V8.3773H15.5801V1.75293H16.3257V7.62939H17.6036V1.75293H18.3492V7.62939H19.6627V1.75293H20.4081Z" fill="white"/>
<path d="M24.1 6.56137C24.1 7.16682 23.9934 7.59423 23.7449 7.91477C23.5319 8.23524 23.1059 8.37772 22.5733 8.37772C22.0409 8.37772 21.6504 8.23524 21.4019 7.91477C21.1888 7.62981 21.0469 7.23805 21.0469 6.73944V3.5341C21.0469 3.2848 21.0824 3.07112 21.1179 2.85742C21.1533 2.64373 21.2244 2.43005 21.3309 2.25197C21.4374 2.0739 21.5794 1.93144 21.7924 1.82459C22.0054 1.71776 22.2539 1.68213 22.5733 1.68213C22.8929 1.68213 23.1769 1.71776 23.3544 1.82459C23.5674 1.93144 23.7094 2.03829 23.8159 2.21636C23.9224 2.39444 23.9934 2.57251 24.0289 2.7862C24.0644 2.99989 24.0645 3.24919 24.0645 3.5341V6.56137H24.1ZM23.3544 3.39165C23.3544 3.2848 23.3544 3.17796 23.3189 3.03551C23.3189 2.92865 23.2835 2.82181 23.2124 2.71497C23.1769 2.60812 23.0704 2.53689 22.9639 2.46566C22.8574 2.39444 22.7155 2.35882 22.5379 2.35882C22.3604 2.35882 22.2184 2.39444 22.1119 2.50127C22.0764 2.60812 22.0054 2.71497 21.9344 2.85742C21.8989 2.99989 21.8634 3.10673 21.8279 3.24919C21.8279 3.39165 21.8279 3.49849 21.8279 3.60533V6.81067C21.8279 6.91752 21.8279 6.98875 21.8634 7.1312C21.8989 7.23805 21.9344 7.34492 21.9699 7.45175C22.0409 7.55857 22.1119 7.62981 22.2184 7.70105C22.3249 7.77229 22.4314 7.80787 22.6088 7.80787C22.7509 7.80787 22.8929 7.77229 22.9994 7.70105C23.1059 7.62981 23.1769 7.55857 23.2479 7.45175C23.3189 7.34492 23.3544 7.23805 23.3544 7.1312C23.3899 6.98875 23.3899 6.8819 23.3899 6.73944V3.39165H23.3544Z" fill="white"/>
<path d="M27.1168 3.71229L25.4483 8.34224H24.7383V1.75348H25.4483V6.41902H25.4838L27.1168 1.71786H27.8269V8.34224H27.1168V3.71229ZM25.6613 0.364502C25.6613 0.435731 25.6968 0.506961 25.7324 0.578192C25.7679 0.649421 25.8034 0.72065 25.8744 0.756261C25.9453 0.827494 25.9808 0.863106 26.0518 0.898726C26.1228 0.934338 26.2293 0.969951 26.3003 0.969951C26.4069 0.969951 26.4778 0.934338 26.5843 0.898726C26.6908 0.863106 26.7263 0.827494 26.7973 0.756261C26.8683 0.685036 26.9038 0.613806 26.9393 0.578192C26.9749 0.506961 26.9749 0.435731 26.9749 0.364502H27.5783C27.5783 0.471346 27.5428 0.613806 27.4718 0.756261C27.4363 0.898726 27.3298 1.00557 27.2589 1.14803C27.1523 1.25487 27.0458 1.36172 26.8683 1.43294C26.7263 1.50418 26.5488 1.53979 26.3359 1.53979C26.0873 1.53979 25.9098 1.50418 25.7324 1.43294C25.5903 1.36172 25.4483 1.25487 25.3418 1.14803C25.2353 1.04118 25.1643 0.898726 25.1288 0.756261C25.0933 0.613806 25.0224 0.471346 25.0224 0.364502H25.6613Z" fill="white"/>
<path d="M30.1348 8.34188V1.75314H30.8803V4.63794H31.2352C31.3418 4.63794 31.4128 4.63794 31.5193 4.60233C31.6257 4.56672 31.7322 4.5311 31.8388 4.45987C31.9453 4.38863 32.0163 4.2818 32.1228 4.17495C32.1937 4.03249 32.2647 3.89004 32.3358 3.64073L32.7973 1.71753H33.4718L33.0457 3.64073C32.9748 3.96126 32.8683 4.24618 32.7263 4.45987C32.5842 4.67356 32.4068 4.81602 32.2292 4.88725C32.4777 4.95848 32.6553 5.13656 32.7973 5.35024C32.9393 5.56393 33.0457 5.84885 33.1167 6.16938L33.5783 8.3063H32.8328L32.4068 6.31184C32.3713 6.09816 32.3003 5.92007 32.2292 5.77762C32.1583 5.63516 32.0518 5.52831 31.9808 5.45709C31.8743 5.38585 31.7677 5.35024 31.6612 5.31462C31.4838 5.35024 31.3773 5.35024 31.2352 5.35024H30.8803V8.37747H30.1348V8.34188Z" fill="white"/>
<path d="M36.8089 6.56137C36.8089 7.16682 36.7024 7.59423 36.4539 7.91477C36.2409 8.23524 35.8149 8.37772 35.2824 8.37772C34.7499 8.37772 34.3594 8.23524 34.1109 7.91477C33.8979 7.62981 33.7559 7.23805 33.7559 6.73944V3.5341C33.7559 3.2848 33.7914 3.07112 33.8269 2.85742C33.8624 2.64373 33.9335 2.43005 34.0399 2.25197C34.1464 2.0739 34.2884 1.93144 34.5015 1.82459C34.7144 1.71776 34.9629 1.68213 35.2824 1.68213C35.6019 1.68213 35.886 1.71776 36.0634 1.82459C36.2764 1.93144 36.4183 2.03829 36.5249 2.21636C36.6314 2.39444 36.7024 2.57251 36.7379 2.7862C36.7734 2.99989 36.7734 3.24919 36.7734 3.5341V6.56137H36.8089ZM36.0634 3.39165C36.0634 3.2848 36.0634 3.17796 36.0279 3.03551C36.0279 2.92865 35.9924 2.82181 35.9215 2.71497C35.886 2.60812 35.7793 2.53689 35.6729 2.46566C35.5664 2.39444 35.4244 2.35882 35.2469 2.35882C35.0694 2.35882 34.9274 2.39444 34.8209 2.50127C34.7144 2.60812 34.6434 2.71497 34.6079 2.82181C34.5724 2.96427 34.537 3.07112 34.5015 3.21358C34.5015 3.35603 34.5015 3.46288 34.5015 3.56972V6.77505C34.5015 6.8819 34.5015 6.95314 34.537 7.09559C34.5724 7.20244 34.6079 7.30927 34.6434 7.41609C34.7144 7.52299 34.7854 7.59423 34.8919 7.66539C34.9984 7.73663 35.1049 7.77229 35.2824 7.77229C35.4244 7.77229 35.5664 7.73663 35.6729 7.66539C35.7793 7.59423 35.8504 7.52299 35.9215 7.41609C35.9924 7.30927 36.0279 7.20244 36.0279 7.09559C36.0634 6.95314 36.0634 6.84628 36.0634 6.70383V3.39165Z" fill="white"/>
<path d="M39.7564 8.34164V5.27879H38.2298V8.34164H37.4844V1.75293H38.2298V4.63773H39.7564V1.75293H40.5019V8.3773H39.7564V8.34164Z" fill="white"/>
<path d="M44.2281 1.75293V7.66498H44.5831V9.62381H43.9086V8.3773H41.2461V1.75293H41.9915V7.66498H43.4826V1.75293H44.2281Z" fill="white"/>
<path d="M44.9747 8.34158V1.75287H47.7792V2.42955H45.7203V4.63767H47.5307V5.34996H45.7203V7.66492H47.7792V8.34158H44.9747Z" fill="white"/>
<path d="M49.4822 1.75293C49.8017 1.75293 50.0857 1.78854 50.2987 1.89539C50.5117 1.96661 50.6892 2.10908 50.7957 2.28715C50.9377 2.46522 51.0086 2.64329 51.0441 2.8926C51.0796 3.1419 51.1151 3.42683 51.1151 3.71175C51.1151 3.99666 51.0796 4.24596 51.0441 4.49527C51.0086 4.74458 50.9022 4.95827 50.7957 5.13634C50.6537 5.31441 50.5117 5.45687 50.2632 5.56371C50.0502 5.67056 49.7307 5.70617 49.3757 5.70617H48.8432V8.3773H48.0977V1.75293H49.4822ZM48.9142 4.99388H49.4112C49.6241 4.99388 49.8372 4.95826 49.9437 4.88703C50.0857 4.8158 50.1922 4.70896 50.2632 4.60211C50.3342 4.49527 50.3697 4.35281 50.4051 4.21035C50.4406 4.0679 50.4406 3.88982 50.4406 3.71175C50.4406 3.53367 50.4406 3.3556 50.4051 3.21314C50.3697 3.07068 50.3342 2.92821 50.2632 2.78576C50.1922 2.67891 50.0857 2.57207 49.9437 2.50084C49.8017 2.42961 49.6241 2.394 49.4112 2.394H48.8787V4.99388H48.9142Z" fill="white"/>
<path d="M53.0315 2.42961V8.34164H52.2861V2.42961H51.1855V1.75293H54.1675V2.42961H53.0315Z" fill="white"/>
<path d="M56.6899 8.34164V5.27879H55.1634V8.34164H54.418V1.75293H55.1634V4.63773H56.6899V1.75293H57.4354V8.3773H56.6899V8.34164Z" fill="white"/>
<path d="M58.1445 8.34164V1.75293H58.8901V4.42404H59.4226C59.7775 4.42404 60.0616 4.45965 60.31 4.5665C60.523 4.67334 60.7005 4.78019 60.8425 4.95827C60.9845 5.13634 61.0555 5.31441 61.091 5.56371C61.1265 5.81302 61.162 6.06232 61.162 6.34724C61.162 6.66778 61.1265 6.9527 61.091 7.20199C61.0555 7.45133 60.949 7.66498 60.8425 7.84304C60.7005 8.0211 60.5585 8.16358 60.3455 8.23482C60.1325 8.30606 59.8485 8.3773 59.529 8.3773H58.1445V8.34164ZM58.8901 7.62939H59.4226C59.6355 7.62939 59.813 7.59374 59.9551 7.5225C60.097 7.45133 60.2035 7.38009 60.2745 7.23761C60.3455 7.13077 60.381 6.98831 60.4165 6.81023C60.452 6.66778 60.452 6.4897 60.452 6.31163C60.452 6.13355 60.452 5.99109 60.4165 5.84863C60.381 5.70617 60.3455 5.56371 60.2745 5.45687C60.2035 5.35003 60.097 5.24318 59.9551 5.17195C59.813 5.10072 59.6355 5.06511 59.4226 5.06511H58.9255V7.62939H58.8901ZM61.6945 8.34164V1.75293H62.44V8.3773H61.6945V8.34164Z" fill="white"/>
<path d="M65.5289 3.71229L63.8604 8.34224H63.1504V1.75348H63.8604V6.41902H63.8958L65.5289 1.71786H66.2388V8.34224H65.5289V3.71229ZM64.0734 0.364502C64.0734 0.435731 64.1089 0.506961 64.1444 0.578192C64.1798 0.649421 64.2153 0.72065 64.2864 0.756261C64.3574 0.827494 64.3929 0.863106 64.4639 0.898726C64.5349 0.934338 64.6414 0.969951 64.7124 0.969951C64.8188 0.969951 64.8898 0.934338 64.9964 0.898726C65.1029 0.863106 65.1384 0.827494 65.2094 0.756261C65.2804 0.685036 65.3158 0.613806 65.3513 0.578192C65.3868 0.506961 65.3868 0.435731 65.3868 0.364502H65.9904C65.9904 0.471346 65.9549 0.613806 65.8838 0.756261C65.8484 0.898726 65.7419 1.00557 65.6709 1.14803C65.5644 1.25487 65.4578 1.36172 65.2804 1.43294C65.1384 1.50418 64.9608 1.53979 64.7478 1.53979C64.4994 1.53979 64.3219 1.50418 64.1444 1.43294C64.0023 1.36172 63.8604 1.25487 63.7539 1.14803C63.6474 1.04118 63.5764 0.898726 63.5408 0.756261C63.5053 0.613806 63.4698 0.506961 63.4698 0.364502H64.0734Z" fill="white"/>
<path d="M69.6123 1.68213C69.8608 1.68213 70.0384 1.71776 70.2514 1.75337C70.4288 1.82459 70.6063 1.89583 70.7129 2.03829C70.8549 2.18074 70.9613 2.35882 71.0323 2.57251C71.1033 2.7862 71.1388 3.07112 71.1388 3.39165C71.1388 3.49849 71.1388 3.64096 71.1033 3.78341C71.1033 3.92587 71.0678 4.06833 70.9968 4.21078C70.9613 4.35325 70.8904 4.49571 70.8194 4.60255C70.7484 4.7094 70.6418 4.81624 70.5353 4.88747V4.92308C70.6773 4.99432 70.7839 5.10116 70.8549 5.208C70.9258 5.31485 70.9968 5.45731 71.0323 5.59977C71.0678 5.74222 71.1033 5.88468 71.1033 6.02715C71.1033 6.1696 71.1033 6.31207 71.1033 6.45452C71.1033 7.09559 70.9968 7.55857 70.7484 7.91477C70.4998 8.23524 70.1093 8.4133 69.5768 8.4133C69.3639 8.4133 69.1508 8.37772 68.9733 8.30648C68.7959 8.23524 68.6183 8.164 68.5118 8.02159C68.4053 7.87911 68.2634 7.73663 68.1924 7.55857C68.1213 7.38051 68.0859 7.1312 68.1213 6.8819L68.8669 6.77505C68.8669 7.1312 68.9378 7.38051 69.0443 7.52299C69.1863 7.66539 69.3639 7.73663 69.6123 7.73663C69.7189 7.73663 69.8253 7.70105 69.8963 7.66539C70.0028 7.62981 70.0739 7.55857 70.1449 7.45175C70.2159 7.34492 70.2514 7.23805 70.3224 7.05997C70.3578 6.8819 70.3933 6.70383 70.3933 6.41891C70.3933 6.27645 70.3933 6.09837 70.3579 5.95592C70.3224 5.81346 70.2869 5.671 70.2514 5.56415C70.2159 5.45731 70.1093 5.38608 70.0384 5.31485C69.9318 5.24361 69.8253 5.208 69.6834 5.208H69.2218V4.56693H69.6834C69.8253 4.56693 69.9318 4.53132 70.0028 4.46009C70.1094 4.38886 70.1804 4.31764 70.2159 4.21078C70.2514 4.10395 70.3224 3.96148 70.3224 3.81903C70.3578 3.67657 70.3579 3.5341 70.3579 3.35603C70.3579 3.14234 70.3224 2.96427 70.2869 2.85742C70.2514 2.71497 70.1804 2.60812 70.1093 2.53689C70.0384 2.46566 69.9673 2.39444 69.8608 2.35882C69.7544 2.3232 69.6478 2.3232 69.5413 2.3232C69.2928 2.3232 69.0798 2.43005 68.9733 2.60812C68.9379 2.85742 68.8669 3.07112 68.8669 3.32042L68.1568 3.17796C68.1924 2.71497 68.3344 2.3232 68.5828 2.0739C68.8669 1.82459 69.1863 1.68213 69.6123 1.68213Z" fill="white"/>
<path d="M74.2613 8.34176L73.9413 6.88156H72.4861L72.2022 8.34176H71.4922L72.8766 1.71741H73.5864L75.0067 8.34176H74.2613ZM73.1958 3.10638L72.9122 4.63782L72.5926 6.16926H73.7995L73.4802 4.63782L73.2315 3.10638H73.1958Z" fill="white"/>
<path d="M76.3554 5.02949C76.3554 5.63495 76.3197 6.13355 76.2841 6.52531C76.2492 6.91708 76.1779 7.23761 76.0717 7.52257C75.9648 7.7718 75.8587 7.98552 75.6812 8.128C75.5387 8.27048 75.3256 8.41288 75.0776 8.51978L74.7227 7.98552C74.8645 7.8787 74.9707 7.7718 75.1132 7.66498C75.2194 7.55815 75.3256 7.41567 75.3968 7.27323C75.4681 7.09515 75.5387 6.88146 75.5743 6.63216C75.6099 6.38285 75.6456 6.02671 75.6456 5.59933V1.75293H78.3787V8.3773H77.6332V2.42961H76.3197V5.02949H76.3554Z" fill="white"/>
<path d="M6.81156 66.4997C6.81156 67.5325 6.56306 68.316 6.10156 68.8502C5.64005 69.3844 4.89455 69.6337 3.90055 69.6337C2.90655 69.6337 2.19655 69.3844 1.73504 68.8859C1.27354 68.3872 1.06055 67.6393 1.06055 66.6777V60.6944C1.06055 60.2314 1.13154 59.804 1.23805 59.4123C1.34455 59.0205 1.52205 58.7 1.73504 58.415C1.94805 58.1301 2.26754 57.9165 2.62255 57.774C2.97755 57.6315 3.43905 57.5603 3.93604 57.5603C4.46855 57.5603 4.93005 57.6315 5.32055 57.774C5.67556 57.9165 5.99505 58.1301 6.20806 58.415C6.42106 58.7 6.59855 59.0205 6.66956 59.4123C6.77605 59.804 6.81156 60.2314 6.81156 60.7301V66.4997ZM4.96555 60.5519C4.96555 60.2314 4.89455 59.9108 4.75255 59.6615C4.61055 59.4123 4.32655 59.2698 3.93604 59.2698C3.72305 59.2698 3.54555 59.3054 3.40354 59.4123C3.26155 59.5191 3.15505 59.626 3.08405 59.7684C3.01306 59.9108 2.94205 60.0534 2.94205 60.2314C2.90655 60.4095 2.90655 60.5876 2.90655 60.7301V66.7133C2.90655 67.0339 2.97755 67.2832 3.11955 67.5325C3.26155 67.7818 3.54555 67.8886 3.90055 67.8886C4.25555 67.8886 4.53956 67.7462 4.71705 67.4969C4.85905 67.2475 4.96555 66.927 4.96555 66.5709V60.5519Z" fill="white"/>
<path d="M8.48047 69.5267V57.6313H10.3264V62.653H10.717C11.143 62.653 11.4624 62.5461 11.7109 62.2968C11.9595 62.0476 12.1725 61.6202 12.3144 61.0148C12.3499 60.9079 12.3854 60.6942 12.4564 60.3737C12.5275 60.0531 12.5985 59.6969 12.6695 59.3408C12.7405 58.9847 12.8115 58.6286 12.8824 58.308C12.9534 57.9875 12.9889 57.7738 13.0244 57.6669H14.7285C14.5865 58.2724 14.48 58.8779 14.3379 59.4477C14.196 60.0175 14.0895 60.623 13.9474 61.2285C13.8055 61.7983 13.628 62.2968 13.3794 62.653C13.131 63.0092 12.8469 63.2585 12.492 63.4009V63.4365C12.9179 63.579 13.273 63.864 13.4859 64.2201C13.7344 64.5762 13.912 65.0392 14.0185 65.609C14.1605 66.2858 14.3024 66.9624 14.4444 67.6034C14.5865 68.2445 14.7285 68.9213 14.8704 69.5623H13.0244C12.9179 68.9924 12.8115 68.387 12.6695 67.8171C12.563 67.2473 12.4209 66.6419 12.3144 66.072C12.1725 65.4309 11.9949 65.0037 11.7464 64.7543C11.4979 64.505 11.143 64.3625 10.7525 64.3625H10.2555V69.5623H8.48047V69.5267Z" fill="white"/>
<path d="M18.8801 59.378V69.5638H17.0342V59.378H15.1172V57.6685H20.7616V59.378H18.8801Z" fill="white"/>
<path d="M21.3301 69.5267L22.0045 65.7515C22.0755 65.3598 22.2176 65.0037 22.3951 64.6474C22.5726 64.2913 22.8211 64.0775 23.1051 63.8996C22.5725 63.6858 22.1822 63.3297 21.9691 62.8667C21.7561 62.4037 21.6496 61.8339 21.6496 61.1928C21.6496 60.0175 21.9336 59.1272 22.5016 58.5217C23.0696 57.9163 23.8506 57.6313 24.8091 57.6313H27.5072V69.5267H25.6611V64.4694H25.1996C24.8801 64.4694 24.5961 64.6118 24.3121 64.8611C24.028 65.1105 23.8506 65.5734 23.7441 66.1789L23.1761 69.5623H21.3301V69.5267ZM24.9511 59.3764C24.3831 59.3764 23.9926 59.5545 23.7796 59.8751C23.5667 60.1956 23.46 60.6586 23.46 61.1928C23.46 61.7626 23.6021 62.19 23.8861 62.4037C24.1701 62.6174 24.5251 62.7243 24.9511 62.7243H25.6966V59.3408H24.9511V59.3764Z" fill="white"/>
<path d="M31.057 62.2256H31.838C32.4415 62.2256 32.9385 62.2968 33.3645 62.4749C33.755 62.653 34.0744 62.8667 34.323 63.1872C34.5714 63.5077 34.749 63.864 34.8555 64.3269C34.962 64.7543 34.9975 65.2529 34.9975 65.8227C34.9975 67.0693 34.749 67.9953 34.2165 68.6007C33.684 69.2061 32.903 69.5267 31.838 69.5267H29.2109V57.6313H34.394V59.3408H31.0215V62.2256H31.057ZM31.057 67.7816H31.767C31.8735 67.7816 31.9445 67.7816 32.0154 67.7459C32.5125 67.7103 32.832 67.4966 33.0095 67.1405C33.1869 66.7844 33.258 66.3569 33.258 65.8227C33.258 65.1817 33.1514 64.683 32.9385 64.3981C32.7254 64.1133 32.335 63.9351 31.767 63.9351H31.0925V67.7816H31.057Z" fill="white"/>
<path d="M38.8695 57.6313C39.97 57.6313 40.751 57.9163 41.248 58.4862C41.745 59.0559 41.9935 59.982 41.9935 61.2285C41.9935 61.7983 41.958 62.2968 41.8515 62.7599C41.745 63.2229 41.5675 63.6146 41.319 63.9351C41.0705 64.2557 40.751 64.505 40.325 64.6831C39.9344 64.8611 39.4019 64.9679 38.7985 64.9679H38.053V69.5267H36.207V57.6313H38.8695ZM38.0885 59.3764V63.2228H38.7275C39.2955 63.2228 39.686 63.0448 39.899 62.7243C40.112 62.4037 40.2185 61.9051 40.2185 61.2641C40.2185 60.6942 40.112 60.2312 39.899 59.8751C39.686 59.5545 39.2955 59.3764 38.7275 59.3764H38.0885Z" fill="white"/>
<path d="M43.2344 69.5267V57.6313H45.0803V62.2256H45.8614C46.4648 62.2256 46.9619 62.2968 47.3879 62.4749C47.7784 62.653 48.0979 62.8667 48.3464 63.1872C48.5949 63.5077 48.7724 63.864 48.8789 64.3269C48.9854 64.7543 49.0209 65.2529 49.0209 65.8227C49.0209 67.0693 48.7724 67.9953 48.2399 68.6007C47.7429 69.2061 46.9264 69.5267 45.8614 69.5267H43.2344ZM45.0803 67.8172H45.7904C46.3584 67.8172 46.7489 67.6392 46.9619 67.2829C47.1749 66.9268 47.2814 66.4637 47.2814 65.8583C47.2814 65.2172 47.1749 64.7187 46.9619 64.4338C46.7489 64.1133 46.3584 63.9708 45.7904 63.9708H45.0803V67.8172Z" fill="white"/>
<path d="M53.0684 57.5249C53.5655 57.5249 53.9914 57.5961 54.3465 57.7385C54.7015 57.881 54.9855 58.059 55.234 58.3084C55.4825 58.5577 55.6245 58.8426 55.731 59.1631C55.8375 59.4837 55.9084 59.8754 55.9084 60.2672L54.1335 60.7302C54.1335 60.3028 54.0626 59.9467 53.885 59.6617C53.7075 59.3768 53.459 59.2344 53.1039 59.2344C52.891 59.2344 52.7135 59.2699 52.5714 59.3768C52.4295 59.4837 52.323 59.5906 52.252 59.733C52.181 59.8754 52.1455 60.0179 52.11 60.196C52.0745 60.374 52.0745 60.5165 52.0745 60.6589V66.7135C52.0745 66.8203 52.0745 66.9628 52.11 67.1052C52.1455 67.2478 52.181 67.3546 52.252 67.497C52.323 67.6039 52.4295 67.7107 52.5714 67.7819C52.7135 67.8532 52.8555 67.8888 53.0684 67.8888C53.743 67.8888 54.098 67.3902 54.098 66.4286C54.4175 66.4998 54.7015 66.5354 55.021 66.571C55.3404 66.6066 55.6245 66.6422 55.9439 66.7135C55.9084 67.6039 55.66 68.3161 55.1985 68.8504C54.737 69.3846 54.0269 69.634 53.1039 69.634C52.11 69.634 51.3999 69.3846 50.9385 68.886C50.4769 68.3874 50.2285 67.675 50.2285 66.7135V60.7658C50.2285 60.3384 50.264 59.9111 50.3705 59.5192C50.477 59.1275 50.6189 58.7714 50.8675 58.4865C51.0804 58.2016 51.4 57.9522 51.755 57.7741C52.0745 57.6317 52.5359 57.5249 53.0684 57.5249Z" fill="white"/>
<path d="M57.1855 69.5267V57.6313H59.0316V62.653H59.4221C59.848 62.653 60.1676 62.5461 60.416 62.2968C60.6646 62.0476 60.8776 61.6202 61.0196 61.0148C61.0551 60.9079 61.0906 60.6942 61.1615 60.3737C61.2326 60.0531 61.3036 59.6969 61.3746 59.3408C61.4456 58.9847 61.5166 58.6286 61.5876 58.308C61.6586 57.9875 61.6941 57.7738 61.7295 57.6669H63.4336C63.2917 58.2724 63.185 58.8779 63.0431 59.4477C62.9011 60.0175 62.7946 60.623 62.6526 61.2285C62.5106 61.7983 62.3331 62.2968 62.0846 62.653C61.836 63.0092 61.5521 63.2585 61.197 63.4009V63.4365C61.6231 63.579 61.9781 63.864 62.1911 64.2201C62.4396 64.5762 62.6171 65.0392 62.7236 65.609C62.8656 66.2858 63.0076 66.9624 63.1495 67.6034C63.2917 68.2445 63.4336 68.9213 63.5756 69.5623H61.7295C61.6231 68.9924 61.5166 68.387 61.3746 67.8171C61.2681 67.2473 61.1261 66.6419 61.0196 66.072C60.8776 65.4309 60.7001 65.0037 60.4516 64.7543C60.2031 64.505 59.848 64.3625 59.4576 64.3625H58.9606V69.5623H57.1855V69.5267Z" fill="white"/>
<path d="M68.8654 62.0832L66.3804 69.5267H64.6055V57.6313H66.3804V65.1816H66.4514L68.9364 57.6313H70.7114V69.5267H68.9009V62.0832H68.8654Z" fill="white"/>
<path d="M76.639 62.0842L74.1539 69.5277H72.3789V57.6323H74.1539V65.1826H74.2252L76.7103 57.6323H78.4848V69.5277H76.6746V62.0842H76.639ZM74.4026 54.9255C74.4026 55.068 74.4375 55.1748 74.5088 55.3174C74.5801 55.4598 74.6506 55.5666 74.7575 55.6735C74.8637 55.7803 74.9706 55.8872 75.0768 55.9584C75.2186 56.0296 75.3612 56.0652 75.503 56.0652C75.6804 56.0652 75.8223 56.0296 75.9641 55.9584C76.1066 55.8872 76.2128 55.7803 76.2841 55.6735C76.3546 55.5666 76.4615 55.4242 76.4972 55.3174C76.5321 55.1748 76.5677 55.068 76.5677 54.9255H77.9168C77.8812 55.1748 77.8455 55.4242 77.7393 55.7091C77.6332 55.9941 77.4906 56.2434 77.2775 56.4927C77.0652 56.7419 76.8521 56.92 76.5321 57.0624C76.2484 57.2049 75.8935 57.2762 75.4673 57.2762C75.0412 57.2762 74.6506 57.2049 74.3313 57.0624C74.0121 56.92 73.7633 56.7063 73.5859 56.4927C73.4084 56.2434 73.2666 55.9941 73.1597 55.7091C73.0535 55.4242 73.0179 55.1748 73.0179 54.9255H74.4026Z" fill="white"/>
</svg>
