<svg width="590" height="698" viewBox="0 0 590 698" fill="none" xmlns="http://www.w3.org/2000/svg">
<path d="M124.663 178.67L124.737 178.588L150.995 149.826L187.526 177.712C195.619 171.341 204.364 165.786 213.521 161.197L206.472 114.798L206.578 114.765L243.38 103.611L243.428 103.718L261.754 146.48C271.874 145.193 282.176 144.958 292.391 145.778L308.695 102.182L308.803 102.21L346.291 111.652L341.573 158.172C351.004 162.297 360.075 167.403 368.539 173.346L403.932 144.197L404.017 144.278L432.142 171.784L405.419 209.521C411.582 217.901 416.986 226.941 421.482 236.385L466.671 229.587L466.705 229.697L477.931 267.899L436.241 286.593C437.568 296.945 437.904 307.47 437.25 317.881L480.094 335.471L471.389 374.247L471.276 374.236L425.825 368.746C421.996 378.317 417.241 387.523 411.683 396.108L440.607 433.482L440.533 433.564L414.275 462.327L414.182 462.258L377.127 433.975C369.177 440.21 360.599 445.659 351.63 450.178L358.798 497.354L358.693 497.388L321.89 508.542L303.236 465.011C293.279 466.281 283.147 466.537 273.109 465.775L256.583 509.969L256.474 509.941L218.986 500.499L218.996 500.382L223.748 453.523C214.4 449.471 205.395 444.446 196.984 438.601L161.341 467.951L161.261 467.873L133.135 440.367L133.2 440.271L159.905 402.572C153.696 394.212 148.253 385.201 143.72 375.783L98.6037 382.568L98.57 382.459L87.3438 344.256L87.4466 344.208L128.745 325.689C127.356 315.24 126.976 304.612 127.603 294.102L85.1759 276.681L85.201 276.57L93.8812 237.905L93.9943 237.916L138.829 243.332C142.686 233.58 147.501 224.21 153.149 215.476L124.663 178.67ZM151.034 150.18L125.006 178.688L153.473 215.466L153.42 215.544C147.741 224.314 142.904 233.726 139.04 243.526L139.004 243.617L138.91 243.606L94.0936 238.191L85.4945 276.511L127.889 293.914L127.884 294.015C127.244 304.573 127.628 315.25 129.029 325.748L129.043 325.849L128.953 325.887L87.6692 344.403L98.7857 382.272L143.866 375.493L143.908 375.582C148.455 385.043 153.925 394.1 160.165 402.497L160.224 402.579L160.168 402.661L133.477 440.35L161.353 467.615L196.968 438.289L197.044 438.345C205.494 444.226 214.535 449.271 223.93 453.338L224.019 453.376L224.009 453.474L219.258 500.313L256.412 509.668L272.926 465.511L273.024 465.517C283.111 466.289 293.295 466.032 303.294 464.747L303.392 464.734L303.43 464.827L322.032 508.229L358.507 497.174L351.346 450.035L351.431 449.993C360.445 445.455 369.064 439.984 377.049 433.716L377.128 433.656L377.208 433.715L414.246 461.986L440.274 433.478L411.368 396.131L411.421 396.053C417.011 387.432 421.791 378.18 425.631 368.565L425.667 368.474L425.761 368.485L471.194 373.974L479.793 335.654L436.979 318.074L436.984 317.973C437.649 307.517 437.305 296.941 435.969 286.544L435.955 286.443L436.045 286.404L477.615 267.766L466.484 229.9L421.332 236.691L421.29 236.602C416.782 227.111 411.349 218.029 405.153 209.613L405.094 209.531L405.15 209.448L431.797 171.825L403.921 144.559L368.553 173.682L368.476 173.626C359.976 167.643 350.864 162.514 341.387 158.38L341.299 158.342L341.308 158.244L346.016 111.861L308.862 102.506L292.575 146.068L292.477 146.062C282.22 145.231 271.866 145.467 261.704 146.769L261.606 146.782L261.567 146.689L243.249 103.944L206.771 115.004L213.813 161.365L213.727 161.407C204.529 166.011 195.74 171.593 187.619 177.995L187.541 178.055L187.46 177.996L151.034 150.18ZM193.75 240.797C201.992 228.65 212.626 218.281 225.236 210.296C249.706 194.793 278.666 190.155 306.774 197.221C334.886 204.291 358.778 222.227 374.062 247.725C389.345 273.224 394.177 303.236 387.682 332.226C381.184 361.22 364.129 385.719 339.658 401.223C315.188 416.726 286.228 421.364 258.12 414.298C230.008 407.228 206.116 389.292 190.835 363.789C175.555 338.287 170.72 308.278 177.215 279.288C180.361 265.233 185.995 252.225 193.75 240.797ZM370.964 370.408C378.566 359.205 384.253 346.334 387.427 332.163C400.807 272.457 364.6 212.039 306.715 197.477C248.826 182.92 190.843 219.648 177.459 279.35L177.335 279.318L177.459 279.35C164.078 339.055 200.282 399.478 258.171 414.035C302.324 425.143 346.533 406.412 370.964 370.408Z" fill="black"/>
<path d="M153.132 215.476L153.216 215.381L187.518 177.7L187.613 177.776C200.517 188.148 224.846 207.563 227.114 208.879C226.667 206.273 218.128 176.925 213.543 161.317L213.503 161.19L213.626 161.15L261.767 146.464L261.802 146.6C264.822 159.239 272.711 191.77 273.737 194.019C274.988 191.96 286.373 161.863 292.354 145.874L292.395 145.767L292.503 145.794L341.577 158.161L341.557 158.283C338.875 174.396 333.932 204.607 333.741 207.488C335.903 205.667 357.133 184.66 368.45 173.417L368.534 173.329L368.627 173.417L405.426 209.513L405.35 209.607C395.125 222.254 375.933 246.16 374.796 248.256C377.211 248.13 409.028 239.712 421.369 236.406L421.493 236.373L436.261 286.614L436.134 286.651C421.093 290.747 392.828 298.55 390.578 299.546C392.779 300.839 421.748 311.986 437.162 317.855L437.273 317.898L437.245 318.014L425.846 368.775L425.722 368.743C410.436 365.062 381.818 358.234 378.992 357.805C380.737 360.209 400.855 383.577 411.627 396.034L411.706 396.124L377.141 434.005L377.049 433.917C365.375 422.864 343.466 402.22 341.199 400.443C341.581 403.379 348.104 433.828 351.622 450.081L351.647 450.203L351.535 450.238L303.233 465.047L303.195 464.916C298.783 449.297 290.396 419.976 289.328 417.547C288.19 419.982 278.344 449.805 273.145 465.697L273.106 465.811L272.993 465.781L223.743 453.552L223.763 453.43C226.303 437.265 230.99 407.094 231.309 403.884C229.007 406.033 208.213 427.183 197.072 438.541L196.984 438.633L196.892 438.546L159.891 402.588L159.97 402.49C172.127 387.52 190.156 364.925 190.63 363.254C188.971 362.958 161.871 370.533 143.834 375.769L143.715 375.805L143.678 375.681L128.734 325.681L128.861 325.644C141.055 322.087 172.407 312.82 174.623 311.65C172.444 310.465 143.243 299.773 127.711 294.142L127.6 294.1L127.628 293.984L138.83 243.326L138.948 243.348C154.712 246.251 184.222 251.624 187.082 251.908C185.262 249.606 164.398 227.403 153.229 215.567L153.132 215.476ZM187.547 178.059L153.488 215.476C154.413 216.46 162.507 225.035 170.483 233.551C187.61 251.832 187.52 251.975 187.419 252.123C187.342 252.255 187.236 252.392 163.016 248.016C151.72 245.974 140.306 243.873 139.013 243.636L127.893 293.93C139.019 297.962 174.69 310.944 174.947 311.594L174.967 311.648L174.938 311.719C174.938 311.719 174.935 311.723 174.933 311.727C174.333 312.61 136.92 323.57 129.044 325.869L143.87 375.482C145.143 375.112 156.143 371.931 167.058 368.903C190.532 362.388 190.759 362.887 190.867 363.129C190.964 363.342 191.192 363.848 175.676 383.356C168.443 392.453 161.069 401.543 160.236 402.574L196.966 438.268C219.628 415.159 231.227 403.453 231.445 403.469L231.501 403.471L231.538 403.518C231.754 403.8 227.579 430.745 224.028 453.357L272.926 465.497C273.337 464.236 277.086 452.79 280.843 441.474C288.886 417.263 289.135 417.205 289.289 417.174C289.494 417.135 289.727 417.091 296.629 441.022C299.832 452.129 303.015 463.385 303.391 464.721L351.331 450.024C351.044 448.707 348.501 436.937 346.021 425.28C340.71 400.313 340.844 400.19 340.969 400.099C341.116 399.985 341.25 399.882 359.286 416.824C367.674 424.704 376.132 432.706 377.111 433.638L411.34 396.13C410.469 395.122 402.65 386.076 394.951 377.106C378.444 357.873 378.536 357.738 378.629 357.591C378.722 357.464 378.819 357.321 402.34 362.897C413.287 365.49 424.339 368.153 425.633 368.462L436.948 318.077C435.732 317.615 424.599 313.37 413.615 309.11C390.084 299.985 390.152 299.716 390.211 299.498C390.253 299.334 390.334 299.055 413.233 292.686C423.875 289.724 434.629 286.793 435.923 286.438L421.303 236.709C420.032 237.048 409.025 239.996 398.129 242.837C374.692 248.942 374.575 248.648 374.489 248.428C374.423 248.263 374.299 247.951 389.728 228.627C396.92 219.618 404.232 210.572 405.062 209.546L368.53 173.71C352.789 189.35 333.985 207.933 333.593 207.874L333.54 207.868L333.502 207.821C333.169 207.349 338.802 173.185 341.272 158.367L292.546 146.086C292.085 147.318 287.786 158.797 283.463 170.135C274.228 194.371 273.902 194.374 273.716 194.368C273.508 194.365 273.196 194.358 267.311 170.462C264.587 159.38 261.895 148.165 261.57 146.801L213.812 161.371C218.017 175.685 227.66 208.673 227.347 209.153L227.314 209.201L227.25 209.212C226.532 209.325 196.811 185.5 187.547 178.059Z" fill="black"/>
<path d="M150.94 149.97C150.97 149.927 151.001 149.918 151.026 149.91C151.218 149.861 151.454 149.793 162.557 171.762C168.021 182.575 173.49 193.541 173.546 193.654C174.348 196.917 176.215 204.543 178.333 213.251L227.258 209.014L249.289 169.052L235.472 154.741C235.39 154.629 228.086 144.749 220.917 134.96C216.707 129.214 213.364 124.624 210.98 121.315C206.417 114.985 206.473 114.941 206.607 114.818C206.773 114.666 207.091 114.384 234.542 130.452C248.072 138.372 261.699 146.467 261.839 146.551L261.951 146.619L261.886 146.734L249.604 169.009L273.824 194.095C278.452 188.725 289.954 175.406 302.467 160.999C296.804 152.509 292.616 146.225 292.486 146.033L292.407 145.916L292.524 145.846C306.025 137.554 339.392 116.885 345.277 112.526C345.858 111.941 346.201 111.633 346.284 111.641L346.348 111.649L346.396 111.71C346.421 111.748 346.429 111.793 346.418 111.837C346.39 111.953 346.029 112.269 345.382 112.746C340.961 117.259 321.873 139.063 302.797 161.026C314.79 179.016 333.255 206.727 333.869 207.73C334.692 208.548 359.513 209.026 381.125 209.266C382.769 199.638 384.176 191.453 384.547 189.296C384.605 189.156 389.336 177.934 394.068 166.843C403.67 144.345 403.915 144.303 404.059 144.278L404.123 144.267L404.177 144.319C404.876 145.085 405.436 198.827 405.538 209.588L405.542 209.722L405.416 209.721C402.813 209.71 392.953 209.661 381.335 209.536C378.179 228.047 374.852 247.792 374.898 248.425C375.283 249.085 389.03 257.339 402.323 265.327C423.455 278.018 436.295 285.785 436.399 286.604C436.599 288.125 385.062 350.534 379.024 357.842L377.399 434.146L377.253 434.118L289.448 417.598L241.277 444.211C242.253 448.332 243.257 452.551 244.257 456.768C256.594 508.81 256.769 509.993 256.689 510.11C256.689 510.11 256.686 510.115 256.683 510.119L256.639 510.165L256.575 510.157C256.453 510.14 256.287 510.122 240.034 481.875C232.014 467.941 223.935 453.832 223.854 453.689L223.785 453.566L240.982 444.067C236.067 423.366 231.793 405.427 231.425 403.874L183.746 403.195C182.735 408.746 181.584 415.067 180.273 422.267C161.645 468.043 161.51 468.081 161.428 468.099L161.368 468.114L161.308 468.07C160.615 467.491 160.123 417.908 159.991 402.728L159.989 402.59L160.119 402.594L183.541 402.928C186.567 386.283 190.491 364.695 190.695 363.365C189.689 362.668 167.813 349.464 150.362 338.947L137.293 353.331C137.182 353.42 127.625 360.86 118.153 368.155C98.8931 382.989 98.7559 382.817 98.6229 382.648C98.4717 382.459 98.1624 382.063 113.471 353.851C121.016 339.942 128.741 325.956 128.822 325.819L128.887 325.704L128.999 325.773C133.626 328.556 141.6 333.359 150.318 338.609L174.738 311.727L150.615 265.937C143.693 268.436 137.152 270.785 132.419 272.484C132.273 272.501 120.519 273.644 108.908 274.743C102.088 275.389 96.6517 275.896 92.7513 276.244C85.2981 276.915 85.2888 276.882 85.2384 276.741C85.1761 276.552 85.0883 276.345 112.039 259.835C125.308 251.706 138.769 243.529 138.907 243.447L139.025 243.377L139.087 243.501L150.737 265.616C167.9 259.413 186.345 252.67 187.273 252.06C187.224 251.093 182.564 231.693 178.148 213.533L153.249 215.686L153.243 215.545C153.233 215.382 152.377 199.06 151.673 182.907C150.367 153.53 150.675 150.362 150.94 149.97ZM178.069 213.266C176.339 206.158 174.655 199.253 173.302 193.742C166.122 179.347 152.498 152.251 151.087 150.26C150.387 153.088 152.551 197.858 153.473 215.394L178.069 213.266ZM138.907 243.747C121.369 254.396 88.8532 274.25 85.6965 276.562C89.0642 276.39 117.208 273.695 132.348 272.223C137.473 270.388 143.873 268.086 150.473 265.696L138.907 243.747ZM261.6 146.707C243.641 136.04 210.025 116.246 206.921 115.094C208.473 117.636 226.176 141.715 235.662 154.555L249.42 168.802L261.6 146.707ZM227.415 209.26L227.349 209.263L178.391 213.502C182.553 230.623 187.645 251.773 187.496 252.171L187.493 252.176C187.174 252.646 167.899 259.686 150.848 265.847L175.041 311.767L174.975 311.836L150.534 338.74C169.048 349.899 190.8 363.032 190.927 363.229C190.962 363.281 191.002 363.343 183.792 402.923L231.626 403.605L231.652 403.708C231.705 403.93 236.135 422.517 241.218 443.934L289.409 417.309L289.454 417.317L377.157 433.82L378.778 357.728L378.809 357.692C398.552 333.808 435.941 288.216 436.157 286.615C435.774 285.71 417.16 274.53 402.207 265.555C383.589 254.372 374.802 249.045 374.655 248.475C374.544 248.049 378.167 226.605 381.081 209.527C360.376 209.3 334.244 208.825 333.654 207.859C333.044 206.859 314.619 179.203 302.623 161.218C292.26 173.149 281.911 185.116 273.931 194.369L273.841 194.472L249.48 169.237L227.415 209.26ZM150.124 338.811C139.221 332.242 130.098 326.754 128.969 326.07C118.732 344.6 99.7317 379.376 98.8652 382.356C101.165 380.998 124.638 362.848 137.11 353.132L150.124 338.811ZM344.353 113.477C335.144 119.936 298.051 142.754 292.78 145.994C293.39 146.909 297.377 152.89 302.648 160.787C319.6 141.261 338.359 119.802 344.353 113.477ZM183.487 403.194L160.247 402.864C160.437 424.136 160.914 463.711 161.431 467.6C162.807 464.439 174.008 436.984 180.033 422.19C180.067 421.98 181.594 413.583 183.487 403.194ZM405.292 209.454C405.082 188.082 404.561 148.208 404.045 144.711C402.602 147.36 390.971 174.729 384.801 189.371C383.838 194.983 382.629 202.024 381.392 209.265C390.706 209.371 399.397 209.43 405.292 209.454ZM241.048 444.343L224.146 453.681C234.518 471.793 253.631 505.071 256.356 509.45C255.363 504.737 247.641 472.115 241.048 444.343Z" fill="black"/>
<path d="M143.566 376.037L230.935 403.862L230.956 403.878L302.563 464.883C317.144 473.825 355.023 496.807 357.469 497.125C356.145 494.232 311.93 444.117 288.452 417.707L288.643 417.529C288.818 417.728 306.262 437.352 323.408 456.874C358.155 496.441 357.866 497.033 357.741 497.292C357.725 497.325 357.691 497.366 357.628 497.384C355.921 497.886 307.894 468.459 302.42 465.103L230.818 404.1L143.503 376.289L143.566 376.037Z" fill="black"/>
<path d="M389.652 298.713L389.692 298.664L389.765 298.659C389.958 298.657 390.321 298.655 407.908 333.345C416.192 349.683 424.489 366.227 425.298 367.837L479.513 334.785L479.649 335.015L425.199 368.208L425.133 368.081C413.711 345.296 392.203 302.688 389.884 299.131C390.302 303.005 399.68 342.327 404.766 363.312C405.906 368.596 411.584 394.959 411.099 395.674C410.609 396.359 352.313 399.233 340.427 399.816L302.623 464.576L302.401 464.434L340.274 399.554L340.34 399.55C364.14 398.391 409.307 396.065 410.894 395.498C411.095 394.49 407.197 375.777 404.516 363.37C401.93 352.716 389.09 299.541 389.652 298.713Z" fill="black"/>
<path d="M341.713 157.774L341.953 157.683C342.263 158.54 373.282 243.489 375.06 247.55C376.828 251.596 436.774 316.281 437.379 316.938L437.193 317.12C434.722 314.454 376.609 251.741 374.823 247.656C373.049 243.591 342.024 158.631 341.713 157.774Z" fill="black"/>
<path d="M127.508 294.011L127.557 293.949L150.195 265.414C150.855 264.882 214.193 214.035 227.127 208.953L292.428 145.727L292.513 145.789L352.603 188.959L370.353 194.454L381.38 209.313L421.476 236.431L421.337 236.655L381.207 209.512L381.193 209.495L370.204 194.683L352.48 189.188L292.457 146.067L227.27 209.181L227.246 209.189C214.404 214.203 151.02 265.087 150.38 265.601L127.808 294.056L153.557 356.756L173.687 385.566L183.79 402.965L197.006 438.381L241.252 443.918L280.142 445.045L314.69 445.89L351.385 450.027L378.62 357.653L378.868 357.737L351.573 450.32L351.467 450.308L314.677 446.161L280.141 445.318L241.24 444.189L196.827 438.627L183.566 403.081L173.479 385.713L153.338 356.882L127.508 294.011Z" fill="black"/>
<path d="M418.797 381.423L418.998 381.258L444.593 414.323L444.578 414.39L439.82 432.676L439.571 432.604L444.311 414.383L418.797 381.423Z" fill="black"/>
<path d="M441.849 282.804L442.106 282.797C442.277 288.008 442.198 293.297 441.87 298.506L481.538 313.622L479.821 334.372L479.566 334.348L481.265 313.8L441.605 298.682L441.61 298.582C441.938 293.353 442.02 288.041 441.849 282.804Z" fill="black"/>
<path d="M414.393 196.025L414.603 195.874C419.102 202.569 423.141 209.662 426.611 216.949L471.702 210.167L471.736 210.276L482.917 248.31L482.904 248.347L478.152 266.609L477.904 266.537L482.646 248.307L471.521 210.462L426.466 217.238L426.424 217.15C422.947 209.845 418.901 202.734 414.393 196.025Z" fill="black"/>
<path d="M357.305 446.044L357.565 446.026L362.528 478.676L362.522 478.704C362.511 478.748 361.363 483.343 360.208 487.873C357.848 497.138 357.774 497.143 357.621 497.135C357.445 497.123 357.43 497.125 357.387 489.033C357.364 484.807 357.342 478.912 357.334 471.517C357.306 458.927 357.309 446.17 357.305 446.044ZM362.263 478.664L357.565 447.758C357.563 464.12 357.599 491.801 357.717 496.338C358.41 493.959 360.698 484.921 362.263 478.664Z" fill="black"/>
<path d="M180.898 266.665L181.155 266.716C171.012 324.996 206.901 381.675 262.86 395.749C315.913 409.088 369.837 379.435 388.287 326.764L388.529 326.856C370.026 379.651 315.978 409.375 262.792 395.999C235.642 389.169 212.259 372.043 196.954 347.778C181.708 323.601 176.003 294.793 180.898 266.665Z" fill="black"/>
<path d="M99.2666 220.51L99.3767 220.526L142.228 225.531C143.959 221.202 147.78 215.552 150.544 212.012L150.644 211.883L154.152 216.412L154.051 216.495L142.42 225.763L142.397 225.825L142.303 225.814L99.4673 220.814L94.7719 238.938L94.5223 238.866L99.2666 220.51ZM150.65 212.305C147.986 215.735 144.389 221.055 142.625 225.255L153.791 216.363L150.65 212.305Z" fill="black"/>
<path d="M92.1875 327.052L92.2426 327.027C92.2426 327.027 101.067 323.038 109.905 319.058C124.11 312.664 126.964 311.405 127.586 311.201C127.589 311.197 127.589 311.197 127.592 311.192L127.596 311.195C127.744 311.147 127.758 311.164 127.779 311.179L127.841 311.238L127.815 311.323C127.808 311.37 127.675 311.586 87.5986 345.607L87.2844 345.873L92.1875 327.052ZM127.023 311.702C123.059 313.415 103.309 322.323 92.4036 327.249L87.7472 345.135C91.2388 342.176 122.385 315.721 127.023 311.702Z" fill="black"/>
<path d="M212.468 96.5126L212.538 96.4927L249.15 85.3972L249.288 85.2967L249.33 85.4771L267.62 128.141C277.157 126.936 289.359 126.74 300.299 127.621L300.456 127.632L300.413 127.789C300.405 127.81 300.395 127.835 300.374 127.865C299.063 129.796 266.586 144.938 262.839 146.678L262.691 146.746L262.656 146.584L249.124 85.7351L207.606 115.205L212.468 96.5126ZM248.458 85.8847L212.675 96.7295L208.03 114.58L248.458 85.8847ZM300.042 127.869C289.146 127.007 277.02 127.212 267.554 128.417L267.456 128.43L267.418 128.337L249.629 86.8391L262.87 146.37C277.21 139.702 298.282 129.575 300.042 127.869Z" fill="black"/>
<path d="M316.434 83.5863L349.35 90.9437L349.338 91.0647L347.388 111.407L347.199 111.237L330.41 96.2838L309.644 101.92L309.735 101.675L316.434 83.5863ZM330.174 96.079L316.57 83.9655L310.07 101.536L330.174 96.079ZM348.66 91.063L316.984 83.9821L330.475 96.0001L348.66 91.063ZM349.067 91.2305L330.719 96.2111L347.184 110.875L349.067 91.2305Z" fill="black"/>
<path d="M344.02 137.51L344.451 137.696C354.366 142.022 365.994 148.494 374.111 154.189L409.37 125.158L409.467 125.079L409.551 125.161L437.617 152.607L437.597 152.683L432.755 171.301L432.602 170.993C425.103 155.979 410.963 127.845 409.496 125.504C409.023 126.92 406.505 136.862 404.828 143.574L404.814 143.641L404.748 143.664L374.23 154.452L369.42 172.938L369.26 172.717L344.02 137.51ZM373.969 154.417C365.982 148.81 354.589 142.459 344.786 138.136L369.307 172.348L373.969 154.417ZM409.185 125.653L374.785 153.981L404.595 143.441C405.304 140.593 408.381 128.277 409.185 125.653ZM437.322 152.696L410.102 126.077C411.098 127.86 413.792 133.037 421.37 148.065C426.538 158.311 431.72 168.677 432.67 170.575L437.322 152.696Z" fill="black"/>
<path d="M130.403 160.85L130.425 160.827L156.69 132.057L193.232 159.952C199.257 155.209 205.685 150.891 212.331 147.122L212.493 147.033L214.738 161.81L214.482 161.851L212.296 147.455C205.689 151.212 199.303 155.515 193.314 160.234L193.235 160.293L193.155 160.234L156.716 132.421L130.628 160.996L125.872 179.28L125.622 179.208L130.403 160.85Z" fill="black"/>
<path d="M124.747 178.596C124.936 178.318 126.854 177.829 156.318 177.72C171.772 177.664 187.383 177.749 187.539 177.753L187.67 177.757L187.67 177.888C187.681 180.181 187.722 187.931 187.756 197.608C201.982 201.717 216.121 205.769 227.154 208.907C228.847 198.593 230.963 185.607 233.093 172.32C223.658 167.052 215.729 162.594 213.608 161.399L213.497 161.337L213.555 161.224C213.627 161.081 220.735 146.687 227.908 132.477C242.453 103.663 243.059 103.658 243.314 103.656L243.377 103.656L243.439 103.715C244.091 104.504 238.24 141.942 233.387 172.177C252.306 182.736 272.828 194.065 273.723 194.102C274.525 193.94 301.194 179.712 323.788 167.59C322.819 163.574 321.837 159.457 320.849 155.348C308.264 102.804 308.549 102.421 308.674 102.265L308.717 102.211L308.802 102.208C309.864 102.316 336.256 148.86 341.539 158.189L341.609 158.312L341.49 158.375C340.619 158.844 333.454 162.697 324.085 167.722C327.55 182.126 331.004 196.396 333.715 207.553C343.937 203.88 356.943 199.201 370.109 194.443L368.4 173.385L368.536 173.38C383.304 172.828 431.529 171.09 432.051 171.706L432.093 171.756L432.087 171.83C432.056 172.016 432.005 172.316 382.798 190.137C378.627 191.645 374.453 193.158 370.385 194.626L374.736 248.249C385.174 250.32 398.403 252.925 411.872 255.549L421.338 236.352L421.456 236.413C424.001 237.768 435.278 243.793 447.093 250.211C448.636 248.555 450.259 246.808 451.877 245.07C466.342 229.541 466.471 229.576 466.592 229.613L466.666 229.634L466.687 229.715C466.778 230.068 460.802 241.269 453.946 253.953C466.457 260.796 477.771 267.141 477.886 267.785L477.898 267.852L477.848 267.926C477.724 268.07 477.461 268.365 449.052 262.99C443.899 272.483 438.933 281.578 436.224 286.534L441.995 299.663L441.984 299.707L437.269 317.832L481.908 314.691L457.028 349.665C471.787 373.575 471.505 373.999 471.381 374.182L471.299 374.304L432.614 338.656L413.35 344.131L411.645 396.12C411.654 396.256 412.46 409.266 413.231 423.59C428.088 428.669 439.937 432.84 440.493 433.339C440.581 433.416 440.555 433.501 440.544 433.526C440.468 433.704 440.293 434.045 413.772 434.062C415.139 461.809 414.545 462.142 414.311 462.263C414.273 462.281 414.217 462.298 414.134 462.27C413.011 461.858 405.966 446.689 400.261 434.044C387.858 434.01 377.259 433.936 377.125 433.936L376.929 433.935L384.803 414.27C359.777 405.911 342.224 400.297 341.126 400.307C340.647 401.219 337.565 417.311 333.42 440.404L351.66 450.029L351.603 450.15C351.531 450.293 344.457 464.881 337.321 479.287C322.849 508.5 322.251 508.511 321.993 508.517C321.934 508.52 321.88 508.487 321.848 508.431C321.415 507.658 327.65 471.008 333.127 440.547L289.346 417.441L259.375 445.017L273.208 465.663L273.099 465.74C272.966 465.832 259.627 474.772 246.381 483.48C219.481 501.172 219.186 500.709 219.028 500.456C218.897 500.256 218.597 499.782 231.437 479.054C237.762 468.845 244.248 458.623 244.311 458.519L244.32 458.506L244.333 458.497L259.031 444.973L231.406 403.735C221.269 407.385 208.397 412.046 195.333 416.82L197.13 438.554L196.998 438.562C196.84 438.57 180.972 439.377 165.271 440.013C133.405 441.305 133.263 440.673 133.195 440.37C133.124 440.064 133.009 439.42 182.233 421.339C186.543 419.757 190.865 418.176 195.058 416.645L190.652 363.28C180.173 361.289 166.879 358.781 153.359 356.249C148.156 366.975 144.036 375.46 143.924 375.69L143.868 375.811L143.753 375.747C143.614 375.671 129.488 368.01 115.56 360.364C87.3004 344.847 87.363 344.502 87.3971 344.293C87.427 344.08 87.4689 343.916 103.732 346.828C112.3 348.362 124.243 350.552 139.218 353.342C143.928 354.22 148.643 355.1 153.211 355.953C162.105 337.626 174.105 312.891 174.708 311.608C174.283 310.646 162.382 299.433 144.131 282.756C135.412 288.843 128.633 293.559 127.833 294.119L127.724 294.195L127.652 294.077C121.948 284.882 93.5118 238.957 93.8871 238.001L93.9157 237.931L94.005 237.912C94.9889 237.799 132.276 271.616 133.862 273.057C137.305 276.177 140.77 279.338 144.151 282.426C163.915 268.629 186.723 252.627 187.224 251.965C187.587 251.092 187.587 222.407 187.505 197.809C158.752 189.5 125.218 179.651 124.744 178.77L124.72 178.72L124.733 178.645C124.728 178.634 124.732 178.618 124.747 178.596ZM187.415 178.02C170.636 177.926 127.818 177.877 125.071 178.717C127.251 179.948 157.517 188.87 187.503 197.54C187.475 190.418 187.442 183.657 187.415 178.02ZM143.926 282.58C141.046 279.951 138.013 277.19 134.841 274.308C113.606 255.023 96.1854 239.599 94.1701 238.267C95.3195 241.165 116.439 275.511 127.793 293.823C132.444 290.589 138.045 286.684 143.926 282.58ZM243.255 103.977C241.468 105.741 221.557 145.616 213.849 161.23C219.32 164.306 226.119 168.119 233.149 172.042C238.28 140.032 243.509 106.343 243.255 103.977ZM153.092 356.204C122.672 350.509 91.1644 344.708 87.8385 344.446C90.8606 346.633 125.252 365.422 143.75 375.452C144.28 374.362 148.199 366.277 153.092 356.204ZM227.368 209.246L227.231 209.204C223.13 208.037 206.484 203.295 187.763 197.887C187.838 219.831 187.868 251.455 187.436 252.12C186.987 252.781 161.853 270.386 144.35 282.611C159.941 296.858 173.699 309.691 174.866 311.385C174.95 311.505 175.001 311.607 174.957 311.699C174.621 312.429 162.471 337.471 153.477 356.01C173.533 359.767 190.586 363.003 190.793 363.044L190.889 363.062L190.895 363.165L195.307 416.559C214.641 409.503 231.205 403.536 231.407 403.463L231.501 403.427L231.556 403.514L259.22 444.806L289.303 417.13L289.381 417.174L333.171 440.286C336.985 419.054 340.428 400.896 340.962 400.109C340.971 400.096 340.974 400.092 340.984 400.086C341.634 399.67 371.035 409.41 384.903 414.037L391.519 397.506L378.595 357.621L378.652 357.565C379.962 356.233 409.709 345.195 412.938 343.999L419.801 326.861L390.142 299.527L390.239 299.449L411.751 255.812C391.77 251.915 374.799 248.549 374.592 248.509L374.496 248.491L374.49 248.388L370.134 194.735C350.638 201.777 333.872 207.798 333.67 207.871L333.537 207.917L333.501 207.774C333.448 207.553 328.962 189.108 323.853 167.858C304.027 178.493 274.556 194.25 273.754 194.366C272.989 194.482 250.692 182.14 233.346 172.453C230.518 190.06 228.039 205.18 227.394 209.095L227.368 209.246ZM341.251 158.213C330.778 139.714 311.087 105.255 308.908 102.631C309.277 105.707 316.66 136.849 324.02 167.473C330.301 164.098 336.261 160.899 341.251 158.213ZM195.076 416.918C165.597 427.683 135.269 438.96 133.502 440.321C135.923 441.196 179.723 439.179 196.84 438.309L195.076 416.918ZM431.576 171.872C427.623 171.581 389.305 172.888 368.68 173.655L370.359 194.366C398.981 184.021 428.315 173.338 431.576 171.872ZM259.178 445.205L244.516 458.695C234.466 474.535 219.645 498.369 219.255 500.271C221.611 499.718 258.479 475.22 272.841 465.596L259.178 445.205ZM446.904 250.424C437.222 245.164 427.488 239.944 421.454 236.724L412.139 255.614C420.738 257.289 429.42 258.972 437.536 260.527C437.872 260.162 441.943 255.761 446.904 250.424ZM437.273 260.745C433.788 260.074 430.003 259.347 425.885 258.551C421.219 257.647 416.541 256.741 412.018 255.858L390.727 299.038L437.273 260.745ZM437.61 260.81L390.543 299.534L419.907 326.593L435.966 286.475C439.532 279.947 444.191 271.408 448.78 262.941C445.457 262.311 441.743 261.603 437.61 260.81ZM447.141 250.552C443.757 254.193 440.484 257.726 437.837 260.579C441.683 261.318 445.4 262.022 448.914 262.688C450.499 259.773 452.07 256.869 453.588 254.062C451.474 252.911 449.304 251.732 447.141 250.552ZM466.25 230.209C464.338 232.102 455.546 241.514 447.333 250.354C449.462 251.509 451.608 252.677 453.718 253.832C459.942 242.312 465.207 232.458 466.25 230.209ZM412.806 344.325C408.871 345.785 380.781 356.233 378.893 357.696L391.671 397.123L412.806 344.325ZM477.54 267.733C476.373 266.657 465.87 260.783 453.821 254.194C452.298 257.01 450.737 259.889 449.187 262.744C464.546 265.652 475.99 267.717 477.54 267.733ZM441.728 299.682L436.092 286.86L420.11 326.781L424.929 331.22C431.117 324.523 436.729 318.413 436.982 317.928L441.728 299.682ZM351.312 450.158L333.369 440.685C332.601 444.959 331.802 449.477 330.971 454.18C325.766 483.708 322.094 505.974 322.066 508.167C324.092 505.863 343.688 465.873 351.312 450.158ZM424.751 331.416L420.003 327.041L413.321 343.725C416.501 340.32 420.74 335.756 424.751 331.416ZM412.965 423.506C412.398 412.95 411.787 402.635 411.383 396.123L413.081 344.331L391.787 397.514L391.89 397.849L392.968 416.733C399.749 419.01 406.624 421.337 412.965 423.506ZM424.944 331.59C419.932 337.013 414.992 342.319 413.642 343.766L432.38 338.44L424.944 331.59ZM437.094 318.212C436.191 319.373 430.636 325.427 425.119 331.398L432.7 338.388L456.486 349.295C449.468 337.92 441.62 325.392 437.094 318.212ZM481.369 314.999L437.327 318.102C438.404 319.816 446.548 332.749 454.53 345.63C455.352 346.954 456.134 348.223 456.879 349.426L481.369 314.999ZM392.711 416.643L391.645 397.891L385.15 414.114C387.504 414.9 389.39 415.533 390.585 415.933C391.289 416.168 391.997 416.406 392.711 416.643ZM456.742 349.703L433.334 338.969L471.038 373.716C470.13 371.593 463.893 361.292 456.742 349.703ZM392.727 416.929C392.126 416.729 391.517 416.524 390.912 416.322C388.915 415.654 386.961 414.998 385.047 414.358L377.314 433.677C383.738 433.721 391.866 433.761 400.136 433.789C396.285 425.248 393.067 417.925 392.748 417.197L392.736 417.15L392.727 416.929ZM412.981 423.791C406.963 421.735 400.209 419.445 392.991 417.017L392.995 417.105C395.238 422.217 397.829 428.051 400.419 433.782C404.828 433.795 409.261 433.799 413.501 433.798C413.334 430.519 413.161 427.145 412.981 423.791ZM413.51 434.066C411.981 434.065 410.363 434.065 408.656 434.065C405.927 434.065 403.192 434.055 400.536 434.05C406.904 448.15 413.215 461.558 414.194 462.014C414.678 461.132 414.221 448.535 413.51 434.066ZM440.127 433.429C438.539 432.656 428.196 428.995 413.248 423.883C413.337 425.529 413.425 427.195 413.51 428.865C413.6 430.603 413.684 432.247 413.762 433.807C427.093 433.792 438.359 433.696 440.127 433.429Z" fill="black"/>
<path d="M439.653 432.581L419.151 381.28L418.916 381.38L439.418 432.681L439.653 432.581Z" fill="black"/>
<path d="M444.351 414.395L444.473 414.163L410.938 395.299L410.816 395.53L444.351 414.395Z" fill="black"/>
<path d="M405.737 208.33L426.658 217.035L426.681 217.058L439.475 232.536L471.628 210.247L471.774 210.471L439.432 232.889L426.504 217.253L405.643 208.58L405.737 208.33Z" fill="black"/>
<path d="M482.752 248.134L466.933 228.423L466.737 228.592L482.556 248.303L482.752 248.134Z" fill="black"/>
<path d="M414.215 196.01L414.47 195.963L421.661 234.882L426.306 217.012L466.7 228.524C466.895 227.75 467.942 223.617 468.998 219.49C471.379 210.204 471.41 210.213 471.584 210.256C471.715 210.287 471.719 210.29 472.745 219.195C473.284 223.87 474.023 230.392 474.949 238.572C476.543 252.662 478.113 266.747 478.113 266.747L478.152 267.082L477.907 266.863L439.405 233.032L436.46 285.449L436.201 285.428L439.177 232.48L477.826 266.44C477.334 262.051 472.221 216.338 471.516 210.936C470.82 213.373 468.049 224.274 466.922 228.72L466.89 228.852L426.496 217.34L421.626 236.073L414.215 196.01Z" fill="black"/>
<path d="M350.396 449.889L350.63 449.788L362.539 478.593L362.302 478.699L350.396 449.889Z" fill="black"/>
<path d="M174.595 311.932L174.801 311.777L188.471 331.451L188.471 331.489L190.734 363.217C193.845 364.227 217.404 371.88 217.867 372.206C218.334 372.535 229.057 398.112 231.317 403.524C235.404 402.713 266.698 396.521 267.424 396.805C268.141 397.084 286.503 414.739 289.037 417.179L309.105 396.892L309.165 396.897L340.642 400.147L359.654 370.89L359.674 370.879L378.279 357.699L378.428 357.918L359.843 371.087L340.772 400.431L340.697 400.422L309.205 397.173L289.045 417.549L288.953 417.461C283.162 411.89 267.993 397.359 267.334 397.059C266.5 396.896 241.015 401.881 231.267 403.812L231.164 403.834L231.124 403.734C226.697 393.147 218.194 372.985 217.708 372.421C217.234 372.139 199.748 366.43 190.571 363.449L190.488 363.421L190.48 363.33L188.215 331.549L174.595 311.932Z" fill="black"/>
<path d="M128.942 327.111L128.939 326.62L92.3484 326.877L92.3516 327.368L128.942 327.111Z" fill="black"/>
<path d="M94.5319 238.83L142.443 225.465L142.415 225.666L139.875 243.021L150.507 212.018L150.749 212.111L139.664 244.437L139.411 244.369L142.132 225.83L94.5986 239.087L94.5319 238.83Z" fill="black"/>
<path d="M139.361 244.404L139.486 244.174L99.4954 220.659L99.3698 220.888L139.361 244.404Z" fill="black"/>
<path d="M130.535 160.785L151.973 150.412L152.016 150.424L193.251 159.975L214.442 161.588L214.425 161.856L193.218 160.238L152.006 150.69L130.648 161.03L130.535 160.785Z" fill="black"/>
<path d="M193.077 159.907L193.325 159.983L188.295 177.713L212.338 146.937L212.542 147.106L187.68 178.929L193.077 159.907Z" fill="black"/>
<path d="M156.73 132.17L156.811 132.164C156.979 132.157 157.303 132.147 173.005 155.236C180.746 166.619 188.5 178.154 188.579 178.27L188.369 178.421C178.081 163.124 158.609 134.363 156.867 132.51C156.374 133.973 153.356 145.905 152.18 150.593L151.931 150.521C152.113 149.797 156.373 132.817 156.698 132.237L156.73 132.17Z" fill="black"/>
<path d="M212.692 96.5475L244.503 103.711L249.237 85.5185L249.486 85.5905L244.691 104.024L244.571 103.995L212.641 96.8097L212.692 96.5475Z" fill="black"/>
<path d="M267.318 128.014L267.467 128.111L293.462 145.687L293.324 145.91L267.475 128.435L262.769 146.541L262.515 146.466L267.318 128.014Z" fill="black"/>
<path d="M267.574 128.149L244.616 103.712L244.434 103.896L267.391 128.333L267.574 128.149Z" fill="black"/>
<path d="M342.217 157.502L374.077 154.452L374.1 154.717L342.243 157.762L342.217 157.502Z" fill="black"/>
<path d="M409.702 125.179L409.506 125L369.133 172.744L369.329 172.923L409.702 125.179Z" fill="black"/>
<path d="M437.435 152.499L437.5 152.247L404.78 143.32L404.716 143.572L437.435 152.499Z" fill="black"/>
<path d="M371.761 208.47L371.894 208.245L357.309 199.027L357.176 199.252L371.761 208.47Z" fill="black"/>
<path d="M488.69 312.165C488.204 312.881 488.376 313.875 489.074 314.386C489.771 314.897 490.731 314.73 491.216 314.014C491.702 313.298 491.531 312.304 490.833 311.793C490.135 311.283 489.176 311.449 488.69 312.165Z" fill="#B0B0B0"/>
<path d="M483.607 333.168C482.662 332.476 482.429 331.127 483.087 330.157C483.745 329.187 485.047 328.961 485.992 329.653C486.937 330.345 487.17 331.694 486.512 332.664C485.854 333.634 484.552 333.86 483.607 333.168Z" fill="#B0B0B0"/>
<path d="M473.492 350.122C473.006 350.837 473.178 351.832 473.875 352.343C474.573 352.853 475.532 352.687 476.018 351.971C476.504 351.255 476.332 350.261 475.635 349.75C474.937 349.239 473.978 349.406 473.492 350.122Z" fill="#B0B0B0"/>
<path d="M454.221 361.84C453.736 362.556 453.907 363.551 454.605 364.061C455.303 364.572 456.262 364.406 456.748 363.69C457.234 362.974 457.062 361.98 456.364 361.469C455.667 360.958 454.707 361.124 454.221 361.84Z" fill="#B0B0B0"/>
<path d="M422.993 368.546C422.507 369.262 422.679 370.256 423.376 370.767C424.074 371.278 425.033 371.111 425.519 370.395C426.005 369.679 425.833 368.685 425.136 368.174C424.438 367.664 423.479 367.83 422.993 368.546Z" fill="#B0B0B0"/>
<path d="M428.272 356.428C427.526 357.529 427.789 359.057 428.862 359.842C429.934 360.627 431.408 360.371 432.155 359.271C432.902 358.171 432.638 356.642 431.566 355.857C430.493 355.072 429.019 355.328 428.272 356.428Z" fill="#B0B0B0"/>
<path d="M436.044 376.66C435.558 377.376 435.729 378.37 436.427 378.881C437.125 379.392 438.084 379.225 438.57 378.509C439.056 377.793 438.884 376.799 438.187 376.288C437.489 375.778 436.53 375.944 436.044 376.66Z" fill="#B0B0B0"/>
<path d="M424.028 386.493C423.542 387.209 423.714 388.203 424.411 388.714C425.109 389.225 426.068 389.059 426.554 388.343C427.04 387.627 426.868 386.632 426.171 386.122C425.473 385.611 424.514 385.777 424.028 386.493Z" fill="#B0B0B0"/>
<path d="M430.103 393.3C429.435 394.285 429.671 395.653 430.631 396.356C431.591 397.058 432.911 396.83 433.579 395.845C434.247 394.86 434.011 393.491 433.051 392.789C432.092 392.086 430.772 392.315 430.103 393.3Z" fill="#B0B0B0"/>
<path d="M465.976 364.034C465.49 364.75 465.662 365.744 466.36 366.255C467.057 366.766 468.017 366.599 468.503 365.883C468.988 365.168 468.817 364.173 468.119 363.662C467.422 363.152 466.462 363.318 465.976 364.034Z" fill="#B0B0B0"/>
<path d="M497.953 415.729C497.362 416.599 497.571 417.807 498.418 418.427C499.266 419.048 500.431 418.846 501.021 417.976C501.612 417.106 501.403 415.898 500.556 415.278C499.708 414.658 498.543 414.86 497.953 415.729Z" fill="#B0B0B0"/>
<path d="M496.215 436.074C495.624 436.944 495.833 438.152 496.68 438.772C497.528 439.393 498.693 439.191 499.283 438.321C499.874 437.451 499.665 436.243 498.818 435.623C497.97 435.003 496.805 435.205 496.215 436.074Z" fill="#B0B0B0"/>
<path d="M487.653 477.449C486.805 476.828 486.597 475.621 487.187 474.751C487.778 473.881 488.942 473.679 489.79 474.3C490.638 474.92 490.846 476.128 490.256 476.998C489.666 477.868 488.501 478.07 487.653 477.449Z" fill="#B0B0B0"/>
<path d="M473.912 452.896C473.064 452.275 472.856 451.068 473.446 450.198C474.036 449.328 475.201 449.126 476.049 449.746C476.897 450.367 477.105 451.574 476.515 452.444C475.924 453.314 474.76 453.516 473.912 452.896Z" fill="#B0B0B0"/>
<path d="M448.765 439.268C448.097 440.253 448.333 441.621 449.293 442.323C450.253 443.026 451.573 442.797 452.241 441.812C452.91 440.827 452.673 439.459 451.713 438.756C450.754 438.054 449.434 438.283 448.765 439.268Z" fill="#B0B0B0"/>
<path d="M418.218 452.434C417.315 451.773 417.093 450.483 417.721 449.557C418.35 448.63 419.594 448.415 420.497 449.076C421.4 449.737 421.623 451.026 420.994 451.953C420.362 452.883 419.121 453.095 418.218 452.434Z" fill="#B0B0B0"/>
<path d="M408.356 464.475C407.453 463.814 407.23 462.525 407.859 461.598C408.488 460.672 409.732 460.456 410.635 461.117C411.538 461.778 411.76 463.067 411.132 463.994C410.499 464.917 409.259 465.136 408.356 464.475Z" fill="#B0B0B0"/>
<path d="M421.94 467.776C421.037 467.115 420.814 465.825 421.443 464.899C422.072 463.972 423.316 463.757 424.219 464.418C425.122 465.079 425.344 466.368 424.715 467.295C424.082 468.218 422.843 468.437 421.94 467.776Z" fill="#B0B0B0"/>
<path d="M441.944 435.221C441.041 434.56 440.818 433.271 441.447 432.344C442.076 431.418 443.32 431.202 444.222 431.863C445.125 432.524 445.348 433.813 444.719 434.74C444.09 435.666 442.846 435.882 441.944 435.221Z" fill="#B0B0B0"/>
<path d="M436.868 427.9C436.319 428.71 436.513 429.835 437.302 430.412C438.091 430.99 439.176 430.802 439.725 429.992C440.275 429.182 440.08 428.058 439.291 427.48C438.503 426.903 437.418 427.091 436.868 427.9Z" fill="#B0B0B0"/>
<path d="M465.329 454.522C464.543 455.68 464.821 457.289 465.95 458.115C467.078 458.941 468.63 458.672 469.416 457.514C470.201 456.356 469.924 454.748 468.795 453.921C467.667 453.095 466.115 453.364 465.329 454.522Z" fill="#B0B0B0"/>
<path d="M442.198 472.004C441.071 471.178 440.793 469.568 441.578 468.411C442.363 467.254 443.917 466.985 445.044 467.81C446.172 468.636 446.45 470.246 445.664 471.403C444.879 472.56 443.326 472.829 442.198 472.004Z" fill="#B0B0B0"/>
<path d="M436.504 485.91C435.686 485.311 435.481 484.146 436.054 483.302C436.623 482.462 437.748 482.263 438.57 482.865C439.388 483.464 439.593 484.63 439.021 485.474C438.451 486.313 437.322 486.509 436.504 485.91Z" fill="#B0B0B0"/>
<path d="M461.543 518.75C460.725 518.151 460.523 516.981 461.093 516.141C461.662 515.302 462.787 515.103 463.609 515.705C464.428 516.304 464.633 517.47 464.06 518.313C463.487 519.157 462.361 519.349 461.543 518.75Z" fill="#B0B0B0"/>
<path d="M430.472 565.62C429.654 565.021 429.449 563.855 430.021 563.012C430.591 562.172 431.716 561.973 432.538 562.575C433.356 563.174 433.558 564.344 432.989 565.184C432.412 566.025 431.29 566.219 430.472 565.62Z" fill="#B0B0B0"/>
<path d="M445.479 507.111C445.008 507.805 445.175 508.77 445.851 509.265C446.528 509.76 447.458 509.599 447.929 508.905C448.401 508.21 448.234 507.246 447.557 506.751C446.881 506.255 445.95 506.417 445.479 507.111Z" fill="#B0B0B0"/>
<path d="M429.685 535.202C429.213 535.897 429.38 536.861 430.057 537.356C430.733 537.851 431.663 537.69 432.135 536.996C432.606 536.302 432.439 535.337 431.763 534.842C431.086 534.347 430.156 534.508 429.685 535.202Z" fill="#B0B0B0"/>
<path d="M429.481 524.76C429.009 525.454 429.176 526.419 429.852 526.914C430.529 527.409 431.459 527.248 431.931 526.554C432.402 525.859 432.235 524.895 431.559 524.4C430.882 523.904 429.952 524.066 429.481 524.76Z" fill="#B0B0B0"/>
<path d="M409.143 520.778C408.211 520.096 407.981 518.769 408.631 517.812C409.28 516.855 410.56 516.633 411.493 517.316C412.425 517.998 412.654 519.325 412.005 520.282C411.359 521.235 410.076 521.461 409.143 520.778Z" fill="#B0B0B0"/>
<path d="M416.103 534.867C415.573 535.648 415.761 536.732 416.521 537.289C417.282 537.846 418.329 537.665 418.858 536.884C419.388 536.103 419.201 535.019 418.44 534.462C417.679 533.905 416.633 534.086 416.103 534.867Z" fill="#B0B0B0"/>
<path d="M393.273 537.738C392.455 537.139 392.25 535.973 392.822 535.129C393.392 534.29 394.517 534.091 395.339 534.693C396.161 535.295 396.362 536.458 395.79 537.302C395.216 538.138 394.091 538.337 393.273 537.738Z" fill="#B0B0B0"/>
<path d="M379.923 582.882C379.105 582.283 378.9 581.118 379.473 580.274C380.043 579.434 381.171 579.239 381.99 579.837C382.808 580.436 383.013 581.602 382.44 582.446C381.866 583.282 380.741 583.481 379.923 582.882Z" fill="#B0B0B0"/>
<path d="M374.97 550.549C374.152 549.95 373.947 548.784 374.52 547.941C375.089 547.101 376.218 546.905 377.036 547.504C377.855 548.103 378.06 549.269 377.487 550.113C376.914 550.957 375.788 551.148 374.97 550.549Z" fill="#B0B0B0"/>
<path d="M373.799 534.315C372.981 533.716 372.776 532.55 373.349 531.706C373.918 530.867 375.043 530.668 375.866 531.27C376.684 531.869 376.889 533.035 376.316 533.879C375.742 534.715 374.617 534.914 373.799 534.315Z" fill="#B0B0B0"/>
<path d="M363.22 531.907C362.402 531.308 362.197 530.142 362.77 529.298C363.339 528.459 364.464 528.26 365.286 528.862C366.105 529.461 366.31 530.627 365.737 531.47C365.164 532.314 364.038 532.506 363.22 531.907Z" fill="#B0B0B0"/>
<path d="M349.237 544.921C348.237 544.188 347.99 542.757 348.686 541.731C349.383 540.704 350.764 540.465 351.764 541.197C352.765 541.929 353.012 543.36 352.315 544.387C351.618 545.414 350.238 545.653 349.237 544.921Z" fill="#B0B0B0"/>
<path d="M374.695 570.935C373.877 570.336 373.672 569.17 374.244 568.326C374.814 567.487 375.943 567.291 376.761 567.89C377.579 568.489 377.784 569.655 377.211 570.499C376.635 571.339 375.513 571.534 374.695 570.935Z" fill="#B0B0B0"/>
<path d="M355.451 578.919C354.366 578.125 354.098 576.575 354.854 575.461C355.61 574.348 357.106 574.088 358.191 574.883C359.276 575.677 359.543 577.227 358.788 578.341C358.032 579.454 356.536 579.714 355.451 578.919Z" fill="#B0B0B0"/>
<path d="M345.955 557.835C345.198 558.949 345.466 560.498 346.552 561.293C347.638 562.088 349.132 561.829 349.889 560.714C350.645 559.6 350.378 558.051 349.291 557.256C348.205 556.461 346.711 556.72 345.955 557.835Z" fill="#B0B0B0"/>
<path d="M341.485 562.132C340.752 561.595 340.571 560.552 341.082 559.799C341.593 559.047 342.6 558.872 343.333 559.409C344.066 559.946 344.246 560.989 343.736 561.742C343.229 562.498 342.218 562.669 341.485 562.132Z" fill="#B0B0B0"/>
<path d="M342.546 583.571C341.698 582.95 341.489 581.743 342.08 580.873C342.67 580.003 343.835 579.801 344.683 580.421C345.531 581.042 345.739 582.249 345.149 583.119C344.558 583.989 343.393 584.191 342.546 583.571Z" fill="#B0B0B0"/>
<path d="M351.062 587.666C350.214 587.045 350.006 585.838 350.596 584.968C351.187 584.098 352.352 583.896 353.199 584.517C354.047 585.137 354.256 586.345 353.665 587.215C353.075 588.085 351.91 588.287 351.062 587.666Z" fill="#B0B0B0"/>
<path d="M319.204 569.951C318.119 569.156 317.852 567.606 318.607 566.493C319.363 565.379 320.859 565.12 321.944 565.914C323.029 566.709 323.297 568.259 322.541 569.372C321.785 570.486 320.289 570.745 319.204 569.951Z" fill="#B0B0B0"/>
<path d="M330.631 550.965C329.546 550.171 329.278 548.62 330.034 547.507C330.79 546.393 332.285 546.134 333.37 546.928C334.455 547.723 334.723 549.273 333.967 550.387C333.209 551.504 331.716 551.759 330.631 550.965Z" fill="#B0B0B0"/>
<path d="M325.693 501.377C324.917 500.809 324.727 499.706 325.267 498.91C325.807 498.114 326.872 497.93 327.647 498.498C328.423 499.066 328.613 500.169 328.073 500.965C327.533 501.761 326.469 501.945 325.693 501.377Z" fill="#B0B0B0"/>
<path d="M333.373 516.378C332.597 515.81 332.407 514.707 332.947 513.911C333.487 513.115 334.551 512.93 335.327 513.498C336.103 514.066 336.293 515.169 335.753 515.965C335.22 516.76 334.148 516.946 333.373 516.378Z" fill="#B0B0B0"/>
<path d="M352.135 491.869C351.36 491.301 351.169 490.198 351.709 489.402C352.25 488.606 353.314 488.421 354.09 488.989C354.865 489.557 355.056 490.66 354.516 491.456C353.975 492.252 352.911 492.436 352.135 491.869Z" fill="#B0B0B0"/>
<path d="M306.22 503.878C305.445 503.31 305.254 502.207 305.794 501.411C306.335 500.615 307.399 500.43 308.175 500.998C308.95 501.566 309.141 502.669 308.601 503.465C308.067 504.26 306.996 504.445 306.22 503.878Z" fill="#B0B0B0"/>
<path d="M274.893 515.901C274.225 516.886 274.461 518.254 275.421 518.957C276.381 519.66 277.701 519.431 278.369 518.446C279.037 517.461 278.801 516.093 277.841 515.39C276.882 514.687 275.562 514.916 274.893 515.901Z" fill="#B0B0B0"/>
<path d="M279.609 532.911C278.941 533.896 279.177 535.265 280.137 535.967C281.097 536.67 282.417 536.441 283.085 535.456C283.754 534.471 283.517 533.103 282.558 532.4C281.598 531.698 280.278 531.926 279.609 532.911Z" fill="#B0B0B0"/>
<path d="M261.6 527.169C260.931 528.154 261.167 529.522 262.127 530.225C263.087 530.928 264.407 530.699 265.075 529.714C265.744 528.729 265.508 527.361 264.548 526.658C263.588 525.955 262.268 526.184 261.6 527.169Z" fill="#B0B0B0"/>
<path d="M211.667 518.457C210.998 519.442 211.234 520.81 212.194 521.513C213.154 522.215 214.474 521.987 215.142 521.002C215.811 520.017 215.575 518.649 214.615 517.946C213.655 517.243 212.335 517.472 211.667 518.457Z" fill="#B0B0B0"/>
<path d="M283.983 537.212C283.039 538.603 283.373 540.535 284.728 541.528C286.084 542.52 287.948 542.197 288.892 540.806C289.836 539.415 289.502 537.483 288.147 536.49C286.791 535.498 284.927 535.821 283.983 537.212Z" fill="#B0B0B0"/>
<path d="M241.011 548.075C239.655 547.082 239.322 545.152 240.266 543.76C241.211 542.368 243.073 542.045 244.43 543.038C245.786 544.031 246.119 545.961 245.175 547.353C244.226 548.742 242.363 549.065 241.011 548.075Z" fill="#B0B0B0"/>
<path d="M211.851 539.885C210.907 541.276 211.241 543.208 212.597 544.2C213.952 545.192 215.816 544.869 216.76 543.478C217.704 542.087 217.37 540.155 216.015 539.163C214.66 538.17 212.795 538.494 211.851 539.885Z" fill="#B0B0B0"/>
<path d="M313.763 550.591C312.661 549.784 312.391 548.219 313.159 547.088C313.926 545.957 315.436 545.695 316.538 546.502C317.64 547.309 317.911 548.874 317.143 550.005C316.376 551.136 314.861 551.395 313.763 550.591Z" fill="#B0B0B0"/>
<path d="M295.855 550.288C294.753 549.482 294.483 547.916 295.25 546.785C296.018 545.654 297.528 545.393 298.63 546.199C299.732 547.006 300.002 548.571 299.235 549.702C298.47 550.829 296.957 551.095 295.855 550.288Z" fill="#B0B0B0"/>
<path d="M288.982 571.136C287.88 570.329 287.61 568.764 288.378 567.633C289.145 566.502 290.655 566.24 291.757 567.047C292.859 567.854 293.13 569.419 292.362 570.55C291.595 571.681 290.084 571.943 288.982 571.136Z" fill="#B0B0B0"/>
<path d="M275.371 550.424C274.116 549.506 273.807 547.717 274.681 546.429C275.555 545.142 277.28 544.842 278.535 545.761C279.79 546.68 280.099 548.468 279.225 549.756C278.351 551.043 276.625 551.343 275.371 550.424Z" fill="#B0B0B0"/>
<path d="M271.969 615.181C270.867 614.374 270.596 612.809 271.364 611.678C272.131 610.547 273.641 610.285 274.744 611.092C275.846 611.899 276.116 613.464 275.348 614.595C274.581 615.726 273.071 615.988 271.969 615.181Z" fill="#B0B0B0"/>
<path d="M259.501 559.788C258.508 561.251 258.859 563.283 260.284 564.327C261.71 565.371 263.671 565.031 264.664 563.568C265.657 562.104 265.306 560.072 263.88 559.029C262.454 557.985 260.494 558.325 259.501 559.788Z" fill="#B0B0B0"/>
<path d="M256.81 549.521C255.538 548.59 255.23 546.782 256.112 545.481C256.995 544.18 258.742 543.877 260.01 544.805C261.281 545.736 261.59 547.544 260.707 548.845C259.824 550.146 258.077 550.449 256.81 549.521Z" fill="#B0B0B0"/>
<path d="M240.438 558.824C239.294 557.986 239.016 556.357 239.81 555.187C240.607 554.012 242.179 553.743 243.319 554.578C244.464 555.416 244.741 557.045 243.947 558.215C243.153 559.385 241.579 559.658 240.438 558.824Z" fill="#B0B0B0"/>
<path d="M234.796 606.282C233.651 605.444 233.374 603.815 234.168 602.645C234.965 601.47 236.537 601.202 237.677 602.036C238.822 602.874 239.099 604.503 238.305 605.674C237.508 606.848 235.94 607.12 234.796 606.282Z" fill="#B0B0B0"/>
<path d="M251.053 578.568C249.909 577.73 249.631 576.101 250.426 574.931C251.223 573.756 252.794 573.488 253.935 574.322C255.079 575.16 255.357 576.789 254.563 577.959C253.768 579.13 252.198 579.406 251.053 578.568Z" fill="#B0B0B0"/>
<path d="M266.023 585.875C265.108 585.205 264.878 583.897 265.519 582.953C266.156 582.014 267.418 581.791 268.338 582.465C269.253 583.135 269.483 584.442 268.842 585.386C268.201 586.33 266.939 586.545 266.023 585.875Z" fill="#B0B0B0"/>
<path d="M257.795 588.043C257.156 588.985 257.382 590.293 258.3 590.965C259.218 591.637 260.48 591.418 261.119 590.476C261.758 589.535 261.532 588.227 260.614 587.555C259.697 586.883 258.435 587.102 257.795 588.043Z" fill="#B0B0B0"/>
<path d="M352.508 530.037C351.762 529.491 351.578 528.425 352.097 527.66C352.617 526.894 353.645 526.716 354.391 527.262C355.137 527.808 355.321 528.874 354.802 529.64C354.282 530.405 353.254 530.583 352.508 530.037Z" fill="#B0B0B0"/>
<path d="M337.504 535.694C336.984 536.461 337.168 537.525 337.914 538.072C338.661 538.619 339.688 538.441 340.208 537.674C340.728 536.908 340.545 535.843 339.798 535.297C339.051 534.75 338.024 534.928 337.504 535.694Z" fill="#B0B0B0"/>
<path d="M336.121 526.94C335.375 526.394 335.191 525.328 335.711 524.562C336.23 523.797 337.259 523.618 338.005 524.165C338.751 524.711 338.935 525.777 338.415 526.542C337.896 527.308 336.867 527.486 336.121 526.94Z" fill="#B0B0B0"/>
<path d="M343.309 528.291C342.563 527.745 342.379 526.679 342.898 525.913C343.418 525.148 344.446 524.969 345.192 525.515C345.938 526.062 346.122 527.127 345.603 527.893C345.083 528.659 344.055 528.837 343.309 528.291Z" fill="#B0B0B0"/>
<path d="M374.325 601.857C373.265 601.081 373.005 599.575 373.743 598.488C374.481 597.401 375.934 597.149 376.994 597.924C378.053 598.7 378.313 600.206 377.575 601.293C376.837 602.381 375.385 602.633 374.325 601.857Z" fill="#B0B0B0"/>
<path d="M337.756 612.998C336.697 612.223 336.437 610.717 337.175 609.63C337.913 608.542 339.365 608.29 340.425 609.066C341.485 609.842 341.745 611.347 341.007 612.435C340.269 613.522 338.812 613.771 337.756 612.998Z" fill="#B0B0B0"/>
<path d="M427.957 500.327C426.855 499.521 426.585 497.955 427.352 496.824C428.12 495.693 429.63 495.432 430.732 496.239C431.834 497.045 432.104 498.611 431.337 499.741C430.572 500.868 429.059 501.134 427.957 500.327Z" fill="#B0B0B0"/>
<path d="M408.255 501.548C407.153 500.742 406.883 499.176 407.65 498.045C408.418 496.914 409.928 496.653 411.03 497.459C412.132 498.266 412.402 499.831 411.635 500.962C410.867 502.093 409.357 502.355 408.255 501.548Z" fill="#B0B0B0"/>
<path d="M393.636 516.109C392.534 515.303 392.264 513.737 393.032 512.606C393.799 511.475 395.309 511.214 396.411 512.02C397.513 512.827 397.784 514.392 397.016 515.523C396.249 516.654 394.739 516.916 393.636 516.109Z" fill="#B0B0B0"/>
<path d="M377.308 523.112C376.205 522.305 375.935 520.74 376.703 519.609C377.47 518.478 378.98 518.216 380.082 519.023C381.185 519.83 381.455 521.395 380.687 522.526C379.923 523.653 378.405 523.916 377.308 523.112Z" fill="#B0B0B0"/>
<path d="M366.106 550.515C365.162 551.906 365.496 553.838 366.851 554.831C368.207 555.823 370.071 555.5 371.015 554.109C371.959 552.718 371.625 550.786 370.27 549.794C368.914 548.801 367.05 549.124 366.106 550.515Z" fill="#B0B0B0"/>
<path d="M415.09 484.226C414.357 483.689 414.177 482.646 414.687 481.893C415.198 481.14 416.205 480.966 416.938 481.503C417.671 482.04 417.852 483.083 417.341 483.836C416.83 484.588 415.823 484.763 415.09 484.226Z" fill="#B0B0B0"/>
<path d="M376.954 474.506C376.221 473.97 376.041 472.926 376.552 472.174C377.062 471.421 378.069 471.246 378.802 471.783C379.536 472.32 379.716 473.364 379.205 474.116C378.694 474.869 377.688 475.043 376.954 474.506Z" fill="#B0B0B0"/>
<path d="M382.586 499.766C381.917 500.751 382.153 502.119 383.113 502.822C384.073 503.524 385.393 503.296 386.061 502.311C386.73 501.326 386.494 499.957 385.534 499.255C384.574 498.552 383.254 498.781 382.586 499.766Z" fill="#B0B0B0"/>
<path d="M456.292 536.88C455.359 536.198 455.13 534.871 455.779 533.914C456.429 532.957 457.709 532.735 458.641 533.418C459.574 534.1 459.803 535.427 459.153 536.384C458.504 537.341 457.224 537.563 456.292 536.88Z" fill="#B0B0B0"/>
<path d="M429.157 444.823C428.371 445.981 428.649 447.589 429.777 448.415C430.906 449.241 432.458 448.972 433.243 447.814C434.029 446.656 433.752 445.048 432.623 444.222C431.495 443.396 429.943 443.665 429.157 444.823Z" fill="#B0B0B0"/>
<path d="M444.341 411.104C443.438 410.443 443.216 409.153 443.845 408.227C444.473 407.3 445.717 407.085 446.62 407.746C447.523 408.407 447.746 409.696 447.117 410.622C446.488 411.549 445.248 411.768 444.341 411.104Z" fill="#B0B0B0"/>
<path d="M427.779 422.033C426.876 421.372 426.653 420.082 427.282 419.156C427.911 418.229 429.155 418.014 430.058 418.675C430.961 419.336 431.183 420.625 430.554 421.552C429.926 422.478 428.682 422.694 427.779 422.033Z" fill="#B0B0B0"/>
<path d="M415.043 435.377C414.572 436.071 414.738 437.035 415.415 437.531C416.091 438.026 417.022 437.865 417.493 437.17C417.964 436.476 417.797 435.512 417.121 435.016C416.444 434.521 415.514 434.682 415.043 435.377Z" fill="#B0B0B0"/>
<path d="M405.303 428.66C404.832 429.355 404.999 430.319 405.675 430.814C406.352 431.31 407.282 431.148 407.754 430.454C408.225 429.76 408.058 428.795 407.382 428.3C406.705 427.805 405.775 427.966 405.303 428.66Z" fill="#B0B0B0"/>
<path d="M394.924 458.463C394.177 459.563 394.441 461.092 395.513 461.876C396.585 462.661 398.06 462.406 398.806 461.305C399.553 460.205 399.289 458.677 398.217 457.892C397.145 457.107 395.67 457.363 394.924 458.463Z" fill="#B0B0B0"/>
<path d="M377.438 484.73C376.848 485.6 377.056 486.808 377.904 487.428C378.751 488.049 379.917 487.847 380.507 486.977C381.097 486.107 380.888 484.899 380.041 484.279C379.194 483.659 378.028 483.861 377.438 484.73Z" fill="#B0B0B0"/>
<path d="M357.498 505.244C356.426 504.459 356.162 502.931 356.909 501.831C357.656 500.73 359.13 500.475 360.202 501.26C361.275 502.045 361.539 503.573 360.792 504.673C360.045 505.774 358.571 506.03 357.498 505.244Z" fill="#B0B0B0"/>
<path d="M304.981 519.107C304.235 520.207 304.498 521.735 305.571 522.52C306.643 523.305 308.117 523.049 308.864 521.949C309.611 520.849 309.347 519.32 308.275 518.536C307.203 517.751 305.728 518.006 304.981 519.107Z" fill="#B0B0B0"/>
<path d="M284.138 501.663C283.235 501.002 283.013 499.713 283.641 498.786C284.27 497.859 285.514 497.644 286.417 498.305C287.32 498.966 287.543 500.255 286.914 501.182C286.285 502.108 285.041 502.324 284.138 501.663Z" fill="#B0B0B0"/>
<path d="M256.795 492.413C255.892 491.752 255.67 490.463 256.299 489.536C256.927 488.61 258.171 488.394 259.074 489.055C259.977 489.716 260.2 491.005 259.571 491.932C258.938 492.855 257.698 493.074 256.795 492.413Z" fill="#B0B0B0"/>
<path d="M223.181 489.471C222.278 488.81 222.056 487.52 222.684 486.594C223.313 485.667 224.557 485.452 225.46 486.113C226.363 486.774 226.585 488.063 225.957 488.99C225.324 489.913 224.084 490.132 223.181 489.471Z" fill="#B0B0B0"/>
<path d="M206.223 436.856C205.32 436.195 205.097 434.906 205.726 433.979C206.355 433.053 207.599 432.837 208.502 433.498C209.405 434.159 209.627 435.448 208.998 436.375C208.37 437.301 207.126 437.517 206.223 436.856Z" fill="#B0B0B0"/>
<path d="M197.304 443.592C196.401 442.931 196.178 441.642 196.807 440.715C197.436 439.789 198.68 439.573 199.583 440.234C200.486 440.895 200.708 442.184 200.08 443.111C199.451 444.038 198.207 444.253 197.304 443.592Z" fill="#B0B0B0"/>
<path d="M216.908 456.06C216.247 455.576 216.084 454.629 216.544 453.95C217.005 453.272 217.918 453.114 218.579 453.598C219.24 454.082 219.404 455.028 218.943 455.707C218.48 456.39 217.57 456.544 216.908 456.06Z" fill="#B0B0B0"/>
<path d="M208.546 492.828C207.682 494.101 207.988 495.869 209.228 496.778C210.469 497.686 212.175 497.39 213.039 496.117C213.904 494.844 213.598 493.075 212.357 492.167C211.117 491.258 209.41 491.554 208.546 492.828Z" fill="#B0B0B0"/>
<path d="M200.197 508.444C198.955 507.535 198.65 505.768 199.515 504.494C200.38 503.219 202.084 502.924 203.326 503.833C204.568 504.742 204.873 506.508 204.008 507.783C203.143 509.058 201.439 509.353 200.197 508.444Z" fill="#B0B0B0"/>
<path d="M189.88 491.556C188.638 490.647 188.333 488.88 189.198 487.606C190.063 486.331 191.767 486.036 193.009 486.945C194.251 487.854 194.556 489.621 193.691 490.895C192.826 492.17 191.117 492.462 189.88 491.556Z" fill="#B0B0B0"/>
<path d="M206.847 465.004C205.983 466.277 206.288 468.046 207.529 468.954C208.77 469.863 210.476 469.567 211.34 468.293C212.204 467.02 211.899 465.252 210.658 464.343C209.417 463.435 207.711 463.731 206.847 465.004Z" fill="#B0B0B0"/>
<path d="M169.192 458.161C168.328 459.435 168.633 461.203 169.874 462.111C171.114 463.02 172.821 462.724 173.685 461.451C174.549 460.177 174.243 458.409 173.003 457.501C171.762 456.592 170.056 456.888 169.192 458.161Z" fill="#B0B0B0"/>
<path d="M159.691 477.723C158.826 478.996 159.132 480.765 160.373 481.673C161.613 482.582 163.32 482.286 164.184 481.012C165.048 479.739 164.742 477.971 163.502 477.062C162.261 476.154 160.555 476.45 159.691 477.723Z" fill="#B0B0B0"/>
<path d="M196.528 527.765C195.286 526.856 194.981 525.089 195.846 523.815C196.711 522.54 198.415 522.245 199.657 523.154C200.899 524.063 201.204 525.83 200.339 527.104C199.479 528.382 197.77 528.674 196.528 527.765Z" fill="#B0B0B0"/>
<path d="M178.016 572.106C177.41 571.662 177.261 570.798 177.683 570.176C178.105 569.554 178.939 569.409 179.545 569.853C180.151 570.297 180.301 571.161 179.878 571.783C179.461 572.408 178.626 572.553 178.016 572.106Z" fill="#B0B0B0"/>
<path d="M150.601 545.731C149.995 545.287 149.845 544.422 150.268 543.8C150.69 543.178 151.524 543.034 152.13 543.477C152.736 543.921 152.885 544.786 152.463 545.408C152.041 546.03 151.207 546.174 150.601 545.731Z" fill="#B0B0B0"/>
<path d="M177.158 545.451C176.352 544.861 176.154 543.713 176.712 542.891C177.273 542.065 178.38 541.873 179.186 542.462C179.991 543.052 180.189 544.2 179.628 545.026C179.07 545.848 177.963 546.04 177.158 545.451Z" fill="#B0B0B0"/>
<path d="M189.55 544.682C188.744 544.092 188.546 542.944 189.104 542.122C189.665 541.296 190.772 541.104 191.578 541.693C192.383 542.283 192.577 543.427 192.016 544.254C191.463 545.079 190.355 545.271 189.55 544.682Z" fill="#B0B0B0"/>
<path d="M176.855 507.96C175.923 507.277 175.694 505.95 176.343 504.993C176.992 504.036 178.272 503.814 179.205 504.497C180.138 505.18 180.367 506.506 179.717 507.463C179.068 508.42 177.788 508.642 176.855 507.96Z" fill="#B0B0B0"/>
<path d="M176.879 534.951C175.946 534.268 175.717 532.942 176.367 531.985C177.016 531.028 178.296 530.806 179.228 531.489C180.161 532.171 180.39 533.498 179.741 534.455C179.091 535.412 177.811 535.634 176.879 534.951Z" fill="#B0B0B0"/>
<path d="M179.977 476.008C179.045 475.326 178.815 473.999 179.465 473.042C180.114 472.085 181.394 471.863 182.327 472.546C183.259 473.228 183.488 474.555 182.839 475.512C182.19 476.469 180.91 476.691 179.977 476.008Z" fill="#B0B0B0"/>
<path d="M176.079 449.068C175.303 448.5 175.112 447.397 175.653 446.601C176.193 445.805 177.257 445.621 178.033 446.188C178.808 446.756 178.999 447.859 178.459 448.655C177.921 449.447 176.854 449.636 176.079 449.068Z" fill="#B0B0B0"/>
<path d="M190.584 465.339C189.809 464.771 189.618 463.668 190.158 462.872C190.699 462.076 191.763 461.892 192.539 462.459C193.314 463.027 193.505 464.13 192.965 464.926C192.424 465.722 191.36 465.907 190.584 465.339Z" fill="#B0B0B0"/>
<path d="M177.246 441.724C176.47 442.868 176.744 444.456 177.859 445.272C178.973 446.088 180.506 445.822 181.282 444.678C182.058 443.535 181.783 441.947 180.669 441.131C179.555 440.315 178.022 440.581 177.246 441.724Z" fill="#B0B0B0"/>
<path d="M240.503 491.08C239.6 490.419 239.378 489.13 240.007 488.203C240.635 487.277 241.879 487.061 242.782 487.722C243.685 488.383 243.908 489.672 243.279 490.599C242.643 491.527 241.406 491.741 240.503 491.08Z" fill="#B0B0B0"/>
<path d="M234.938 477.549C233.866 476.764 233.602 475.236 234.349 474.135C235.096 473.035 236.57 472.779 237.642 473.564C238.715 474.349 238.978 475.877 238.231 476.978C237.485 478.078 236.01 478.334 234.938 477.549Z" fill="#B0B0B0"/>
<path d="M247.541 509.153C246.299 508.244 245.994 506.477 246.859 505.203C247.724 503.928 249.428 503.633 250.67 504.542C251.912 505.451 252.217 507.218 251.352 508.492C250.487 509.767 248.783 510.062 247.541 509.153Z" fill="#B0B0B0"/>
<path d="M468.718 326.172C468.305 326.779 468.451 327.624 469.043 328.057C469.636 328.491 470.45 328.35 470.863 327.742C471.275 327.134 471.129 326.29 470.537 325.856C469.945 325.423 469.13 325.564 468.718 326.172Z" fill="#B0B0B0"/>
<path d="M492.499 342.588C491.905 342.153 491.76 341.311 492.173 340.702C492.587 340.093 493.399 339.952 493.993 340.387C494.586 340.821 494.731 341.663 494.318 342.272C493.905 342.881 493.088 343.019 492.499 342.588Z" fill="#B0B0B0"/>
<path d="M443.499 318.865C443.013 319.581 443.185 320.576 443.882 321.087C444.58 321.597 445.539 321.431 446.025 320.715C446.511 319.999 446.339 319.005 445.642 318.494C444.944 317.983 443.985 318.15 443.499 318.865Z" fill="#B0B0B0"/>
<path d="M431.244 298.218C430.758 298.934 430.93 299.928 431.627 300.439C432.325 300.95 433.284 300.783 433.77 300.068C434.256 299.352 434.084 298.357 433.387 297.846C432.689 297.336 431.73 297.502 431.244 298.218Z" fill="#B0B0B0"/>
<path d="M409.213 273.767C408.727 274.482 408.898 275.477 409.596 275.988C410.294 276.498 411.253 276.332 411.739 275.616C412.225 274.9 412.053 273.906 411.355 273.395C410.658 272.884 409.698 273.051 409.213 273.767Z" fill="#B0B0B0"/>
<path d="M438.097 249.591C437.611 250.306 437.783 251.301 438.481 251.812C439.178 252.322 440.138 252.156 440.623 251.44C441.109 250.724 440.938 249.73 440.24 249.219C439.542 248.708 438.583 248.875 438.097 249.591Z" fill="#B0B0B0"/>
<path d="M364.022 212.987C363.536 213.702 363.708 214.697 364.405 215.208C365.103 215.718 366.062 215.552 366.548 214.836C367.034 214.12 366.862 213.126 366.165 212.615C365.467 212.104 364.508 212.271 364.022 212.987Z" fill="#B0B0B0"/>
<path d="M422.934 282.686C422.448 283.401 422.62 284.396 423.318 284.907C424.015 285.417 424.975 285.251 425.461 284.535C425.946 283.819 425.775 282.825 425.077 282.314C424.38 281.803 423.42 281.97 422.934 282.686Z" fill="#B0B0B0"/>
<path d="M377.751 310.412C377.266 311.128 377.437 312.122 378.135 312.633C378.833 313.144 379.792 312.977 380.278 312.261C380.764 311.545 380.592 310.551 379.894 310.04C379.197 309.53 378.237 309.696 377.751 310.412Z" fill="#B0B0B0"/>
<path d="M387.916 295.909C387.431 296.625 387.602 297.619 388.3 298.13C388.998 298.641 389.957 298.475 390.443 297.759C390.929 297.043 390.757 296.048 390.059 295.538C389.362 295.027 388.402 295.193 387.916 295.909Z" fill="#B0B0B0"/>
<path d="M388.48 310.521C387.994 311.237 388.166 312.231 388.864 312.742C389.561 313.253 390.521 313.087 391.007 312.371C391.492 311.655 391.321 310.66 390.623 310.15C389.925 309.639 388.966 309.805 388.48 310.521Z" fill="#B0B0B0"/>
<path d="M398.645 313.353C397.628 312.608 397.378 311.162 398.087 310.118C398.795 309.074 400.19 308.832 401.208 309.577C402.225 310.322 402.475 311.768 401.766 312.812C401.058 313.856 399.663 314.098 398.645 313.353Z" fill="#B0B0B0"/>
<path d="M350.875 312.213C349.748 311.387 349.47 309.777 350.255 308.62C351.04 307.463 352.593 307.194 353.721 308.019C354.848 308.845 355.126 310.455 354.341 311.612C353.556 312.769 352.003 313.038 350.875 312.213Z" fill="#B0B0B0"/>
<path d="M402.326 293.17C401.309 292.425 401.059 290.979 401.768 289.935C402.476 288.891 403.871 288.649 404.888 289.394C405.906 290.139 406.155 291.585 405.447 292.629C404.738 293.673 403.343 293.914 402.326 293.17Z" fill="#B0B0B0"/>
<path d="M374.287 303.297C373.499 302.72 373.305 301.594 373.854 300.785C374.403 299.976 375.489 299.788 376.277 300.365C377.066 300.942 377.26 302.067 376.711 302.877C376.162 303.686 375.076 303.874 374.287 303.297Z" fill="#B0B0B0"/>
<path d="M454.812 254.387C454.326 255.103 454.498 256.097 455.196 256.608C455.893 257.119 456.853 256.953 457.339 256.237C457.824 255.521 457.653 254.526 456.955 254.016C456.257 253.505 455.298 253.671 454.812 254.387Z" fill="#B0B0B0"/>
<path d="M422.31 310.309C421.642 311.294 421.878 312.662 422.838 313.365C423.798 314.067 425.118 313.839 425.786 312.854C426.454 311.869 426.218 310.5 425.258 309.798C424.299 309.095 422.979 309.324 422.31 310.309Z" fill="#B0B0B0"/>
<path d="M449.234 275.225C448.277 274.524 448.037 273.157 448.707 272.169C449.374 271.186 450.693 270.954 451.655 271.658C452.613 272.36 452.853 273.727 452.183 274.714C451.508 275.698 450.192 275.927 449.234 275.225Z" fill="#B0B0B0"/>
<path d="M421.311 245.533C420.643 246.518 420.879 247.886 421.839 248.589C422.799 249.292 424.119 249.063 424.787 248.078C425.456 247.093 425.219 245.725 424.26 245.022C423.3 244.319 421.98 244.548 421.311 245.533Z" fill="#B0B0B0"/>
<path d="M390.54 255.865C389.871 256.85 390.108 258.218 391.068 258.921C392.027 259.623 393.347 259.394 394.016 258.409C394.684 257.424 394.448 256.056 393.488 255.354C392.528 254.651 391.208 254.88 390.54 255.865Z" fill="#B0B0B0"/>
<path d="M355.36 279.735C354.692 280.72 354.928 282.088 355.888 282.791C356.848 283.493 358.168 283.265 358.836 282.28C359.505 281.295 359.268 279.926 358.308 279.224C357.349 278.521 356.029 278.75 355.36 279.735Z" fill="#B0B0B0"/>
<path d="M370.081 289.979C369.412 290.964 369.649 292.332 370.609 293.035C371.568 293.738 372.888 293.509 373.557 292.524C374.225 291.539 373.989 290.171 373.029 289.468C372.069 288.765 370.749 288.994 370.081 289.979Z" fill="#B0B0B0"/>
<path d="M361.443 239.575C360.775 240.56 361.011 241.928 361.971 242.631C362.931 243.334 364.251 243.105 364.919 242.12C365.588 241.135 365.351 239.767 364.391 239.064C363.432 238.361 362.112 238.59 361.443 239.575Z" fill="#B0B0B0"/>
<path d="M357.546 258.499C356.544 259.976 356.898 262.028 358.338 263.082C359.777 264.136 361.757 263.793 362.76 262.316C363.763 260.838 363.408 258.786 361.969 257.732C360.529 256.678 358.549 257.021 357.546 258.499Z" fill="#B0B0B0"/>
<path d="M366.191 192.642C365.523 193.627 365.759 194.995 366.719 195.698C367.678 196.4 368.998 196.172 369.667 195.187C370.335 194.202 370.099 192.833 369.139 192.131C368.179 191.428 366.859 191.657 366.191 192.642Z" fill="#B0B0B0"/>
<path d="M333.084 185.26C332.415 186.245 332.651 187.613 333.611 188.316C334.571 189.018 335.891 188.789 336.559 187.804C337.228 186.819 336.992 185.451 336.032 184.749C335.072 184.046 333.752 184.275 333.084 185.26Z" fill="#B0B0B0"/>
<path d="M326.175 202.691C325.311 203.964 325.616 205.733 326.857 206.641C328.098 207.55 329.804 207.254 330.668 205.981C331.532 204.707 331.227 202.939 329.986 202.03C328.745 201.122 327.039 201.418 326.175 202.691Z" fill="#B0B0B0"/>
<path d="M386.314 278C385.072 277.091 384.767 275.325 385.632 274.05C386.497 272.776 388.201 272.48 389.443 273.389C390.685 274.299 390.99 276.065 390.125 277.34C389.268 278.613 387.556 278.91 386.314 278Z" fill="#B0B0B0"/>
<path d="M309.573 247.587C308.709 248.86 309.015 250.628 310.255 251.537C311.496 252.445 313.202 252.149 314.067 250.876C314.931 249.603 314.625 247.834 313.385 246.926C312.144 246.017 310.437 246.313 309.573 247.587Z" fill="#B0B0B0"/>
<path d="M315.468 229.179C314.604 230.452 314.909 232.221 316.15 233.129C317.391 234.037 319.097 233.742 319.961 232.468C320.825 231.195 320.52 229.426 319.279 228.518C318.039 227.61 316.332 227.906 315.468 229.179Z" fill="#B0B0B0"/>
<path d="M278.631 247.539C277.767 248.812 278.072 250.581 279.313 251.489C280.554 252.398 282.26 252.102 283.124 250.828C283.988 249.555 283.683 247.787 282.442 246.878C281.201 245.97 279.495 246.266 278.631 247.539Z" fill="#B0B0B0"/>
<path d="M260.137 204.684C259.273 205.957 259.578 207.726 260.819 208.634C262.06 209.543 263.766 209.247 264.63 207.974C265.494 206.7 265.189 204.932 263.948 204.023C262.707 203.115 261.001 203.411 260.137 204.684Z" fill="#B0B0B0"/>
<path d="M346.887 201.243C345.645 200.334 345.34 198.567 346.205 197.293C347.07 196.018 348.774 195.723 350.016 196.632C351.258 197.541 351.563 199.308 350.698 200.582C349.841 201.855 348.129 202.152 346.887 201.243Z" fill="#B0B0B0"/>
<path d="M344.259 233.728C343.395 235.001 343.7 236.77 344.941 237.678C346.182 238.586 347.888 238.29 348.752 237.017C349.616 235.744 349.311 233.975 348.07 233.067C346.829 232.159 345.123 232.454 344.259 233.728Z" fill="#B0B0B0"/>
<path d="M333.207 236.131C332.164 235.367 331.907 233.877 332.633 232.806C333.359 231.736 334.797 231.487 335.84 232.25C336.883 233.014 337.14 234.505 336.414 235.575C335.688 236.645 334.254 236.897 333.207 236.131Z" fill="#B0B0B0"/>
<path d="M284.238 233.168C283.195 232.405 282.938 230.914 283.664 229.844C284.39 228.774 285.829 228.525 286.871 229.288C287.914 230.051 288.172 231.542 287.445 232.612C286.719 233.682 285.281 233.932 284.238 233.168Z" fill="#B0B0B0"/>
<path d="M267.207 189.731C266.419 189.154 266.225 188.028 266.774 187.219C267.323 186.41 268.409 186.222 269.197 186.799C269.985 187.376 270.18 188.502 269.631 189.311C269.082 190.12 267.996 190.308 267.207 189.731Z" fill="#B0B0B0"/>
<path d="M230.093 201.109C229.304 200.531 229.11 199.406 229.659 198.597C230.208 197.788 231.294 197.6 232.082 198.177C232.871 198.754 233.065 199.879 232.516 200.689C231.971 201.501 230.885 201.689 230.093 201.109Z" fill="#B0B0B0"/>
<path d="M224.715 220.205C223.698 219.46 223.448 218.014 224.157 216.97C224.865 215.926 226.26 215.684 227.278 216.429C228.295 217.174 228.544 218.62 227.836 219.664C227.128 220.708 225.733 220.95 224.715 220.205Z" fill="#B0B0B0"/>
<path d="M242.29 244.719C241.272 243.974 241.023 242.528 241.731 241.484C242.44 240.44 243.835 240.198 244.852 240.943C245.869 241.688 246.119 243.134 245.41 244.178C244.702 245.222 243.307 245.463 242.29 244.719Z" fill="#B0B0B0"/>
<path d="M257.295 238.326C256.277 237.581 256.028 236.135 256.736 235.091C257.445 234.047 258.84 233.805 259.857 234.55C260.874 235.295 261.124 236.741 260.415 237.785C259.707 238.829 258.308 239.068 257.295 238.326Z" fill="#B0B0B0"/>
<path d="M253.761 259.408C252.744 258.663 252.494 257.217 253.203 256.173C253.911 255.129 255.306 254.887 256.324 255.632C257.341 256.377 257.591 257.823 256.882 258.867C256.174 259.911 254.779 260.152 253.761 259.408Z" fill="#B0B0B0"/>
<path d="M230.49 262.928C229.546 264.319 229.88 266.251 231.235 267.244C232.59 268.236 234.454 267.913 235.398 266.522C236.342 265.131 236.009 263.199 234.653 262.206C233.298 261.214 231.434 261.537 230.49 262.928Z" fill="#B0B0B0"/>
<path d="M204.299 279.289C203.355 280.68 203.689 282.612 205.045 283.605C206.4 284.597 208.264 284.274 209.208 282.883C210.152 281.492 209.818 279.56 208.463 278.567C207.108 277.575 205.243 277.898 204.299 279.289Z" fill="#B0B0B0"/>
<path d="M204.945 314.15C204.001 315.541 204.335 317.473 205.69 318.465C207.046 319.457 208.91 319.134 209.854 317.743C210.798 316.352 210.464 314.42 209.108 313.428C207.753 312.435 205.889 312.759 204.945 314.15Z" fill="#B0B0B0"/>
<path d="M190.889 298.822C189.817 298.037 189.553 296.509 190.3 295.408C191.047 294.308 192.521 294.052 193.593 294.837C194.665 295.622 194.929 297.15 194.182 298.251C193.436 299.351 191.961 299.607 190.889 298.822Z" fill="#B0B0B0"/>
<path d="M156.153 349.401C155.08 348.616 154.816 347.088 155.563 345.988C156.31 344.887 157.784 344.632 158.857 345.417C159.929 346.202 160.193 347.73 159.446 348.83C158.702 349.927 157.225 350.186 156.153 349.401Z" fill="#B0B0B0"/>
<path d="M143.942 396.649C143.196 397.75 143.459 399.278 144.532 400.063C145.604 400.848 147.078 400.592 147.825 399.492C148.572 398.392 148.308 396.863 147.236 396.078C146.163 395.294 144.689 395.549 143.942 396.649Z" fill="#B0B0B0"/>
<path d="M149.937 378.179C148.623 377.217 148.305 375.349 149.217 374.005C150.132 372.657 151.934 372.348 153.244 373.307C154.558 374.269 154.876 376.137 153.964 377.481C153.056 378.828 151.251 379.141 149.937 378.179Z" fill="#B0B0B0"/>
<path d="M144.62 415.986C143.687 415.303 143.458 413.976 144.107 413.019C144.757 412.062 146.037 411.84 146.969 412.523C147.902 413.206 148.131 414.532 147.482 415.489C146.832 416.446 145.552 416.668 144.62 415.986Z" fill="#B0B0B0"/>
<path d="M159.112 330.109C158.264 329.489 158.056 328.281 158.646 327.411C159.236 326.542 160.401 326.34 161.249 326.96C162.097 327.581 162.305 328.788 161.715 329.658C161.124 330.528 159.955 330.727 159.112 330.109Z" fill="#B0B0B0"/>
<path d="M183.539 283.67C182.467 282.885 182.203 281.357 182.95 280.256C183.697 279.156 185.171 278.9 186.243 279.685C187.316 280.471 187.58 281.998 186.833 283.099C186.086 284.199 184.612 284.455 183.539 283.67Z" fill="#B0B0B0"/>
<path d="M189.89 260.229C188.818 259.443 188.554 257.915 189.301 256.815C190.047 255.714 191.522 255.459 192.594 256.244C193.666 257.029 193.93 258.557 193.183 259.658C192.437 260.758 190.962 261.014 189.89 260.229Z" fill="#B0B0B0"/>
<path d="M245.91 204.931C244.838 204.146 244.574 202.618 245.321 201.518C246.068 200.417 247.542 200.162 248.615 200.947C249.687 201.732 249.951 203.26 249.204 204.36C248.457 205.461 246.983 205.717 245.91 204.931Z" fill="#B0B0B0"/>
<path d="M273.628 220.407C272.822 219.818 272.624 218.67 273.185 217.844C273.746 217.017 274.85 216.829 275.656 217.419C276.461 218.009 276.659 219.156 276.101 219.979C275.533 220.806 274.429 220.994 273.628 220.407Z" fill="#B0B0B0"/>
<path d="M168.988 289.145C168.241 290.245 168.505 291.774 169.577 292.559C170.65 293.344 172.124 293.088 172.871 291.988C173.618 290.887 173.354 289.359 172.282 288.574C171.209 287.789 169.735 288.045 168.988 289.145Z" fill="#B0B0B0"/>
<path d="M170.035 282.489C169.416 282.036 169.263 281.149 169.694 280.514C170.125 279.879 170.981 279.73 171.6 280.183C172.218 280.636 172.372 281.523 171.941 282.158C171.51 282.793 170.654 282.942 170.035 282.489Z" fill="#B0B0B0"/>
<path d="M169.391 256.132C168.035 255.139 167.701 253.208 168.646 251.816C169.591 250.424 171.453 250.102 172.81 251.095C174.166 252.088 174.499 254.018 173.555 255.41C172.606 256.799 170.743 257.122 169.391 256.132Z" fill="#B0B0B0"/>
<path d="M111.259 344.634C109.903 343.641 109.57 341.711 110.514 340.319C111.459 338.927 113.321 338.604 114.678 339.597C116.034 340.59 116.368 342.521 115.423 343.913C114.478 345.305 112.616 345.628 111.259 344.634Z" fill="#B0B0B0"/>
<path d="M134.875 333.433C134.158 334.49 134.412 335.959 135.442 336.713C136.472 337.467 137.888 337.221 138.606 336.164C139.323 335.107 139.07 333.639 138.039 332.885C137.009 332.131 135.593 332.376 134.875 333.433Z" fill="#B0B0B0"/>
<path d="M228.397 248.783C227.729 249.768 227.965 251.136 228.925 251.839C229.885 252.542 231.204 252.313 231.873 251.328C232.541 250.343 232.305 248.975 231.345 248.272C230.386 247.569 229.066 247.798 228.397 248.783Z" fill="#B0B0B0"/>
<path d="M209.43 261.902C208.762 262.887 208.998 264.255 209.958 264.958C210.918 265.661 212.238 265.432 212.906 264.447C213.575 263.462 213.338 262.094 212.379 261.391C211.419 260.688 210.099 260.917 209.43 261.902Z" fill="#B0B0B0"/>
<path d="M170.655 317.809C169.986 318.794 170.223 320.162 171.183 320.864C172.142 321.567 173.462 321.338 174.131 320.353C174.799 319.368 174.563 318 173.603 317.298C172.643 316.595 171.323 316.824 170.655 317.809Z" fill="#B0B0B0"/>
<path d="M194.836 315.6C194.167 316.585 194.403 317.953 195.363 318.655C196.323 319.358 197.643 319.129 198.311 318.144C198.98 317.159 198.744 315.791 197.784 315.089C196.824 314.386 195.504 314.615 194.836 315.6Z" fill="#B0B0B0"/>
<path d="M204.975 299.344C204.307 300.329 204.543 301.697 205.503 302.4C206.463 303.103 207.783 302.874 208.451 301.889C209.119 300.904 208.883 299.536 207.923 298.833C206.964 298.13 205.644 298.359 204.975 299.344Z" fill="#B0B0B0"/>
<path d="M221.788 293.644C221.119 294.629 221.355 295.997 222.315 296.699C223.275 297.402 224.595 297.173 225.264 296.188C225.932 295.203 225.696 293.835 224.736 293.132C223.776 292.43 222.456 292.659 221.788 293.644Z" fill="#B0B0B0"/>
<path d="M205.028 338.66C204.359 339.645 204.595 341.013 205.555 341.715C206.515 342.418 207.835 342.189 208.504 341.204C209.172 340.219 208.936 338.851 207.976 338.149C207.016 337.446 205.696 337.675 205.028 338.66Z" fill="#B0B0B0"/>
<path d="M197.97 369.47C197.499 370.164 197.666 371.129 198.342 371.624C199.019 372.119 199.949 371.958 200.421 371.264C200.892 370.569 200.725 369.605 200.049 369.11C199.372 368.614 198.442 368.776 197.97 369.47Z" fill="#B0B0B0"/>
<path d="M172.994 377.491C172.523 378.186 172.689 379.15 173.366 379.645C174.042 380.141 174.973 379.979 175.444 379.285C175.915 378.591 175.749 377.626 175.072 377.131C174.396 376.636 173.465 376.797 172.994 377.491Z" fill="#B0B0B0"/>
<path d="M167.757 370.886C166.57 370.017 166.282 368.329 167.105 367.115C167.929 365.901 169.561 365.618 170.744 366.484C171.931 367.353 172.219 369.042 171.395 370.255C170.572 371.469 168.944 371.755 167.757 370.886Z" fill="#B0B0B0"/>
<path d="M191.195 417.667C190.008 416.798 189.72 415.109 190.544 413.896C191.371 412.678 193 412.399 194.183 413.265C195.369 414.134 195.657 415.823 194.834 417.036C194.007 418.254 192.378 418.533 191.195 417.667Z" fill="#B0B0B0"/>
<path d="M161.343 388.6C160.156 387.732 159.868 386.043 160.691 384.829C161.518 383.611 163.147 383.333 164.33 384.198C165.517 385.067 165.805 386.756 164.981 387.97C164.155 389.188 162.529 389.469 161.343 388.6Z" fill="#B0B0B0"/>
<path d="M146.031 432.155C144.844 431.286 144.556 429.598 145.38 428.384C146.206 427.166 147.836 426.887 149.018 427.753C150.205 428.622 150.493 430.311 149.67 431.525C148.846 432.738 147.218 433.024 146.031 432.155Z" fill="#B0B0B0"/>
<path d="M110.076 431.762C109.173 431.101 108.951 429.811 109.58 428.885C110.208 427.958 111.452 427.742 112.355 428.403C113.258 429.064 113.481 430.354 112.852 431.28C112.216 432.208 110.979 432.423 110.076 431.762Z" fill="#B0B0B0"/>
<path d="M104.036 447.555C103.406 448.483 103.629 449.771 104.532 450.432C105.436 451.094 106.679 450.878 107.308 449.951C107.937 449.024 107.715 447.736 106.811 447.074C105.908 446.413 104.665 446.628 104.036 447.555Z" fill="#B0B0B0"/>
<path d="M128.39 463.916C127.487 463.255 127.264 461.965 127.893 461.039C128.522 460.112 129.766 459.897 130.669 460.558C131.572 461.219 131.794 462.508 131.165 463.435C130.532 464.358 129.293 464.577 128.39 463.916Z" fill="#B0B0B0"/>
<path d="M156.794 428.192C155.891 427.531 155.669 426.241 156.297 425.315C156.926 424.388 158.17 424.172 159.073 424.833C159.976 425.494 160.199 426.784 159.57 427.71C158.937 428.634 157.697 428.853 156.794 428.192Z" fill="#B0B0B0"/>
<path d="M126.482 431.135C125.863 430.681 125.71 429.795 126.141 429.159C126.572 428.524 127.428 428.376 128.047 428.829C128.666 429.282 128.819 430.169 128.388 430.804C127.957 431.439 127.101 431.588 126.482 431.135Z" fill="#B0B0B0"/>
<path d="M139.915 469.342C139.296 468.889 139.143 468.002 139.574 467.367C140.005 466.732 140.861 466.584 141.479 467.037C142.098 467.49 142.251 468.377 141.82 469.012C141.39 469.647 140.538 469.799 139.915 469.342Z" fill="#B0B0B0"/>
<path d="M133.043 454.382C132.424 453.928 132.271 453.042 132.702 452.406C133.133 451.771 133.989 451.623 134.607 452.076C135.226 452.529 135.379 453.416 134.948 454.051C134.519 454.694 133.666 454.838 133.043 454.382Z" fill="#B0B0B0"/>
<path d="M115.88 487.902C114.977 487.241 114.755 485.952 115.383 485.025C116.012 484.099 117.256 483.883 118.159 484.544C119.062 485.205 119.284 486.494 118.656 487.421C118.024 488.352 116.783 488.563 115.88 487.902Z" fill="#B0B0B0"/>
<path d="M153.598 459.298C152.356 458.388 152.051 456.622 152.916 455.347C153.781 454.073 155.485 453.777 156.727 454.687C157.969 455.596 158.274 457.362 157.409 458.637C156.544 459.911 154.84 460.207 153.598 459.298Z" fill="#B0B0B0"/>
<path d="M161.545 441.12C160.303 440.211 159.998 438.445 160.863 437.17C161.728 435.896 163.433 435.6 164.675 436.509C165.917 437.419 166.222 439.185 165.357 440.459C164.492 441.734 162.787 442.029 161.545 441.12Z" fill="#B0B0B0"/>
<path d="M133.166 360.069C132.478 361.082 132.721 362.491 133.709 363.214C134.697 363.937 136.056 363.702 136.744 362.688C137.432 361.674 137.189 360.266 136.201 359.543C135.213 358.819 133.854 359.055 133.166 360.069Z" fill="#B0B0B0"/>
<path d="M132.498 379.599C131.511 378.876 131.267 377.467 131.955 376.454C132.643 375.44 134.002 375.204 134.99 375.928C135.977 376.651 136.221 378.059 135.533 379.073C134.842 380.091 133.486 380.322 132.498 379.599Z" fill="#B0B0B0"/>
<path d="M103.368 381.984C102.592 381.416 102.401 380.313 102.942 379.517C103.482 378.721 104.546 378.536 105.322 379.104C106.098 379.672 106.288 380.775 105.748 381.571C105.208 382.367 104.143 382.551 103.368 381.984Z" fill="#B0B0B0"/>
<path d="M125.726 367.561C124.95 366.994 124.76 365.89 125.3 365.094C125.84 364.298 126.904 364.114 127.68 364.682C128.456 365.25 128.646 366.353 128.106 367.149C127.573 367.944 126.502 368.129 125.726 367.561Z" fill="#B0B0B0"/>
<path d="M195.863 348.355C194.736 347.53 194.458 345.92 195.243 344.763C196.028 343.606 197.582 343.336 198.709 344.162C199.837 344.987 200.115 346.597 199.329 347.754C198.541 348.916 196.991 349.18 195.863 348.355Z" fill="#B0B0B0"/>
<path d="M173.572 234.285C172.903 235.27 173.14 236.639 174.099 237.341C175.059 238.044 176.379 237.815 177.048 236.83C177.716 235.845 177.48 234.477 176.52 233.774C175.56 233.072 174.24 233.3 173.572 234.285Z" fill="#B0B0B0"/>
<path d="M142.872 284.052C141.914 283.35 141.674 281.983 142.344 280.996C143.015 280.008 144.33 279.78 145.293 280.485C146.255 281.189 146.49 282.553 145.82 283.541C145.15 284.528 143.83 284.753 142.872 284.052Z" fill="#B0B0B0"/>
<path d="M116.085 322.35C115.416 323.335 115.652 324.703 116.612 325.406C117.572 326.109 118.892 325.88 119.56 324.895C120.229 323.91 119.993 322.542 119.033 321.839C118.073 321.136 116.753 321.365 116.085 322.35Z" fill="#B0B0B0"/>
<path d="M147.69 265.213C146.956 264.676 146.776 263.633 147.287 262.88C147.798 262.128 148.804 261.953 149.538 262.49C150.271 263.027 150.451 264.07 149.941 264.823C149.434 265.579 148.423 265.75 147.69 265.213Z" fill="#B0B0B0"/>
<path d="M167.707 316.124C166.973 315.587 166.793 314.543 167.304 313.791C167.815 313.038 168.821 312.864 169.555 313.401C170.288 313.938 170.468 314.981 169.957 315.734C169.447 316.486 168.44 316.661 167.707 316.124Z" fill="#B0B0B0"/>
<path d="M341.244 269.501C340.517 270.572 340.773 272.06 341.818 272.825C342.862 273.589 344.298 273.34 345.025 272.269C345.752 271.197 345.495 269.709 344.451 268.945C343.407 268.18 341.971 268.429 341.244 269.501Z" fill="#B0B0B0"/>
<path d="M338.566 256.455C337.79 255.888 337.6 254.785 338.14 253.988C338.68 253.192 339.744 253.008 340.52 253.576C341.296 254.144 341.486 255.247 340.946 256.043C340.406 256.839 339.342 257.023 338.566 256.455Z" fill="#B0B0B0"/>
<path d="M329.38 278.022C328.605 277.454 328.414 276.351 328.955 275.555C329.495 274.759 330.559 274.574 331.335 275.142C332.11 275.71 332.301 276.813 331.761 277.609C331.223 278.401 330.156 278.59 329.38 278.022Z" fill="#B0B0B0"/>
<path d="M324.964 260.006C324.189 259.438 323.998 258.335 324.538 257.539C325.078 256.743 326.143 256.558 326.918 257.126C327.694 257.694 327.885 258.797 327.344 259.593C326.804 260.389 325.74 260.574 324.964 260.006Z" fill="#B0B0B0"/>
<path d="M276.929 282.966C276.153 282.398 275.963 281.295 276.503 280.499C277.043 279.703 278.108 279.518 278.883 280.086C279.659 280.654 279.849 281.757 279.309 282.553C278.769 283.349 277.705 283.534 276.929 282.966Z" fill="#B0B0B0"/>
<path d="M248.727 232.234C247.951 231.666 247.761 230.563 248.301 229.767C248.841 228.971 249.905 228.787 250.681 229.355C251.457 229.923 251.647 231.026 251.107 231.822C250.567 232.618 249.503 232.802 248.727 232.234Z" fill="#B0B0B0"/>
<path d="M262.135 282.569C261.359 282.002 261.169 280.899 261.709 280.103C262.249 279.306 263.314 279.122 264.089 279.69C264.865 280.258 265.056 281.361 264.515 282.157C263.978 282.949 262.911 283.137 262.135 282.569Z" fill="#B0B0B0"/>
<path d="M329.112 255.141C328.095 254.396 327.845 252.95 328.553 251.906C329.262 250.862 330.657 250.62 331.674 251.365C332.692 252.11 332.941 253.556 332.233 254.6C331.52 255.64 330.125 255.882 329.112 255.141Z" fill="#B0B0B0"/>
<path d="M285.091 274.882C284.074 274.137 283.824 272.691 284.533 271.647C285.241 270.603 286.636 270.361 287.654 271.106C288.671 271.851 288.921 273.297 288.212 274.341C287.504 275.385 286.109 275.627 285.091 274.882Z" fill="#B0B0B0"/>
<path d="M266.835 273.533C265.817 272.788 265.568 271.342 266.276 270.298C266.985 269.254 268.38 269.012 269.397 269.757C270.414 270.502 270.664 271.948 269.955 272.992C269.247 274.036 267.852 274.277 266.835 273.533Z" fill="#B0B0B0"/>
<path d="M271.404 288.074C270.387 287.329 270.137 285.884 270.845 284.84C271.554 283.796 272.949 283.554 273.966 284.298C274.984 285.043 275.233 286.489 274.525 287.533C273.816 288.577 272.421 288.819 271.404 288.074Z" fill="#B0B0B0"/>
<path d="M291.021 299.012C289.808 298.125 289.51 296.396 290.354 295.152C291.198 293.907 292.867 293.618 294.079 294.506C295.291 295.393 295.59 297.122 294.746 298.367C293.901 299.611 292.233 299.9 291.021 299.012Z" fill="#B0B0B0"/>
<path d="M244.609 314.166C243.396 313.278 243.098 311.549 243.942 310.305C244.786 309.061 246.455 308.772 247.667 309.659C248.879 310.547 249.178 312.276 248.333 313.52C247.489 314.764 245.821 315.053 244.609 314.166Z" fill="#B0B0B0"/>
<path d="M203.764 357.443C202.552 356.555 202.253 354.826 203.097 353.582C203.942 352.338 205.61 352.049 206.822 352.936C208.034 353.824 208.333 355.553 207.489 356.797C206.644 358.041 204.976 358.33 203.764 357.443Z" fill="#B0B0B0"/>
<path d="M426.725 229.76C425.878 229.14 425.669 227.932 426.259 227.062C426.85 226.192 428.015 225.99 428.863 226.611C429.71 227.232 429.919 228.439 429.328 229.309C428.738 230.179 427.573 230.381 426.725 229.76Z" fill="#B0B0B0"/>
<path d="M456.401 334.802C455.915 335.518 456.087 336.513 456.784 337.023C457.482 337.534 458.441 337.368 458.927 336.652C459.413 335.936 459.241 334.942 458.544 334.431C457.846 333.92 456.887 334.087 456.401 334.802Z" fill="#B0B0B0"/>
<path d="M438.782 339.999C437.858 339.322 437.63 338.003 438.274 337.055C438.917 336.106 440.19 335.886 441.114 336.562C442.038 337.239 442.266 338.558 441.622 339.506C440.979 340.455 439.706 340.675 438.782 339.999Z" fill="#B0B0B0"/>
<path d="M417.241 346.162C416.097 345.324 415.819 343.695 416.613 342.525C417.41 341.35 418.982 341.082 420.122 341.916C421.267 342.754 421.544 344.383 420.75 345.553C419.953 346.728 418.386 347 417.241 346.162Z" fill="#B0B0B0"/>
<path d="M452.935 389.851C452.01 389.174 451.783 387.855 452.426 386.907C453.07 385.958 454.343 385.738 455.267 386.414C456.191 387.091 456.418 388.41 455.775 389.358C455.131 390.306 453.859 390.527 452.935 389.851Z" fill="#B0B0B0"/>
<path d="M453.692 421.639C452.768 420.963 452.54 419.643 453.184 418.695C453.828 417.747 455.1 417.526 456.024 418.203C456.948 418.879 457.176 420.198 456.533 421.147C455.889 422.095 454.616 422.316 453.692 421.639Z" fill="#B0B0B0"/>
<path d="M458.798 400.436C458.283 401.195 458.465 402.249 459.205 402.791C459.944 403.333 460.962 403.156 461.477 402.397C461.992 401.638 461.81 400.583 461.07 400.042C460.33 399.5 459.313 399.677 458.798 400.436Z" fill="#B0B0B0"/>
<path d="M407.602 403.804C406.678 403.128 406.45 401.809 407.094 400.86C407.737 399.912 409.01 399.691 409.934 400.368C410.858 401.044 411.086 402.364 410.443 403.312C409.799 404.26 408.526 404.481 407.602 403.804Z" fill="#B0B0B0"/>
<path d="M392.221 352.577C391.297 351.9 391.069 350.581 391.712 349.633C392.356 348.684 393.629 348.464 394.553 349.14C395.477 349.817 395.705 351.136 395.061 352.084C394.413 353.029 393.145 353.253 392.221 352.577Z" fill="#B0B0B0"/>
<path d="M500.155 350.198C499.757 350.784 499.898 351.598 500.469 352.016C501.04 352.435 501.826 352.298 502.223 351.712C502.621 351.126 502.481 350.312 501.909 349.894C501.338 349.476 500.553 349.612 500.155 350.198Z" fill="#B0B0B0"/>
<path d="M494.915 370.676C494.089 370.071 493.885 368.893 494.461 368.045C495.037 367.197 496.173 367 496.999 367.605C497.826 368.21 498.029 369.388 497.454 370.236C496.874 371.081 495.738 371.278 494.915 370.676Z" fill="#B0B0B0"/>
<path d="M459.045 384.885C458.559 385.6 458.73 386.595 459.428 387.106C460.126 387.616 461.085 387.45 461.571 386.734C462.057 386.018 461.885 385.024 461.188 384.513C460.49 384.002 459.53 384.169 459.045 384.885Z" fill="#B0B0B0"/>
</svg>
