<svg width="189" height="139" viewBox="0 0 189 139" fill="none" xmlns="http://www.w3.org/2000/svg">
<path d="M133.605 8.80577C133.605 9.56522 134.221 10.1809 134.98 10.1809C135.74 10.1809 136.355 9.56522 136.355 8.80577C136.355 8.04632 135.74 7.43066 134.98 7.43066C134.221 7.43066 133.605 8.04632 133.605 8.80577Z" fill="#4E4E4E"/>
<path d="M173.303 85.5579C172.076 85.5579 171.079 84.5612 171.079 83.3338C171.079 82.1063 172.076 81.1096 173.303 81.1096C174.531 81.1096 175.527 82.1063 175.527 83.3338C175.527 84.5612 174.531 85.5579 173.303 85.5579Z" fill="#4E4E4E"/>
<path d="M185.984 67.2063C185.126 67.2063 184.429 66.5096 184.429 65.6513C184.429 64.793 185.126 64.0962 185.984 64.0962C186.842 64.0962 187.539 64.793 187.539 65.6513C187.539 66.5096 186.842 67.2063 185.984 67.2063Z" fill="#4E4E4E"/>
<path d="M174.3 25.3809C174.3 26.4258 175.147 27.2729 176.192 27.2729C177.237 27.2729 178.084 26.4258 178.084 25.3809C178.084 24.3361 177.237 23.489 176.192 23.489C175.147 23.489 174.3 24.3361 174.3 25.3809Z" fill="#4E4E4E"/>
<path d="M160.453 60.3353C160.453 61.3801 161.3 62.2272 162.344 62.2272C163.389 62.2272 164.236 61.3801 164.236 60.3353C164.236 59.2904 163.389 58.4434 162.344 58.4434C161.3 58.4434 160.453 59.2904 160.453 60.3353Z" fill="#4E4E4E"/>
<path d="M176.302 59.9756C176.302 61.0205 177.149 61.8676 178.194 61.8676C179.239 61.8676 180.086 61.0205 180.086 59.9756C180.086 58.9308 179.239 58.0837 178.194 58.0837C177.149 58.0837 176.302 58.9308 176.302 59.9756Z" fill="#4E4E4E"/>
<path d="M144.937 28.8834C144.937 29.9283 145.784 30.7753 146.829 30.7753C147.874 30.7753 148.721 29.9283 148.721 28.8834C148.721 27.8385 147.874 26.9915 146.829 26.9915C145.784 26.9915 144.937 27.8385 144.937 28.8834Z" fill="#4E4E4E"/>
<path d="M151.5 44.2355C151.5 45.8028 152.771 47.0733 154.338 47.0733C155.905 47.0733 157.176 45.8028 157.176 44.2355C157.176 42.6682 155.905 41.3976 154.338 41.3976C152.771 41.3976 151.5 42.6682 151.5 44.2355Z" fill="#4E4E4E"/>
<path d="M97.2161 5.19258C97.2161 6.23746 98.0631 7.0845 99.108 7.0845C100.153 7.0845 101 6.23746 101 5.19258C101 4.1477 100.153 3.30066 99.108 3.30066C98.0631 3.30066 97.2161 4.1477 97.2161 5.19258Z" fill="#4E4E4E"/>
<path d="M100.833 21.0433C100.833 22.394 101.928 23.489 103.279 23.489C104.63 23.489 105.725 22.394 105.725 21.0433C105.725 19.6926 104.63 18.5977 103.279 18.5977C101.928 18.5977 100.833 19.6926 100.833 21.0433Z" fill="#4E4E4E"/>
<path d="M182.199 43.1789C180.847 43.1789 179.753 42.0853 179.753 40.7333C179.753 39.3812 180.847 38.2876 182.199 38.2876C183.551 38.2876 184.645 39.3812 184.645 40.7333C184.649 42.0807 183.551 43.1789 182.199 43.1789Z" fill="#4E4E4E"/>
<path d="M111.013 61.2535C111.013 62.6042 112.108 63.6992 113.459 63.6992C114.809 63.6992 115.904 62.6042 115.904 61.2535C115.904 59.9028 114.809 58.8079 113.459 58.8079C112.108 58.8079 111.013 59.9028 111.013 61.2535Z" fill="#4E4E4E"/>
<path d="M106.173 45.2369C106.173 46.5876 107.268 47.6826 108.619 47.6826C109.97 47.6826 111.064 46.5876 111.064 45.2369C111.064 43.8862 109.97 42.7913 108.619 42.7913C107.268 42.7913 106.173 43.8862 106.173 45.2369Z" fill="#4E4E4E"/>
<path d="M88.3743 77.1597C88.3743 78.5104 89.4692 79.6053 90.8199 79.6053C92.1707 79.6053 93.2656 78.5104 93.2656 77.1597C93.2656 75.809 92.1707 74.714 90.8199 74.714C89.4692 74.714 88.3743 75.809 88.3743 77.1597Z" fill="#4E4E4E"/>
<path d="M53.5598 56.4685C53.5598 57.8192 54.6548 58.9141 56.0055 58.9141C57.3562 58.9141 58.4512 57.8192 58.4512 56.4685C58.4512 55.1178 57.3562 54.0228 56.0055 54.0228C54.6548 54.0228 53.5598 55.1178 53.5598 56.4685Z" fill="#4E4E4E"/>
<path d="M115.236 9.3642C113.884 9.3642 112.79 8.27059 112.79 6.91856C112.79 5.56652 113.884 4.4729 115.236 4.4729C116.588 4.4729 117.682 5.56652 117.682 6.91856C117.686 8.26597 116.588 9.3642 115.236 9.3642Z" fill="#4E4E4E"/>
<path d="M129.474 33.6131C129.474 34.9638 130.569 36.0588 131.92 36.0588C133.27 36.0588 134.365 34.9638 134.365 33.6131C134.365 32.2624 133.27 31.1675 131.92 31.1675C130.569 31.1675 129.474 32.2624 129.474 33.6131Z" fill="#4E4E4E"/>
<path d="M122.577 41.0102C121.442 41.0102 120.519 40.0874 120.519 38.9522C120.519 37.8171 121.442 36.8942 122.577 36.8942C123.712 36.8942 124.635 37.8171 124.635 38.9522C124.635 40.0874 123.717 41.0102 122.577 41.0102Z" fill="#4E4E4E"/>
<path d="M85.315 64.1468C84.1798 64.1468 83.2569 63.2239 83.2569 62.0888C83.2569 60.9536 84.1798 60.0308 85.315 60.0308C86.4501 60.0308 87.373 60.9536 87.373 62.0888C87.373 63.2239 86.4501 64.1468 85.315 64.1468Z" fill="#4E4E4E"/>
<path d="M51.2789 42.2884C50.4206 42.2884 49.7238 41.5916 49.7238 40.7333C49.7238 39.875 50.4206 39.1782 51.2789 39.1782C52.1372 39.1782 52.834 39.875 52.834 40.7333C52.834 41.5916 52.1372 42.2884 51.2789 42.2884Z" fill="#4E4E4E"/>
<path d="M29.8082 69.4304C28.9499 69.4304 28.2531 68.7337 28.2531 67.8754C28.2531 67.0171 28.9499 66.3203 29.8082 66.3203C30.6665 66.3203 31.3633 67.0171 31.3633 67.8754C31.3679 68.7337 30.6711 69.4304 29.8082 69.4304Z" fill="#4E4E4E"/>
<path d="M35.3684 85.6687C34.261 85.6687 33.3658 84.7735 33.3658 83.666C33.3658 82.5585 34.261 81.6633 35.3684 81.6633C36.4759 81.6633 37.3711 82.5585 37.3711 83.666C37.3711 84.7735 36.4759 85.6687 35.3684 85.6687Z" fill="#4E4E4E"/>
<path d="M60.3958 93.9008C59.2883 93.9008 58.3931 93.0056 58.3931 91.8982C58.3931 90.7907 59.2883 89.8955 60.3958 89.8955C61.5032 89.8955 62.3984 90.7907 62.3984 91.8982C62.3984 93.0056 61.5032 93.9008 60.3958 93.9008Z" fill="#4E4E4E"/>
<path d="M68.1848 81.6633C67.0774 81.6633 66.1822 80.7681 66.1822 79.6606C66.1822 78.5532 67.0774 77.658 68.1848 77.658C69.2923 77.658 70.1875 78.5532 70.1875 79.6606C70.1875 80.7681 69.2877 81.6633 68.1848 81.6633Z" fill="#4E4E4E"/>
<path d="M76.0813 98.3493C74.9738 98.3493 74.0786 97.4541 74.0786 96.3467C74.0786 95.2392 74.9738 94.344 76.0813 94.344C77.1888 94.344 78.084 95.2392 78.084 96.3467C78.084 97.4541 77.1888 98.3493 76.0813 98.3493Z" fill="#4E4E4E"/>
<path d="M60.8402 112.811C60.8402 114.287 62.0364 115.483 63.512 115.483C64.9875 115.483 66.1837 114.287 66.1837 112.811C66.1837 111.335 64.9875 110.139 63.512 110.139C62.0364 110.139 60.8402 111.335 60.8402 112.811Z" fill="#4E4E4E"/>
<path d="M49.8303 137.839C49.8303 139.315 51.0265 140.511 52.5021 140.511C53.9776 140.511 55.1738 139.315 55.1738 137.839C55.1738 136.364 53.9776 135.168 52.5021 135.168C51.0265 135.168 49.8303 136.364 49.8303 137.839Z" fill="#4E4E4E"/>
<path d="M29.8065 131.832C28.639 131.832 27.6931 130.886 27.6931 129.718C27.6931 128.551 28.639 127.605 29.8065 127.605C30.974 127.605 31.9199 128.551 31.9199 129.718C31.9199 130.886 30.974 131.832 29.8065 131.832Z" fill="#4E4E4E"/>
<path d="M43.2694 63.9809C42.1019 63.9809 41.156 63.0349 41.156 61.8674C41.156 60.7 42.1019 59.754 43.2694 59.754C44.4368 59.754 45.3828 60.7 45.3828 61.8674C45.3828 63.0349 44.4368 63.9809 43.2694 63.9809Z" fill="#4E4E4E"/>
<path d="M71.2173 60.6123C70.3405 60.6123 69.6299 59.9017 69.6299 59.0249C69.6299 58.1482 70.3405 57.4421 71.2173 57.4421C72.0941 57.4421 72.8047 58.1528 72.8047 59.0249C72.8001 59.9063 72.0894 60.6123 71.2173 60.6123Z" fill="#4E4E4E"/>
<path d="M12.7892 139.505C11.3126 139.505 10.1174 138.31 10.1174 136.834C10.1174 135.357 11.3126 134.162 12.7892 134.162C14.2658 134.162 15.4609 135.357 15.4609 136.834C15.4563 138.31 14.2612 139.505 12.7892 139.505Z" fill="#4E4E4E"/>
<path d="M52.2747 103.914C52.2747 104.959 53.1218 105.806 54.1667 105.806C55.2116 105.806 56.0586 104.959 56.0586 103.914C56.0586 102.869 55.2116 102.022 54.1667 102.022C53.1218 102.022 52.2747 102.869 52.2747 103.914Z" fill="#4E4E4E"/>
<path d="M44.9329 122.935C44.9329 123.98 45.78 124.827 46.8249 124.827C47.8698 124.827 48.7168 123.98 48.7168 122.935C48.7168 121.89 47.8698 121.043 46.8249 121.043C45.78 121.043 44.9329 121.89 44.9329 122.935Z" fill="#4E4E4E"/>
<path d="M69.7415 138.952C69.7415 139.997 70.5885 140.844 71.6334 140.844C72.6783 140.844 73.5254 139.997 73.5254 138.952C73.5254 137.907 72.6783 137.06 71.6334 137.06C70.5885 137.06 69.7415 137.907 69.7415 138.952Z" fill="#4E4E4E"/>
<path d="M4.99933 121.933C4.99933 122.978 5.84637 123.825 6.89125 123.825C7.93614 123.825 8.7832 122.978 8.7832 121.933C8.7832 120.889 7.93614 120.042 6.89125 120.042C5.84637 120.042 4.99933 120.889 4.99933 121.933Z" fill="#4E4E4E"/>
<path d="M145.048 60.3906C145.048 61.5272 145.969 62.4486 147.106 62.4486C148.243 62.4486 149.164 61.5272 149.164 60.3906C149.164 59.2539 148.243 58.3325 147.106 58.3325C145.969 58.3325 145.048 59.2539 145.048 60.3906Z" fill="#4E4E4E"/>
<path d="M136.596 52.5784C135.751 52.5784 135.068 51.8955 135.068 51.0511C135.068 50.2066 135.751 49.5237 136.596 49.5237C137.44 49.5237 138.123 50.2066 138.123 51.0511C138.123 51.8955 137.44 52.5784 136.596 52.5784Z" fill="#4E4E4E"/>
<path d="M140.602 72.5174C139.757 72.5174 139.074 71.8345 139.074 70.9901C139.074 70.1456 139.757 69.4626 140.602 69.4626C141.446 69.4626 142.129 70.1456 142.129 70.9901C142.129 71.8299 141.446 72.5174 140.602 72.5174Z" fill="#4E4E4E"/>
<path d="M128.42 62.0888C127.575 62.0888 126.892 61.4059 126.892 60.5614C126.892 59.717 127.575 59.0341 128.42 59.0341C129.264 59.0341 129.947 59.717 129.947 60.5614C129.947 61.4059 129.264 62.0888 128.42 62.0888Z" fill="#4E4E4E"/>
<path d="M104.723 103.024C103.878 103.024 103.195 102.341 103.195 101.496C103.195 100.652 103.878 99.969 104.723 99.969C105.567 99.969 106.25 100.652 106.25 101.496C106.25 102.341 105.567 103.024 104.723 103.024Z" fill="#4E4E4E"/>
<path d="M58.8984 81.7787C58.0539 81.7787 57.371 81.0958 57.371 80.2514C57.371 79.4069 58.0539 78.724 58.8984 78.724C59.7428 78.724 60.4258 79.4069 60.4258 80.2514C60.4258 81.0958 59.7428 81.7787 58.8984 81.7787Z" fill="#4E4E4E"/>
<path d="M93.7128 110.365C92.8684 110.365 92.1855 109.682 92.1855 108.838C92.1855 107.993 92.8684 107.31 93.7128 107.31C94.5573 107.31 95.2402 107.993 95.2402 108.838C95.2402 109.678 94.5573 110.365 93.7128 110.365Z" fill="#4E4E4E"/>
<path d="M129.032 56.5239C127.925 56.5239 127.03 55.6287 127.03 54.5212C127.03 53.4137 127.925 52.5186 129.032 52.5186C130.14 52.5186 131.035 53.4137 131.035 54.5212C131.031 55.6287 130.135 56.5239 129.032 56.5239Z" fill="#4E4E4E"/>
<path d="M106.669 93.1211C105.562 93.1211 104.667 92.2259 104.667 91.1184C104.667 90.0109 105.562 89.1157 106.669 89.1157C107.777 89.1157 108.672 90.0109 108.672 91.1184C108.672 92.2259 107.777 93.1211 106.669 93.1211Z" fill="#4E4E4E"/>
<path d="M92.6555 101.575C91.5481 101.575 90.6529 100.679 90.6529 99.572C90.6529 98.4645 91.5481 97.5693 92.6555 97.5693C93.763 97.5693 94.6582 98.4645 94.6582 99.572C94.6582 100.679 93.763 101.575 92.6555 101.575Z" fill="#4E4E4E"/>
<path d="M103.224 109.475C102.116 109.475 101.221 108.579 101.221 107.472C101.221 106.364 102.116 105.469 103.224 105.469C104.331 105.469 105.227 106.364 105.227 107.472C105.227 108.579 104.331 109.475 103.224 109.475Z" fill="#4E4E4E"/>
<path d="M122.996 107.084C121.677 107.084 120.606 106.014 120.606 104.694C120.606 103.374 121.677 102.304 122.996 102.304C124.316 102.304 125.387 103.374 125.387 104.694C125.387 106.014 124.316 107.084 122.996 107.084Z" fill="#4E4E4E"/>
<path d="M96.6058 141.679C95.286 141.679 94.2155 140.608 94.2155 139.288C94.2155 137.969 95.286 136.898 96.6058 136.898C97.9255 136.898 98.9961 137.969 98.9961 139.288C98.9961 140.608 97.9255 141.679 96.6058 141.679Z" fill="#4E4E4E"/>
</svg>
