<svg width="32" height="32" viewBox="0 0 32 32" fill="none" xmlns="http://www.w3.org/2000/svg">
<rect x="1.13049" y="0.361816" width="30.5903" height="30.5903" rx="5" fill="#C4C4C4"/>
<rect x="1.13049" y="0.361816" width="30.5903" height="30.5903" rx="5" fill="#0C9FDE"/>
<path d="M22.6483 10.0079L9.96294 14.6057C9.0971 14.9329 9.0981 15.3976 9.79596 15.6108L13.034 16.6163L20.5846 12.1064C20.9416 11.9009 21.2651 12.0159 20.9964 12.2422L14.8652 17.4912L14.8638 17.4912L14.8652 17.4919L14.6135 20.72C14.9415 20.7228 15.0876 20.5788 15.273 20.409L16.8626 18.9425L20.1225 21.3092C20.7245 21.6359 21.1602 21.4744 21.3167 20.779L23.5541 11.0029C23.7818 10.1519 23.2274 9.76086 22.6483 10.0079Z" fill="white"/>
</svg>
